<svg xmlns="http://www.w3.org/2000/svg" viewBox="0 0 391.98 215.61"><defs><style>.cls-1{opacity:0.8;}.cls-2{fill:#fff;}</style></defs><g id="Layer_2" data-name="Layer 2"><g id="Layer_1-2" data-name="Layer 1"><g class="cls-1"><path class="cls-2" d="M298.17,136.83c4.05,1.78,5.46-.05,5.47-4.22-1.64.68-3.11-.24-4.82-.49C298.59,133.8,298.37,135.37,298.17,136.83Z"/><path class="cls-2" d="M310.23,64.93c2.3-5.15,1.14-7.81-4-10.09-4.49-2-7.11-.94-9.44,4-7,14.77-11.93,30.18-13.62,46.48-.46,4.47-1.24,9.14.81,13.48,1.8,3.81,4.28,7.46,8.87,7.56s5.29-4.33,6.57-7.65C306,101.44,315.73,85.82,325.15,70c.51-.86,1.06-2.26,2.32-1.59,1.07.57.61,1.9.33,2.91-.19.73-.56,1.42-.75,2.15-2.29,9-4.88,17.88-4.82,27.24,0,7,2.32,12.86,9.31,15.8,4.8,2,7,.69,7-4.46a141.58,141.58,0,0,1,10.39-52.4c2.64-6.64,1-10.23-5.68-12.83-5.19-2-9.85-1-13.78,2.94a79.7,79.7,0,0,0-11.33,15.35c-4.8,8-9.58,16-14.5,24.28-1.4-1.77-.54-3-.29-4.28A95.87,95.87,0,0,1,310.23,64.93Z"/><path class="cls-2" d="M284.06,156.18c5.32-1.52,10.58-2.93,15.77-4.56,2-.64,1.93-2.05.51-3.44l-11-10.78c-1.57-1.53-2.73-1.13-3.26.85q-2.05,7.67-3.88,15.37C281.82,155,282,156.47,284.06,156.18Z"/><path class="cls-2" d="M268.86,28.62c.28-3.61.37-7.59-4.74-7.46-1.38,0-4.07,3.18-3.78,4.25C261.54,29.76,265,30.36,268.86,28.62Z"/><path class="cls-2" d="M279.18,37.68c2.75-1.38.25-3.57.39-6.28-2.33,1.77-4.88,2.38-4.58,4.48C275.18,37.15,278,38.25,279.18,37.68Z"/><path class="cls-2" d="M274.86,162.76q3.64,7,7.11,14.16c1.38,2.85,2.77,2.86,4.44.3,2.72-4.17,5.51-8.3,8.18-12.51,2.1-3.31,1.52-4.58-2.44-4.74-5-.2-9.94-.05-14.91-.05C274.05,158.77,273.44,160,274.86,162.76Z"/><path class="cls-2" d="M270,140.07c-2.58-.14-5.75,1.22-8.8,1.64-2.25.32-4.69,2.73-7.9,1.67,2.27,2.4,3.73,4.53,7.64,1.51,2.33-1.8,7.1.18,9.92-2.9,0,0,.23.17.38.21,4.69,1.42,5.43,1,6.59-4.78C275.43,140,273.19,140.24,270,140.07Z"/><path class="cls-2" d="M244.09,151.43c1.41.18,2.24-1.13,2.85-2.36-.39-1.43-1.31-2.64-2.65-2.61a2.64,2.64,0,0,0-2.54,2.6A2.75,2.75,0,0,0,244.09,151.43Z"/><path class="cls-2" d="M250.2,184.08c-1.7.72-3.11-.19-5.33-1.23,1.55,2.4,0,3.82-.57,5.46C247.73,188.82,250.49,188.6,250.2,184.08Z"/><path class="cls-2" d="M258.67,38.24c-.2-1.41-.9-2.33-2.37-2.25a2.35,2.35,0,0,0-2.51,2.61,2.14,2.14,0,0,0,2.38,2.19A2.3,2.3,0,0,0,258.67,38.24Z"/><path class="cls-2" d="M264.22,167.7q-6.71-5.76-13.49-11.42c-1.44-1.21-2.63-.76-3,1-1.16,5.76-2.18,11.55-3.12,16.58-.09,2.54.23,3.9,2.52,3.1,5.54-2,11.09-3.91,16.62-5.9C266,170.26,265.68,169,264.22,167.7Z"/><path class="cls-2" d="M273.52,148.69c-.9.08-1.82.12-2.72.18v-.1c-3.47.36-6.93.79-10.41,1-2.37.17-3.13,1.08-1.74,3.14q3.94,5.84,8,11.59c1.4,2,2.67,1.69,3.65-.41,1.86-4,3.68-8,5.54-12C277.06,149.64,276.46,148.4,273.52,148.69Z"/><path class="cls-2" d="M239.56,159.86c-1.61,0-2.73.76-2.82,2.34s.94,2.43,2.56,2.48a2.19,2.19,0,0,0,2.51-2A2.38,2.38,0,0,0,239.56,159.86Z"/><path class="cls-2" d="M245.28,203.14c1.53-.3,3.41-.29,3.43-3.14s-2.21-1.95-3.31-3.25c-1.36.75-2.78,2-2.69,3.2S243,203.59,245.28,203.14Z"/><path class="cls-2" d="M163.8,18.61c1.21-.17,1.56-1.2,1.71-2.21-.14-1.48-1.25-1.66-2.27-1.7-1.47-.07-1.63,1.08-1.54,2.15A1.75,1.75,0,0,0,163.8,18.61Z"/><path class="cls-2" d="M148.14,152.07c2,3.14,4.3,6.28,8.42,6.06,3.88-.2,4.73-3.8,5.86-6.76,6.71-17.54,16.41-33.5,26-49.5.6-1,1.19-2.62,2.61-1.88s.38,2.19,0,3.27a138.32,138.32,0,0,0-5.44,25.29c-1.12,9.21,2.28,16.78,8.95,19.65,5.07,2.18,7.15,1,7.23-4.52a148,148,0,0,1,10.66-52.8c2.44-6.18.86-9.63-5.32-12.2a12.24,12.24,0,0,0-14.52,3.2,100.87,100.87,0,0,0-11.24,15.44c-4.61,7.45-9.1,15-14,23.12-1.09-2.76-.31-4.63.19-6.5a292.53,292.53,0,0,1,17.78-49.65c3-6.28.39-10.82-6.43-11.54-4.29-.45-6.35,2.32-7.93,5.59-12.1,25-20.81,51.06-24.58,78.64C145.73,142,145.21,147.36,148.14,152.07Z"/><path class="cls-2" d="M158.33,39.72c.12,1.72,1.41,2.15,2.94,2a2.14,2.14,0,0,0,2.13-2.42c-.11-1.53-1.11-2.39-3-2.44A2.85,2.85,0,0,0,158.33,39.72Z"/><path class="cls-2" d="M142.11,35.24c-2.44.51-4.06,2.56-5,4.89-1.49,3.56.11,6,3.9,6.13,5.84.12,9.74-4.84,8.36-10.61-1.26-5.29-2.42-10.6-3.78-15.86-.9-3.49-.11-5.21,3.84-4.7,1.16.15,3,.74,2.93-1.57a2.92,2.92,0,0,0-2.81-3c-1.2-.12-2.42,0-3.63,0-5.35-.31-5.37-.3-4.16,4.94q1.62,7.07,3.33,14.11C145.73,32.3,145.79,34.47,142.11,35.24Z"/><path class="cls-2" d="M177.76,40.25c-3.55,1.11-1.06,2.35.3,4.13,3.5-8.15,6.79-15.74,10-23.38a4.38,4.38,0,0,0,.21-3.07c-.62-1.44-.11-4.07-2-4.13s-3.17,1.68-3.84,3.84c-2.2,7-4.68,14-7,20.9,1.09,1.06,2.25-1.6,3.05.24A1.66,1.66,0,0,1,177.76,40.25Z"/><path class="cls-2" d="M49.28,169.83c-9.48,5.69-22.66,4.2-30.89-3.36a46.54,46.54,0,0,1-8-10.43c-2-3.31-4.11-3-6.31-.15A18.31,18.31,0,0,0,0,166.3c-.47,10.37,6.4,19.74,17.63,22.44,16.73,4,31.78,0,44-12.11,12-11.93,13-31.46-8-39.87-4.79-1.92-9.64-3.68-14.34-5.79-5.8-2.6-8.8-7.46-7.65-12.53,3-13.34,11.42-22.17,23.84-27.3,3.78-1.56,6.67.52,6.83,4.59a19.22,19.22,0,0,1-.57,4.94c-1.21,5.24-3.9,9.83-6.64,14.39-2.14,3.57-.66,6.58,3.47,7.16a9.78,9.78,0,0,0,5.73-1.16c9.23-4.62,14.83-12.12,16-22.3,1.26-10.86-4.14-17.53-15-19.61-1.78-.34-3.61-.41-6.4-.71-17.15,2.12-30.46,11.49-39.43,27-12.11,20.92-5.81,36.63,17.23,44,4.33,1.39,8.77,2.56,12.7,4.94C57,158.91,56.86,165.28,49.28,169.83Z"/><path class="cls-2" d="M106,71.39a9.32,9.32,0,0,0-5.56,4.42c-1.34,2.19-2,4.61-.28,6.79s4.15,2.16,6.65,1.31c5.71-1.93,8.09-6.43,6.6-12.57-1.38-5.74-2.7-11.48-4.12-17.21-.72-2.92-.1-5,2.92-6.16,4-1.55,7.85-3.22,11.71-5,3.27-1.48,4.83-.16,5.53,3s1.32,6.21,2.15,9.28.16,4.87-3,5.94c-3.31,1.12-5.75,3.32-6.42,7-.63,3.45,1,5.74,4.42,6,5.18.35,10-4.29,10-11.22-1.85-7.84-4-17.26-6.34-26.65-.66-2.7-2.67-1.9-4.38-1.19-6.14,2.58-12.24,5.28-18.4,7.81-2.78,1.15-3.43,2.77-2.63,5.71,1.54,5.69,2.59,11.51,4,17.24C109.59,68.71,109.1,70.57,106,71.39Z"/><path class="cls-2" d="M241.77,10.43c-.78-1.59-2.49-3.85-5.29-2.26-1.93,1.11-4,1.67-6.35,0,.35,2.45,1.8,3.13,3.07,3.94-.3,1.3-3.76.35-2.06,2.18.78.85,1.86,4.92,4.68,2.11,1-1,2.05-1,3.19-1.24C241.49,14.54,242.76,12.44,241.77,10.43Z"/><path class="cls-2" d="M215.86,19.91a1.82,1.82,0,0,1,1-2.64c2.47-1,3.1-2.63,1.91-5-.71-1.41.22-2,1.27-2.86,3.13-2.51,2.91-4-1.09-6.93.78,2.76,1.49,5.23-1.9,6.35-1,.35-1.11,1.89-.66,2.84,1.1,2.29.44,3.61-1.83,4.51-.82.32-1.79,1.36-1.39,2.11,1.68,3.1.16,5.1-1.93,7.22C214,24.55,218,25,215.86,19.91Z"/><path class="cls-2" d="M215.21,130.08c1.94,11.65,11.54,15.17,20.88,7.9A38.5,38.5,0,0,0,246,126.24c2.11-3.77,4.2-7.54,6.46-11.59,1.29,1.44,1,2.7,1.13,3.83.82,5.72,3.31,10.38,8.59,13.17,4.89,2.58,7.51,1.06,7.54-4.49a126,126,0,0,1,1.49-21.76c2-11.42,5.66-22.33,9.62-33.18,2.17-6,.51-8.95-5.43-10.62-3.48-1-6.44-.32-8.05,3.15-1.7,3.66-3.42,4.45-6.58,1.25-2.74-2.78-6.31-3.31-10.15-2a35.54,35.54,0,0,0-9.34,4.62c-10.34,7.27-16.6,17.63-21.1,29.05C216.13,108,213.33,118.81,215.21,130.08Zm35.55-54.54c1.89-2.19,4.3-3.41,7.25-1.63s2.68,4.31,1.58,7.11c-5.08,12.83-10.49,25.5-18.21,37-.93,1.39-1.92,2.73-2.92,4.06s-2.3,2-4,1.26a3.07,3.07,0,0,1-1.71-3C234.73,103.49,239.76,88.29,250.76,75.54Z"/><path class="cls-2" d="M173,37.2c1.49-6.83,6.22-12.77,5.58-20.11A63.81,63.81,0,0,0,173,37.2Z"/><path class="cls-2" d="M233.62,27.86A2.7,2.7,0,0,0,231,31a2.33,2.33,0,0,0,2.61,2.48,2.72,2.72,0,0,0,3-2.71C236.25,29.08,235.34,27.78,233.62,27.86Z"/><path class="cls-2" d="M201.66,18.85c-1.79,0-4.15,1.56-4,3.56s2.79,2,4.41,2.54,1.51-.92,1.29-2.23C202.56,21.61,204,18.9,201.66,18.85Z"/><path class="cls-2" d="M190.37,41.74c.91,3.31,1.88,4.94,6.19,3.87,3.05-.76,8.43-.07,10.41,1.35,4.53,3.24,5.41.14,7.53-1.84-2.81.86-5-.58-7.35-1-3.24-.6-7.1-1.71-10.09-1.27C194.31,43.23,192.58,43.22,190.37,41.74Z"/><path class="cls-2" d="M142.26,186.57c2-2.93,7.51-3,10.58-6.07.1-.1.55.18.85.23,2,.36,2-.64,1.52-2.1-1.5-4.54-8.68-9.83-13.84-9.76a5.54,5.54,0,0,0-2.94.86c-4.29,2.65-5.89,14-2.12,17.26C137.91,188.37,139.57,190.45,142.26,186.57Z"/><path class="cls-2" d="M101.22,62.36c-1.69-.13-2.51.85-2.55,2.45a2.12,2.12,0,0,0,2.17,2.37c1.61,0,2.63-.79,2.61-2.42A2.28,2.28,0,0,0,101.22,62.36Z"/><path class="cls-2" d="M96.1,107.79c-11,12.54-16,27.65-18.2,43.86a30.69,30.69,0,0,0,.82,11.74c2.49,9.61,9.8,12.77,18.45,7.77,5.43-3.14,9-8.08,12.07-13.37,2.19-3.79,4.21-7.67,6.31-11.51l.91.23c.16,1.34.22,2.71.5,4,1.28,6,3.25,11.49,9.94,13.5,4.17,1.26,5.46.52,5.48-3.73.08-19.55,4.43-38.2,11.6-56.29,2.19-5.53,1.33-7.5-3.68-9.82s-8.15-1.54-10.47,3.37c-1.69,3.57-3.21,3.35-5.52.82-3.6-4-7.94-4-12.5-2A44.4,44.4,0,0,0,96.1,107.79Zm17.66-.47c2.07-2.11,4.39-3.46,7.27-1.67,3.08,1.91,2.86,4.64,1.63,7.59C117.3,126.13,111.83,139,104,150.66c-.51.76-1,1.52-1.54,2.26-1.09,1.53-2.33,3.15-4.42,2.51-2.4-.74-2.08-3-2.23-5.15,2.09-14.66,6.84-28.45,15.71-40.66A22.7,22.7,0,0,1,113.76,107.32Z"/><path class="cls-2" d="M179.65,215c1.57-.13,2.48-.92,2.41-2.59a2.09,2.09,0,0,0-2.35-2.17,2.38,2.38,0,0,0-2.48,2.62C177.26,214.33,178.26,214.91,179.65,215Z"/><path class="cls-2" d="M133.48,21.86a2.91,2.91,0,0,0-3,3c.08,1,.9,2.91,2.64,2.69,3.09.34,3.33-1.74,3.55-3.76C137,21.19,134.35,22,133.48,21.86Z"/><path class="cls-2" d="M190.15,188.94c-.43-4.42-4.48-7.19-11.5-7.15a24.4,24.4,0,0,0-7.35,1.78c-1.76.71-2.42,1.28-.28,3,3.36,2.64,2.33,8.1,6.11,10.73.05,0,0,.29-.08.43-1.92,4.66,1.49,4.51,4.17,4.18C185.43,201.35,190.6,193.55,190.15,188.94Z"/><path class="cls-2" d="M147.29,65.38c-2.18-4.29-3.73,0-5.77.1l2.95,4.1C144.08,67.33,149,68.76,147.29,65.38Z"/><path class="cls-2" d="M127.29,172.12a2.84,2.84,0,0,0-2.87,2.91c-.08,2,1.12,3,2.94,3.23,2-.24,3.27-1.23,3.23-3.16A3,3,0,0,0,127.29,172.12Z"/><path class="cls-2" d="M124.35,183.26c-1.4.18-3.46,2.55-3.52,4-.07,1.68,1.43,4.55,3.2,4.67,4.51.3,5.53-3.28,6-7.57C127.6,185.13,125.87,183.06,124.35,183.26Z"/><path class="cls-2" d="M383.09,3.72c-6.85,1.4-12.51,10.63-10.42,17.2,1,3,2.61,5.58,6.44,5.06,6.58-.88,12.91-8.32,12.87-15C391.94,5.42,388.49,2.62,383.09,3.72Z"/><path class="cls-2" d="M368.17,105.12c.32-4.83.31-9.7.85-14.51,1.62-14.4,5.68-28.18,11-41.63.87-2.21,2.11-4.43.34-6.86-4.05-5.58-11.46-5.47-14.58.66a130.27,130.27,0,0,0-14.29,52.4c0,6.55,3.42,12.18,9.45,14.48C365.71,111.49,367.83,110.19,368.17,105.12Z"/><path class="cls-2" d="M113.55,176.58a2.35,2.35,0,0,0,2.2,2.38c1.44.07,2.25-1.15,2.8-2.56a3.27,3.27,0,0,0-2.65-2A2.18,2.18,0,0,0,113.55,176.58Z"/><path class="cls-2" d="M162.55,203a19.83,19.83,0,0,1,4.84,1.11,15.44,15.44,0,0,0,10.5-.3c-3.65-1.23-3.36-3.3-2.79-5.95.69-3.18-4.44-1.69-4.46-4.69a6.21,6.21,0,0,1,.44-2.2c.76-1.92-.09-2.5-1.86-3.2-3-1.19-4.65.07-5.84,2.51s-1.93,4.78-3.22,7c-.68,1.16-1.73,2.87-3.54,2.09-1.52-.65-1.15-2.36-1-3.66a16.69,16.69,0,0,1,.87-3.51,19.52,19.52,0,0,0,.91-6.27c-.05-2-1.52-2.35-3-2.86-1.23-.43-2.54-.78-3.2.61-2.51,5.29-9.83,2.49-12,9.29,1,1.88,3.95,3.31,7.17,4.33,2.22.71,4.83,1.56,5.15,3.92s-2.74,2.23-4.23,3.3c-.24.17-.55.24-.81.4-1.2.73-2.52,1.57-1.93,3.19.67,1.84,2.34,1.7,3.86,1.21a12.37,12.37,0,0,0,2.85-1.4c2.07-1.31,3.38-1.18,4.59,1.32,1,2.16,1.36,6.69,4.9,5s.4-4.8-.77-7C158.29,204,159.57,202.9,162.55,203Z"/><path class="cls-2" d="M223.53,154.68c-.21-1.72-1.72-2-2.93-2-1.84,0-1.78,1.75-1.88,3-.14,1.71,1.26,1.72,2.46,1.76C223.06,157.53,223.11,156,223.53,154.68Z"/><path class="cls-2" d="M199.53,201.16c0-2.74-1.36-4.67-4.26-4.66a4.16,4.16,0,0,0-4.39,4.23c-.17,3,1.71,4.53,4.37,4.68S199.4,204,199.53,201.16Zm-4.27,2.36c-1.78.13-2.44-1-2.41-2.56a2.28,2.28,0,0,1,2.5-2.55c1.62.05,2.34,1.13,2.69,2.57A3,3,0,0,1,195.26,203.52Z"/><path class="cls-2" d="M171.29,176.73c1.4-2.36,6.2-3.07,8.3-6.22,0,0,.28.11.42.11,4.37-.16,5.12-1.26,3.8-6.31-1.28,2.59-2.9,3.51-5.55,4.35-2.86.9-5.63,3.92-8.51,5.9-1.79,1.24-3,3.48-5.89,3.6C166.91,180.11,168.82,180.92,171.29,176.73Z"/><path class="cls-2" d="M212.67,215.38c5.72-1.46,11.45-3,17.26-4,3.86-.71,5.91-2.19,5-5.61-1.34-14.48-2.65-28.22-3.86-42-.32-3.64-2.13-4.62-5.48-3.83-10.18,2.4-20.35,4.84-30.58,7-3.31.72-3.89,2.3-2.81,5.18q7.61,20.22,15.15,40.47C208.32,215.23,210,216.07,212.67,215.38Zm19-10.32a2,2,0,0,1-1.54,2.82c-5.73,1.43-11.48,2.74-16.61,4-1.89.06-3.08.15-3.38-1.57a2.05,2.05,0,0,1,1.81-2.62c5.6-1.32,11.21-2.6,16.81-3.9C230.07,203.44,231.22,203.54,231.68,205.06Zm-33.32-25.49c-4-8.95-4-8.92,5.22-11,6.32-1.45,12.67-2.8,18.94-4.44,3.79-1,5.85-.31,5.68,4a41.4,41.4,0,0,0,.38,5c.28,2.09-.88,2.95-2.75,3.37-7.8,1.76-15.59,3.52-23.36,5.4C200.21,182.41,199.24,181.56,198.36,179.57Z"/><path class="cls-2" d="M191.15,210.34c.23,1.74.3,4.52,2.5,4.62,1.47.07,3.15-2.1,3.42-3.78.33-2.11-1.92-1.71-3.11-2.14C192.73,209.14,190.9,208.5,191.15,210.34Z"/><path class="cls-2" d="M202.52,161c1.35.22,1.33-.75,1.38-1.81.36-1.25-.69-1.16-1.55-1.3-1.69-.27-1.51,1.11-1.63,2C200.53,161.27,201.77,160.83,202.52,161Z"/><path class="cls-2" d="M265.44,194c1.73,2.62,3.06,1.78,4.22-.53,1.42-2.84,2.88-5.66,4.3-8.51,4.62-9.2,4.62-9.2-5.67-8.9l-10,.78c-2.44.19-3.41,1.16-1.88,3.49C259.45,184.87,262.43,189.44,265.44,194Z"/><path class="cls-2" d="M206,1.21c-1.92,1.74.5,2.13.95,2.93,2.25,4,3.27-.95,5.09-.75C208.26-.66,208-.67,206,1.21Z"/><path class="cls-2" d="M220.53,36.34c-.19-2.75-1.57-4.3-4.32-4.28s-4.33,1.5-4.27,4.2,1.57,4.55,4.57,4.47C219.34,40.66,220.45,38.9,220.53,36.34Zm-4,2.69c-1.75-.37-2.76-1.05-2.73-2.71a2.36,2.36,0,0,1,2.47-2.56A2.55,2.55,0,0,1,219,36.63C218.88,38.19,217.65,38.78,216.53,39Z"/></g></g></g></svg>