<svg xmlns="http://www.w3.org/2000/svg" viewBox="0 0 350.5 130.94"><defs><style>.cls-1{fill:#f89d27;}.cls-2{fill:#f69f2f;}.cls-3{fill:#f99d24;}.cls-4{fill:#f69f2e;}.cls-5{fill:#f79e29;}.cls-6{fill:#e0a85f;}.cls-7{fill:#e0ab63;}.cls-8{fill:#dfb070;}.cls-9{fill:#ecaa56;}.cls-10{fill:#e9ac5a;}.cls-11{fill:#f4ddaf;}.cls-12{fill:#fdeab5;}.cls-13{fill:#1f1645;}.cls-14{fill:#201644;}.cls-15{fill:#201544;}.cls-16{fill:#201543;}.cls-17{fill:#211644;}.cls-18{fill:#201643;}.cls-19{fill:#3f1404;}.cls-20{fill:#d89a62;}.cls-21{fill:#351928;}.cls-22{fill:#371823;}.cls-23{fill:#451f21;}.cls-24{fill:#45201a;}.cls-25{fill:#794e3e;}.cls-26{fill:#ae6c34;}.cls-27{fill:#e2a068;}.cls-28{fill:#fcfdfa;}.cls-29{fill:#f79d26;}.cls-30{fill:#d49861;}.cls-31{fill:#3e1404;}.cls-32{fill:#f69c2b;}</style></defs><g id="Layer_2" data-name="Layer 2"><g id="Layer_1-2" data-name="Layer 1"><g id="Layer_2-2" data-name="Layer 2"><g id="Layer_1-2-2" data-name="Layer 1-2"><path class="cls-1" d="M198.1,121.51l-6-1.64c1.17,2.76-3.56,2.69-9,2.67q-35.11-.11-70.23,0c-2.68,0-5.35.11-8,.32-11,.84-20.63-.6-26.33-4.1a4.16,4.16,0,0,0-2.35.47c-9.76,4.47-28.29,5.81-42.29,3-7-1.4-11.19-3.58-11.44-6.31-.53-5.74-.31-11.46-.45-17.22,0-1,1.11-1.44,4.06-1.42,4.59,0,9.21-.08,13.79,0,4.92.12,5.72-.52,4.32-2q-6.6-7.07-12.84-14.16c-6.4-7.23-10.13-14.57-9.48-22.23.62-7.3,14.64-10,32.69-9.55,10.46.24,18.84,1.76,23.81,5.7,5.12-4.44,15-5.73,26.43-5.74,10.94,0,21.43.6,27.42,4.31a9.91,9.91,0,0,0,1.46-.3c.79-3,.79-3,9.78-3h41.38c2.37,0,5.09-.31,7,.51,1.42.82,1,2,3.72,2.56,2.24.93.57,2,.55,2.92-.15,7.17.39,14.34-.28,21.52-.1,1.08,1.14,1.62,4.26,1.67,1.88,0,3.78,0,5.64,0,5.13.16,7.08-.61,7-2.37-.16-5.88-.07-11.76-.06-17.65a4,4,0,0,1,.31-2.15c.58-1,2.5-1.44,5.39-1.42,2.6,0,4.35.44,4.95,1.35a3.2,3.2,0,0,1,.37,1.92c0,5.67-.09,11.34,0,17,.09,3.77-5.22,6.44-14.17,8.29s-14.24,4.11-13.75,8.11c.93,7.45.3,14.92.25,22.38,0,1.88-.09,3.72,3.7,5.31C200.8,120.75,202.49,121.75,198.1,121.51Z"/><path class="cls-2" d="M198.1,121.51c3.07-.16,1.4-.61.4-.93-3.54-1.13-4.19-2.57-4.18-4.12,0-8.19.65-16.38-.26-24.55-.45-4,5.79-6.07,14.17-7.84,8.67-1.81,13.82-4.22,13.75-7.8-.12-5.82,0-11.63-.12-17.45,0-.91,1.93-2.36-3.51-2.42-5.9,0-3.81,1.54-3.84,2.5-.16,6.25-.25,12.49,0,18.74.08,1.87-1.63,2.52-7.18,2.49-13.06-.06-13,0-13-4.47V57.78c0-1.13-.43-2.27.89-3.4,1-.85-.86-.73-2.38-.61-1.21-1.53,3.11-1.8,5.1-2.56a101.84,101.84,0,0,1,38.57-.43c3.15.53,6.08,1.26,6.86,2.6-1.31.16-1.38.49-.83.85,3.19,2.06,2.68,4.31,2.68,6.53v47.79c0,3.29-.37,6.59.64,9.89.73,2.39-2.08,3.22-9.14,3.07-2.63-.06-5.27,0-7.91,0,21.59-.33,43.17-.42,64.74.08-3.2-.14-6.42-.16-9.62-.06-5.8.13-8-.5-8.59-2.5a9.12,9.12,0,0,1-.17-2.8V62.41c0-.93.29-1.86-.49-3-1,1-.58,1.9-.58,2.75q0,28-.07,56c0,1,2,2.92-5,2.37-1.61-.84-1.19-1.81-1.2-2.72V59.88c0-.86-.22-1.73.81-2.55,6-1.81,11-1.25,12.49,1.35a6.31,6.31,0,0,1,.48,3.44V117c0,2.61,1.39,3,8,2.87,6-.13,5.55-1.57,5.55-2.93,0-13.27,0-26.54,0-39.81V59.47a5.8,5.8,0,0,0-.54-3c-2-3.53-8.87-4.78-18.48-3.36-2.43.35-4.54,1.1-7.55.8A29.2,29.2,0,0,0,253,53.49c-.66,1-.37,2-.38,3v60.69c0,1.13.73,2.31-1.33,3.35-3.52.3-3-.73-3.34-1.31-.61-.91-.32-1.85-.32-2.79V58.93c0-1.52,1-3.15-3.89-4.22-1-.22-1.52-.87-.31-1.36,3.77.55,2.67-.6,2.51-1-.72-1.87,2.2-2.08,6.64-2.09,9.35,0,18.73.21,28.07-.33,8.71-.5,15.49.65,20,3.27a6.22,6.22,0,0,0,1.26-.28c2-3.68,2-3.69,12.76-3.74,3.12,0,6.25,0,9.37,0,7.22-.08,8.95.37,9.62,2.77,1,3.62,1.89,7.23,2.83,10.9,1.22,1.86-.5,3.78,1,5.64a3.41,3.41,0,0,0,.07.84c1.53,1.09-.49,2-1.09,3-.73.6-1,1.31-2.25,1.74-7.33,2.6-6.49,5.82-6.75,9-.83,10.2,1.94,20.29,7,30.33,1.25,2.48,1.59,5-4.3,7a39.93,39.93,0,0,1-23,.47c-1.12-.31-2.2-.64-4.12-1.21,1,2.86-3.88,2.7-9.15,2.69-22.13-.07-44.27,0-66.4,0q-5.91,0-11.78.45A49.72,49.72,0,0,1,198.1,121.51Z"/><path class="cls-3" d="M344.48,68.24a10.84,10.84,0,0,0-1,1.46,2,2,0,0,1-2,.46h0c-1.84-.46-.84-1.11-.37-1.69,5-15.08-7.55-28.29-37.9-39.28-24-8.7-53.92-13.58-89-14.62C176.76,13.46,143.45,17,114.22,25,103,28.05,92.61,31.47,85,35.73h0a4,4,0,0,1-2.88.55c-1.5-.2-1.5-.61-.84-1,6.81-5.95,17.64-11,31-15.34,29-9.44,63.84-13.81,103.72-13.42,10.31.08,20.6.65,30.76,1.73,5.33.6,6.89.36,6.34-1.7-.87-3.22,3-5.1,11.24-6.18a40.34,40.34,0,0,1,19.34,2.14c.37.58-.74.69-2,.76h-.66l-.35,0a4.62,4.62,0,0,1-.65-.07,27.33,27.33,0,0,0-10-.07c-3,.8-5.3,1.75-6.07,3.07-1.28,2.23.88,3.5,8.13,4.73l.57.11a4.94,4.94,0,0,1,.55.15c1.37.42,2.14,1.08,4,1.32,39,7.52,62.43,19,70.91,33.92C352.35,53.68,350.8,61,344.48,68.24Z"/><path class="cls-4" d="M186.73,127.17h92.8c2.8,0,6.82-.51,7.17,1.21s-2.76,2.26-7,2.41c-1.87.07-3.76.08-5.63.08h-180c-2.61,0-5.91.46-7.07-1.06-1.5-2-.33-2.67,5.61-2.67Z"/><path class="cls-5" d="M120.18,31.78A262.34,262.34,0,0,1,212.5,20.56c14.29.74,31.85,3.51,40.93,6.74-8.61-1.14-16.07-2.25-24-2.74A329.26,329.26,0,0,0,172.54,26,460,460,0,0,0,103,39.29c-4.1-.32-1.49-.94-.56-1.49h-.06C108.27,35.79,114,33.71,120.18,31.78Z"/><path class="cls-6" d="M55.72,35.16C49.55,33.84,42.41,35,36.21,34c3.86-.78,19.8-.63,22.28.3,3.58,1.31.06,2-2.79,2.31-6.44.83-13.06,1.48-19.62,2.19-1.53.16-3.28.15-4.32.86,4.8,1.13,10.49,1.21,15.82,1.69,1.61.14,3.33.13,4.92.29,2.51.24,6,.07,6.82,1.2S56.57,44,54.73,44.54c-3.52,1-2.72,1.77.28,2.62.77.22,1.71.52.72.88A5.43,5.43,0,0,1,52.9,48c-4.26-.83-5.23-2.51-1.67-3.74,3.2-1.1,3-1.51-1.59-1.77-5-.25-9.86-.66-14.63-1.12-3-.29-7.52-.36-7.47-1.81,0-1.25,4.16-1.39,7.06-1.71Q42.31,37,50.13,36.2A27.24,27.24,0,0,0,55.72,35.16Z"/><path class="cls-7" d="M4,40.8c6.8,1.32,14.55,1.21,21.59,2,2.24.24,5.63,0,6.19,1.12s-2.46,1.2-4.28,1.62c-5.4,1.27-1.36,2.27,1.34,3.41-3.65.41-5.44-.17-6.76-1-2.81-1.77,1.58-2.56,4.61-3.66-2.94-1.08-7-.71-10.36-1.09-2.15-.25-4.57-.25-6.66-.54-3.62-.49-9.91-.09-9.67-2,.21-1.7,6.15-1.58,9.89-2,5.76-.72,12.12-.91,17.89-2.31-6.21-1.27-13-.51-19.17-1.2,4.72-1,18.36-.81,22.14.23,3.4.93,1.37,1.56-1.34,2.08C23.53,38.5,16.8,38.81,10.56,39.6,8.35,39.9,5.59,39.85,4,40.8Z"/><path class="cls-8" d="M280,11c-1.47.34-4.43.41-2.69,1.47a9.75,9.75,0,0,1-5.16-1.21,3,3,0,0,1,.6-.25c1.12-.28,2.27-.51,3.44-.7,5.95-1.32,7.91-3.25,5.72-5.57-.46-.49-1.42-1-1.18-1.51a.13.13,0,0,1,.07-.13,7.87,7.87,0,0,0,2.92-.57C290.07,5.23,288.36,9.05,280,11Z"/><path class="cls-9" d="M81.26,35.25c.32,1,1.92.83,3.73.48,0,.14.07.31-.11.42-3.24,1.91-6.51,3.82-10.25,5.66C76.55,39.59,77.38,37.25,81.26,35.25Z"/><path class="cls-10" d="M102.49,37.8c-.08.51-1.71,1.08.56,1.49a99.92,99.92,0,0,1-13.66,3.89A46.21,46.21,0,0,1,102.49,37.8Z"/><path class="cls-11" d="M341,68.47c1.71.2-2.27,1.73,2.42,1.21,0,1.21-1.7,2.24-2.91,3.07-2.7.66-1-1.81-4.21-.38,0-1-.47-2.08,1.09-3C339.39,69.43,339.82,68.76,341,68.47Z"/><path class="cls-10" d="M120.18,31.78a113.51,113.51,0,0,1-17.75,6A80.89,80.89,0,0,1,120.18,31.78Z"/><path class="cls-12" d="M198,51.23c-1,1-4.58,1.43-5.09,2.56-2.07-.91-1.11-1.95-1.06-2.95C193.39,51.84,195.71,51.47,198,51.23Z"/><path class="cls-11" d="M337.36,68.52c-1.91-1.85-1-3.76-1-5.65C338.61,64.72,337.34,66.63,337.36,68.52Z"/><path class="cls-13" d="M185.81,86.51c0,10.55-.12,21.11.1,31.66,0,1.81-.88,2.55-6.76,2.46-11.42-.15-11.42,0-11.42-4,0-8.11,0-16.22.05-24.34,0-1.32-.31-2.16-5.25-2.14s-4.62,1-4.62,2.1c0,8.76-.11,17.49.15,26.27,0,1.73-1.44,2.18-6.33,2.15-12.21-.08-12.2,0-12.2-4.22,0-20.46.1-40.92-.16-61.38,0-2.17,1.48-2.9,7.94-2.81,12.66.19,10.54-.37,10.59,3.7.11,8.76,0,17.49,0,26.27,0,1.17-.59,2.26,4.82,2.24,5.19,0,5-1,5-2.23-.06-9.26.08-18.52-.15-27.78,0-1.73,1.57-2.22,6.44-2.19,11.72.05,11.75,0,11.76,3.92Q185.83,71.33,185.81,86.51Z"/><path class="cls-14" d="M111.13,118.82c-4.35,1.84-9,2.55-15,2.21-6.86-.4-12-2.09-12.12-4.5-.32-8.75-.28-17.49-.29-26.26,0-1.66,3.12-2.79,6.56-3.75,3.72-1,7.87-1.88,11.63-2.9,5.81-1.58,9.64-3.52,9.59-6.22-.1-6.39,0-12.77,0-19.16,0-.84.47-1.77-2.24-2.31a17.86,17.86,0,0,0-6.56-.08c-2.72.44-2.43,1.25-2.43,2,0,6.38-.29,12.77.1,19.16.12,1.93-1.46,2.64-7,2.34a33.51,33.51,0,0,0-3.75,0c-5.22.29-6.2-.61-6.14-2.19.23-5.89,0-11.77.11-17.66.06-6.63,9.08-9.18,28.29-8.12,12,.66,17,2.65,17,6.86,0,20.23,0,40.47.18,60.71,0,1.21-.73,1.76-4.45,1.62-2.28-.08-4.6,0-6.9,0C114.39,120.66,111.43,120.59,111.13,118.82Z"/><path class="cls-15" d="M27.53,107.43c0-2.23.12-4.46-.05-6.68-.1-1.13.65-1.64,4.43-1.69C46,98.88,46,98.82,46,103.64c0,3.09,0,6.18.07,9.27,0,1.32-.8,3.16,4.75,3.17,5.93,0,4.81-1.9,5.11-3.29,2-9.46-5.72-18.3-14.29-27.11-8.29-8.52-15.31-17.13-14.23-26.29.81-6.84,19.31-10.53,36.91-7.11,5.88,1.14,9.27,3,9.45,5.26.36,4.52.18,9.05.33,13.57,0,1-1.35,1.39-4.19,1.36-3.13,0-6.28-.06-9.4,0-3.65.09-4.68-.49-4.63-1.66.13-3.62.06-7.18,0-10.77a4.4,4.4,0,0,0-.22-1.93c-.47-1-1.86-1.81-5.33-1.68-3,.1-4.25.84-4.27,1.81-.08,3.94-.39,7.87,2,11.78,4.21,7,11.45,13.64,17.63,20.41,6.75,7.32,9.64,15.7,8.28,24-.68,4.73-8.1,7-22.37,7-15.29,0-23.1-2.17-24-7-.43-2.36-.07-4.74-.07-7.1Z"/><path class="cls-16" d="M223.8,118.82c-5.59,2.34-12,2.82-19.14,1.81s-8.89-3.21-8.89-5.65c0-7.89.09-15.79-.1-23.68-.06-2.37,3.66-3.9,8.51-5.23,3.25-.89,6.9-1.61,10.2-2.49,5.9-1.57,9.27-3.49,9.1-6.24-.4-6.17-.08-12.35-.18-18.52,0-1.34,1.56-3.14-5.09-3.18s-5.38,1.72-5.39,3.1c0,6.17-.19,12.34.09,18.52.08,1.7-1.39,2.21-6.33,2.17-10.82-.09-10.83,0-10.84-3.82V58.17c.06-4.12,4.91-6,16.7-6.7a105.14,105.14,0,0,1,14.31.19c9.58.78,14,2.5,14.1,5.89.18,9,.12,17.94.13,26.91,0,11.42-.08,22.83.13,34.24,0,1.56-1.25,2.1-5.62,1.92q-3.13-.09-6.27,0C225.84,120.66,223.39,120.41,223.8,118.82Z"/><path class="cls-17" d="M268.43,53.27c1.54,1,2.69.12,3.78-.13a44.87,44.87,0,0,1,17.72-.79c6.26,1,6.83,3.17,6.84,5.18.11,20.38,0,40.77.16,61.15,0,1.56-1.61,1.93-5.85,1.93-11.68,0-11.67.06-11.67-3.94V61.11c0-.64.06-1.29,0-1.93-.32-2.47-2.7-2.93-9.67-1.85-1.32.73-.66,1.55-.66,2.31q-.06,29,0,57.93c0,2.76-1.51,3.29-8.81,3.23-6.53,0-8.08-.54-8.08-2.83q-.18-31.54-.08-63.08c0-2.46,4.11-3.22,12.65-2.41A15.33,15.33,0,0,1,268.43,53.27Z"/><path class="cls-1" d="M243.36,53.37c.84.53-.46,2.12,3.85.92,1.71-.48,2.15-.08,2.27.4a6.62,6.62,0,0,1,.08,1.72V118.2c0,.81-1,1.74,1.31,2.41a9.94,9.94,0,0,1,2-.32c5.42.35,11-.11,16.38.29,2.14,0,3.27-.12,3.26-1.09-.22-19.53-.28-39.06-.38-58.59a3.55,3.55,0,0,1,0-1.3c.27-.69-1.1-1.81,2.58-1.81s2.35,1.17,2.36,1.87q.09,28.95.05,58c0,3.59,0,3.57,10.07,3.43a51.56,51.56,0,0,1,6.81.25c2,.23,4.27-.66,6.34.1-1.1.76-3,.49-4.49.49H225.56c-1,0-2.11,0-3.13,0s-2.21-.17-2.13-.6,1.19-.61,2.29-.47c4.7.55,9.57.09,14.31.32,5.45.27,8.64-.7,7.32-2.49s-1-3.28-1-4.91q-.08-27.27,0-54.52c0-2.38-.54-4.68-4.32-6.82l4.37,1Z"/><path class="cls-18" d="M325,107.25c1.84,3.08,4.18,6.14,3.76,9.32-.28,2.09-5.57,4-10.93,4-5.55,0-10.69-1.88-11-4-.45-3.11,2-6.11,3.29-9.16a53.27,53.27,0,0,0,3.36-30.68,15.64,15.64,0,0,0-4.42-3c-3.14-1.62-5.63-3.42-2.09-5.42a19.4,19.4,0,0,0,8.1-.08,25.78,25.78,0,0,0,2.78,0,24.53,24.53,0,0,1,2.38-1c4-.41,2,.89,3.12,1.3,2.17.38,3.15,0,3.34-.69a11,11,0,0,0,.07-1.72c0-.38.35-.76,1.58-.8,1.64-.06,2.13.35,2.09.82-.16,1.93.51,3.87-.4,5.79h0l-.42.17c-9.28,3.7-9.54,8.11-9.37,12.7a69.72,69.72,0,0,0,3.38,20.34C323.9,105.89,323.69,106.64,325,107.25Z"/><path class="cls-19" d="M269.28,120.58h-17c-1.33-.48-.78-1.08-.78-1.64V54.05c0-.5-.24-1,.48-1.48,4.63-.66,9.44-.22,14.17-.27,1.66,0,2.71.34,2.3,1-3.5-.79-7.56-.4-11.33-.6-2.32-.13-3.47.37-3.66,1.12a6.37,6.37,0,0,0-.06,1.51v62c0,2.88,2.79,3.61,11.18,3,2.6-.19,3.35-.8,3.62-1.52a6.24,6.24,0,0,0,.16-2.15q0-28.4.07-56.8c0-.8-1.09-1.74,1.29-2.41q-.08,29.58-.17,59.16C269.52,117.86,269.37,119.23,269.28,120.58Z"/><path class="cls-20" d="M252,52.54q.06,32.63.13,65.23c0,.93.12,1.86.19,2.8l-1.36.05q-.06-33.24-.11-66.47C250.81,53.59,250.48,53,252,52.54Z"/><path class="cls-21" d="M308.5,68.5c-3.08,1-2.63,3.23,1.45,5,2.32,1,4.07,2,3.58,3.25C302.74,73,303.92,68.26,305,63.61c.78-3.42,1.76-6.84,2.71-10.25A2.51,2.51,0,0,1,309,52.21a25.06,25.06,0,0,1-.25,10.59C309.36,64.7,309.68,66.6,308.5,68.5Z"/><path class="cls-22" d="M325,107.25c-1.51-.3-2.52-1.15-2.53-2.1-.53-5.07-3.73-10.05-2.76-15.17a27.65,27.65,0,0,0,0-10.1c-.62-3.35,4.63-5.61,10.35-7.88-.33.4-.31.92-1.05,1.2-7.45,2.85-7.62,6.28-7.74,9.86C321,91.15,322.74,99.2,325,107.25Z"/><path class="cls-22" d="M330.08,72c-.72-2.06.63-4.16-1.07-6.55-2.3,1-1.18,1.88-1.64,2.64-.78,1.25-2.2,1.73-4.91.43a1.21,1.21,0,0,1,1.1-.06c4.49,0,2.72-1.21,2.75-1.89.19-4.76.1-9.53.71-14.3C328.53,58.8,333.55,65.3,330.08,72Z"/><path class="cls-23" d="M308.5,68.5c.07-1.9.14-3.81.22-5.71,2.29,1.81-.51,3.78,2.5,5.57,2.68-5.2,2.92-10.47,3.82-15.72,2.7.07,2.63.82,2.67,1.42a107.54,107.54,0,0,1,0,13.07c-.07.62-.76,1.15-1.73,1.33C313.48,68.33,311.07,70.2,308.5,68.5Z"/><path class="cls-24" d="M323.56,68.43a10.14,10.14,0,0,1-1.1.06c-.31-.48.47-1.35-2.57-.86-1.07-.24-1.75-.87-1.71-1.55a91.36,91.36,0,0,1,0-9.65c0-.67-.17-1.5,2.71-1.67Z"/><path class="cls-25" d="M320.91,54.76c-2.4,2.19-.7,4.47-1,6.71a43.67,43.67,0,0,0,0,6.16c-.16.46.38,1-1.38,1.25a2.21,2.21,0,0,1-1-.74c-.35-4.72-.08-9.44-.14-14.16,0-.64-.16-1.3,1.29-1.81.84-.31,1.89-.43,2.08.1A8.68,8.68,0,0,1,320.91,54.76Z"/><path class="cls-26" d="M318.45,68.53a2.17,2.17,0,0,1,.07.35,4.51,4.51,0,0,1-2.54-.42V54.28c0-.55.35-1.16-.92-1.64-.17-.37-.78-.84.48-1a2.49,2.49,0,0,1,2,.55c1.08,4.61.15,9.23.49,13.87C318,66.84,317.5,67.71,318.45,68.53Z"/><path class="cls-27" d="M318.45,68.53c-1.57-.43-1.09-1-1.09-1.59,0-4.93.08-9.86.13-14.79a7.62,7.62,0,0,1,1.17,0Z"/><path class="cls-1" d="M224.08,50.43c3.73-.66,6.47,0,9.3.53.09,0-.26.47-.45.48C229.59,51.52,227.46,50.45,224.08,50.43Z"/><path class="cls-28" d="M281.09,3.21l-.28-.15h0c-3.38-1.05-7.21-.83-11.08-.47-5.87,1.24-8.53,3-7.57,5.38.8,2,4.52,2.93,10,3.24l1.15-.1C284.24,10,287.63,6.67,281.09,3.21Zm-4.89,7.05c-1.19.18-2.36.41-3.49.69l-.57-.12c-7.25-1.21-9.41-2.5-8.13-4.72.77-1.32,3.06-2.28,6.07-3.07a27.11,27.11,0,0,1,10,.06c.21,0,.43.06.65.08-.24.55.72,1,1.18,1.51C284.11,7,282.15,8.94,276.2,10.26Z"/><path class="cls-8" d="M280.79,3c-3.5-.69-7.32-.52-11.09-.47C273.69,1.92,277.6,1.48,280.79,3Z"/><path class="cls-29" d="M102.34,116c-2.5-.48-2.13-1.32-2.13-2.1v-23c0-1.74,1.73-3.06,6.41-3.84,4-.57,4.81.27,4.87,1.35.12,2.51,0,5,0,7.53,0,5.67.09,11.33,0,17C111.38,115.49,109.21,116.17,102.34,116Z"/><path class="cls-30" d="M102.34,116c6,.22,7.72-1.14,7.75-2.76.16-8.3.06-16.6.14-24.89,0-.93-1.11-1.31-3.66-1.3,1.48-.42,2.48-1.26,5.11-.73.94,3.85.3,7.69.39,11.54.13,5.21.07,10.41,0,15.62,0,.67.86,1.43-.9,2A14.65,14.65,0,0,1,102.34,116Z"/><path class="cls-31" d="M111.16,115.46l.36-27c0-.71.1-1.42.16-2.14,1.64.43,1.1,1,1.11,1.6v25.64C112.75,114.19,113.47,115,111.16,115.46Z"/><path class="cls-32" d="M223.35,100.86c0,4.37-.08,8.74,0,13.11,0,1.45-1.2,2.42-5.88,2.38-4.37,0-4.71-1.09-4.71-2.26V90.44c0-.79-.08-1.6,1.64-2.24,2.25-.82,4.79-2,7.92-1.72,2.23.21.92,1.66.94,2.55C223.42,93,223.36,96.91,223.35,100.86Z"/></g></g></g></g></svg>