<svg xmlns="http://www.w3.org/2000/svg" viewBox="0 0 566.93 566.93"><defs><style>.cls-1{opacity:0.2;}.cls-2{fill:#ceab97;}.cls-3{fill:#6a1b9a;}.cls-4{fill:#c500d4;}.cls-5{fill:#e2f1fc;}.cls-6{fill:#434242;}.cls-7{fill:#9c7761;}.cls-8{fill:#78a7ce;}.cls-9{fill:#badefa;}.cls-10{fill:#543e36;}</style></defs><g id="Layer_2" data-name="Layer 2"><g id="Layer_1-2" data-name="Layer 1"><rect class="cls-1" width="566.93" height="566.93"/><path class="cls-2" d="M394.53,270.8c-2.64,8-3.34,16.5-6.26,24.5-7.82,21.41-20.54,39.08-38.9,52.66-1.36,1-3,1.81-3.54,3.66-.43.45-.85.91-1.25,1.39-35,24.21-87.27,24.21-122.31,0-.41-.48-.82-.95-1.25-1.4-1.63-3.31-5.08-4.59-7.7-6.78q-32.88-27.45-39.69-69.69c-.25-1.53-.26-3.08-1.31-4.35a5.6,5.6,0,0,1-1.46-3.08c-.26-10.31-1.25-20.64.61-30.91,1.83-2.33,3.37-.49,4.87.45,1.91,1.2,3.38,3.08,5.95,3.92,1.59-1.84,1.08-4,1.09-6,.06-11.48,0-23,.05-34.45,0-2.83-.39-5.79,1.58-8.28,3.59-2.76,8-2.64,12.11-3.24a616.64,616.64,0,0,1,107.59-5.88,604.73,604.73,0,0,1,71.17,6.82,11,11,0,0,1,5.85,2.2c2.08,2.42,1.68,5.39,1.69,8.22.07,12.05,0,24.11.07,36.17,0,1.42-.65,3.35,1.18,4,1.38.52,2.31-1,3.45-1.65,2.24-1.21,3.69-4.79,7.17-2.49C396.62,248.09,397.88,259.5,394.53,270.8Z"/><path class="cls-3" d="M362.11,399c21.83,7.45,42.21,17.63,60.37,32q52.42,41.54,57.62,108.23c.39,4.94,2.88,11.3,0,14.54-3.21,3.56-9.82,1.19-14.92,1.2q-127.71.12-255.43.05a4,4,0,0,1-1.37-1.56c-.84-2.22-.68-4.55-.68-6.85q0-46.8,0-93.61c0-9.72.79-10.49,10.56-10.51,18.49,0,37-.45,55.46.09,33.95,1,60.86-12.34,81.87-38.57C357.27,401.92,358.57,398.94,362.11,399Z"/><path class="cls-4" d="M382.08,193.24c-14.11-3.05-28.48-4.25-42.8-5.7a531.33,531.33,0,0,0-75.47-2.39c-26.49,1.07-52.92,3.19-79,8.09-7.91,2.84-15.8,5.83-24.42,3.09,0-4.58-.63-9.18.34-13.73a117.73,117.73,0,0,1,1.05-18.19c.33-2.39.76-4.95-.93-7.15,1.43-18.1,5.15-35.84,8.61-53.62,1.17-6,5.09-9.3,10-11.85,11.56-6,23.92-9.68,36.51-12.63,30.87-7.25,62.3-8.15,93.7-6.53,22.86,1.18,45.69,4.29,67.11,13.51,2.12.91,4.2,1.94,6.33,2.83,9.12,3.79,14.06,10.19,15.62,20.32,2.46,16,6,31.8,7.32,48-2.68,7.93.52,15.75.61,23.63.06,5.5.73,11,.27,16.51A56.82,56.82,0,0,1,382.08,193.24Z"/><path class="cls-3" d="M406.05,157.26c-4.51-4.06-2.38-9.78-3.16-14.61-2.22-13.63-5-27.14-7.43-40.72-.61-3.45-3.1-5.58-6-7.41-13.55-8.61-28.69-12.8-44.22-15.84a243,243,0,0,0-39.38-4.59c-24.22-.72-48.49-.7-72.47,3.41-19.9,3.4-39.62,7.6-57.27,18.24a10,10,0,0,0-4.95,7.32c-3.06,16.78-7.07,33.4-8.15,50.49-.1,1.66-.59,3-2.23,3.71-25.25-20.59-32.63-54.39-18.19-83.33C156.81,45.47,188.11,31.26,219.86,39c3.39.83,5.53.19,8-2.46,30.59-33.3,80.52-32.88,110.51,1.06,2.85,3.23,5.21,2.25,8.08,1.51,34.64-8.86,68.57,8.84,81,42.26C437.45,108.48,429,138.55,406.05,157.26Z"/><path class="cls-3" d="M183.67,555.13c-30.63,0-61.26-.14-91.89.06-4.93,0-6-1.38-5.81-6.23,1.19-28,7.51-54.48,22.53-78.41,20.11-32,49.18-53,83.81-66.95,4.1-1.65,8.29-3.07,12.44-4.59,2-.33,3.35.83,4.41,2.19,3.56,4.56,7.43,8.82,11.24,13.16,3.1,3.52,2.27,5.41-2.33,6-4.21.51-8.46.17-12.69.2a38,38,0,0,0-9.74,1c-5.9,1.59-8.36,4.53-8.74,10.61-.19,2.88-.08,5.77-.08,8.65q0,51.67,0,103.34c0,3.06.33,6.16-.7,9.16A3.18,3.18,0,0,1,183.67,555.13Z"/><path class="cls-5" d="M184.91,554.16q0-60.3,0-120.6c0-9.69,4.62-14.2,14.66-14.48,7.24-.2,14.48,0,22.74,0l-17.51-20c3.72-4.61,7.06-9.63,11.29-13.73s5.21-9,5-14.62c-.26-6.34,0-12.69,0-19a1.8,1.8,0,0,0,.92.09c2.06,2.23,2,5.08,1.64,7.67-3.75,24.44,11.46,37.84,29.23,49.12,27.42,17.4,58.89,8.42,80.35-15.73,7.3-8.21,11.58-16.89,10.2-28.2-.51-4.18-1.4-8.88,1.56-12.86a1.76,1.76,0,0,0,.91-.09c0,5.16.83,10.46-.09,15.45-2.24,12.14,5.29,19.48,12.19,27.29,1.38,1.57,2.78,3.12,4.18,4.68-7.57,8.69-14.73,17.7-23.91,24.91C321.54,437,302.83,444,281.64,444c-21.77.05-43.55.28-65.32-.17-6.17-.12-7.11,1.9-7.07,7.43.22,34.29.07,68.59,0,102.89A102.49,102.49,0,0,1,184.91,554.16Z"/><path class="cls-6" d="M382.08,193.24a140.35,140.35,0,0,1,24.85,4.16l-.12,27.6c-3.12,4.78-6.76,9-12.31,11l-12.42,10Z"/><path class="cls-6" d="M160.81,196.64l24-3.4v52.82l-12.43-9.89a25.89,25.89,0,0,1-12.49-10.88l.05-1.21c.72-7.26.09-14.55.34-21.82C160.3,200.38,159.7,198.42,160.81,196.64Z"/><path class="cls-7" d="M394.5,236q6.15-5.52,12.31-11c9.58,6.12,13.77,15,11.79,26-1.72,9.62-7.85,15.94-17.25,19a22.85,22.85,0,0,1-6.82.78Z"/><path class="cls-7" d="M159.85,225.29l12.49,10.88q0,17.31,0,34.63c-11.75-.41-20.47-6.93-23.61-17.66S149.63,232.25,159.85,225.29Z"/><path class="cls-8" d="M160.81,196.64c-1.07,9.13.67,18.34-.91,27.45-.3-13.85-1.27-27.7.79-41.49Z"/><path class="cls-9" d="M184.91,554.16h24.38a1.57,1.57,0,0,1,.42.91l-26,.06Z"/><path class="cls-7" d="M344.92,351.71c0,6-.28,12,.2,17.92a23.71,23.71,0,0,1-5.53,17.52c-15.57,19.69-34.18,33.44-60.78,31.68-19.08-1.26-33.43-11.54-46.08-24.92-7.71-8.15-12.91-17-11-28.91.7-4.33.18-8.86.22-13.29,11.92,6.64,24,12.7,37.63,15.37,28.12,5.54,54.77,2.1,79.7-12.53C341.08,353.49,343,352.65,344.92,351.71Z"/><path class="cls-10" d="M222,246.62a12.07,12.07,0,0,1,12.26-12.44,12.2,12.2,0,0,1-.09,24.39A12,12,0,0,1,222,246.62Z"/><path class="cls-10" d="M344.87,246.17a12,12,0,0,1-11.73,12.33,12.15,12.15,0,1,1-.42-24.3A12,12,0,0,1,344.87,246.17Z"/><path class="cls-5" d="M240.47,481.11a18.43,18.43,0,0,1,18.31,18.39A19,19,0,0,1,240.3,518c-10.19.12-18.53-8.47-18.38-18.92A17.94,17.94,0,0,1,240.47,481.11Z"/><path class="cls-5" d="M326.84,481.1a18,18,0,0,1,18.09,18.41A18.46,18.46,0,0,1,326.68,518c-10.12,0-18.85-8.9-18.6-18.93A18.44,18.44,0,0,1,326.84,481.1Z"/></g></g></svg>