<svg xmlns="http://www.w3.org/2000/svg" viewBox="0 0 566.93 566.93"><defs><style>.cls-1{fill:#fff;}.cls-2{fill:#386894;}.cls-3{fill:#273b79;}.cls-4{fill:#f5f5f5;}.cls-5{fill:#fbfbfb;}.cls-6{fill:#e0e5eb;}.cls-7{fill:#dfe2e4;}.cls-8{fill:#364e86;}.cls-9{fill:#5e85a9;}.cls-10{fill:#9f9f9f;}.cls-11{fill:#eee;}.cls-12{fill:#e1e1e1;}.cls-13{fill:#feecb4;}.cls-14{fill:#fbcf87;}.cls-15{fill:#3a3a3a;}.cls-16{fill:#a4a9ad;}.cls-17{fill:#a5a8ab;}.cls-18{fill:#d6dee6;}.cls-19{fill:#dfe5ea;}.cls-20{fill:#e7ce88;}.cls-21{fill:#dcaa62;}.cls-22{fill:#333;}.cls-23{fill:#a0a3ac;}.cls-24{fill:#3b6996;}.cls-25{fill:#dde0e3;}.cls-26{fill:#545454;}.cls-27{fill:#535353;}</style></defs><g id="Layer_2" data-name="Layer 2"><g id="Layer_1-2" data-name="Layer 1"><rect class="cls-1" width="566.93" height="566.93"/><path class="cls-2" d="M528.42,264.69v8.6c-1,1.45-.12,3.15-.63,4.66-3.11,1.73-4.76-.77-6.35-2.51-7.49-8.21-15.08-16.35-22.52-24.61-8.39-9.33-16.9-18.55-25.33-27.85-15.78-17.42-31.75-34.68-47.48-52.15-7.33-8.14-14.89-16.09-22.18-24.28-7-7.82-14.63-15-20.86-23.51-1.31-1.78-3.15-2.58-5-3.52-4-4.3-6.43-9.78-11-13.67-7.8-6.65-16.31-11.55-26.73-12.47a15.84,15.84,0,0,0-4.86-.09c-.74,0-1.47.07-2.21,0a16.51,16.51,0,0,0-5,.19c-5.21.09-10,2-14.61,4a10.66,10.66,0,0,1-9.15,0c-4.65-2-9.42-3.82-14.61-4a36.74,36.74,0,0,0-5.13-.44,8,8,0,0,0-3-.19,56.09,56.09,0,0,0-18.35,4.9,10.6,10.6,0,0,1-9.58.14c-19.44-8.79-37.32-5.92-53.1,8.16a46.68,46.68,0,0,0-12.29,50.72,42.87,42.87,0,0,0,10,16.07,10.78,10.78,0,0,1,3.4,8.07c-.08,15.27.37,30.54-.26,45.81a187.93,187.93,0,0,0,1.48,20,4.3,4.3,0,0,1-1.72,2.78c-8.37,5.8-7.81,14.36-6.85,22.84a29.29,29.29,0,0,0,7.87,16.54c2.7,3,5.9,4.91,10,4.75,3.69-.15,5.89,1.66,7.59,4.69a142.36,142.36,0,0,0,21.94,29.9c1.25,1.28,2.35,2.61,2.27,4.55a126.57,126.57,0,0,1,.26,27.72c-4.37,4.66-8.44,9.59-12.6,14.44-3.44,4-9.22,3.37-14.12,4.24-7.72,2.59-15.77,3.66-23.71,5.2-11.6,2.25-22.42,5.87-30.72,14.93-7.62,8.32-11.9,18-12,29.29-.12,17.34,0,34.67-.08,52,0,2.6.58,5.54-2.26,7.34-2.43.95-4.33-.31-6.16-1.6a258,258,0,0,1-28.71-23.62,241.82,241.82,0,0,1-44-55.48c-14.83-25.94-25.73-53.44-29.58-83.14-2.41-18.56-2.33-37.39-1.45-56.17.53-11.27.55-22.56,2.86-33.67A248.5,248.5,0,0,1,162,69.13c25.4-14.37,52.42-24.91,81.5-28.61,18.57-2.36,37.4-2.37,56.17-1.44,8.72.43,17.48.31,26.14,1.61a223.69,223.69,0,0,1,57.88,17.36c22.82,10.15,43.91,23.21,62.54,39.87,19.18,17.14,36,36.35,49.12,58.64,14.63,24.9,25.5,51.27,30.64,79.79,1.47,8.13,1.45,16.43,2,24.66C528,262.24,527.55,263.56,528.42,264.69Z"/><path class="cls-3" d="M379.32,118.45c4.16,1,6.09,4.75,8.66,7.52,12.21,13.17,24.2,26.53,36.28,39.81q28.22,31,56.46,62.05c11.47,12.56,22.94,25.11,34.57,37.51,4,4.29,7.32,9.25,12.09,12.81.67-.08.69.59,1,.88v9.55a7.6,7.6,0,0,0,0,5.74v8.6c-.94,7.36-.89,14.8-1.59,22.19-1.11,11.77-4.2,23.13-7.85,34.29a243.65,243.65,0,0,1-32,64.71A249.38,249.38,0,0,1,430.91,482c-2,1.47-3.94,3.37-6.84,2.82-2.79-.77-4.22-3.16-6.07-5.06-.89-2.46-.65-5-.66-7.56-.06-12.58.24-25.16-.1-37.73s-2.81-24.22-11.45-34.09c-7.15-8.17-16.08-12.72-26.45-15-9.78-2.14-19.72-3.51-29.37-6.27-2.35-.28-4.69-.69-7-1-4.23-.59-7.55-2.53-9.61-6.16-2.55-4.47-6.38-7.7-9.94-11.23a108.26,108.26,0,0,1,0-26.8c-.34-2.67,1.17-4.48,2.87-6.23A120.38,120.38,0,0,0,347.36,299c1.74-3.37,4.13-5.31,8.29-5.17a12,12,0,0,0,10-4.87c6.4-8.36,9.95-17.67,7.84-28.44-.82-4.17-2.52-7.83-6.11-10.42a6.58,6.58,0,0,1-2.68-3.28c.68-7,1.14-13.95,1.43-20.95.73-15.68.17-31.37.39-47-.17-2,1.08-3.2,2.23-4.53,12.81-14.86,16.82-31.55,10.56-50.41C378.68,122.1,377.93,120.25,379.32,118.45Z"/><path class="cls-4" d="M350,519.66c-12,3.24-24,6.49-36.58,6.86-2.05,1.23-4.47-.25-6.53.9l-2.06,1h-.95a28.4,28.4,0,0,0-11.47,0H276.16a1.66,1.66,0,0,1,0-1.73c2.65-2.2,3.49-5,3.48-8.44q0-68.44,0-136.88a16.5,16.5,0,0,0-1.94-8.23c.1-2.88,2.1-3.22,4.33-3.24a93.44,93.44,0,0,0,35.55-8c2.28-1,4.63-2.34,7.24-.8,2.3.17,4.62.76,5.66,2.9,3.93,8.09,10,12.92,19.19,13.49,2.72,2.08,2.2,5.13,2.22,7.92.1,20.53,0,41.06.05,61.59q0,31.75,0,63.51C352,513.71,352,516.91,350,519.66Z"/><path class="cls-5" d="M278,372.61c3.69-.22,3.95,2.15,3.94,5-.06,11.91,0,23.82,0,35.74,0,36.06-.06,72.12.09,108.18,0,4.45-1.15,6.66-5.85,6-4.05,1.32-8.34-.42-12.39.93h-1l-2-1a10,10,0,0,0-6.4,0l-2.15-.93c-1.73-1.17-3.9.28-5.63-.93-8.52-.95-16.94-2.34-25-5.34a15.29,15.29,0,0,0-3.75-.44c-1.95-2-2.11-4.53-2.11-7.1q-.1-64.08,0-128.15c0-2.49-.28-5.18,2.21-6.93,9.05-.69,15.32-5.34,19.39-13.34,1.07-2.1,3.27-2.87,5.61-3,2.38-1.61,4.59-.35,6.72.53,7.58,3.17,15.22,6.08,23.46,7C275.41,369.11,277.33,370.09,278,372.61Z"/><path class="cls-6" d="M263.74,528.42c4-1.91,8.26-.56,12.39-.93q0,.46,0,.93Z"/><path class="cls-7" d="M292.4,528.42a15.18,15.18,0,0,1,11.47,0Z"/><path class="cls-8" d="M528.42,294.32a4.7,4.7,0,0,1,0-5.74Z"/><path class="cls-9" d="M528.42,279l-1-.88c.26-1.64-.36-3.46,1-4.86Z"/><path class="cls-10" d="M379.32,118.45c9.74,20.91,5.15,44.7-11.42,59.29-1.06,3.1-.39,6.29-.46,9.43-.29,13.17.42,26.35-.37,39.52-1.35,2.07-3.54,1.87-5.54,1.91-6.77.14-13.55.28-20.32-.18-17.62.57-35.25.2-52.87.21a11,11,0,0,1-5.1-1,3.64,3.64,0,0,1-1.38-1.26c-1.34-2.33-1.21-4.91-1.21-7.44q-.07-60.56,0-121.1c0-2.35-.24-4.8,1.25-6.91h2.94a10.53,10.53,0,0,0,5.57.06,50.32,50.32,0,0,1,16.27,5.17,4.67,4.67,0,0,0,4.9,0A50.33,50.33,0,0,1,327.85,91a10.43,10.43,0,0,0,5.57,0h2.07A10.66,10.66,0,0,0,341,91C358.4,93.73,371,103.19,379.32,118.45Z"/><path class="cls-11" d="M281.9,90.93a26.56,26.56,0,0,1,.66,4.2q0,64.68,0,129.37c0,.63-.09,1.27-.13,1.9-1.16,2.3-3.39,2.18-5.4,2.19-16.82.07-33.65.41-50.46-.18-6.92.45-13.84.32-20.76.2-2.2,0-4.49,0-5.83-2.3,0-15,0-29.91.06-44.87a8.23,8.23,0,0,0-2.61-6.28c-16.66-17.28-18.78-44.49-5-63.07,15.14-20.46,40.41-26.95,62.76-16a6.45,6.45,0,0,0,6.61,0A45.43,45.43,0,0,1,281.9,90.93Z"/><path class="cls-12" d="M217.91,377.6l-.12,142.18c-24.88-7.23-48.39-17.41-69.66-32.39,1.24-1.55.66-3.37.67-5.06,0-17-.12-34.08.07-51.12.27-24.08,13.5-41.2,36.79-47.13C196.27,381.38,207.15,379.73,217.91,377.6Z"/><path class="cls-13" d="M226.4,226.56l56-.16.44.13c2.92,2.43,2.15,5.83,2.16,8.91q.14,50.85,0,101.7a60,60,0,0,1-.43,10.47c-1.31,3.07-3.6,3.89-6.87,3.59-11.93-1.12-21.87-6.7-31.29-13.53-2.06-1.5-2.5-4-3.63-6a116.21,116.21,0,0,1-25-32.75c-1.27-2.41-2.28-3.91-5.71-3.17-4.55,1-8.34-1.73-11.23-5-8.11-9.19-10.68-20-8.47-31.93,1-5.23,3.78-9.4,9-11.43,4.36.4,7.09,3.4,9.48,6.49a28.4,28.4,0,0,1,6.28,18.58c.4-8.94,3.46-17.41,4.92-26.17.84-5,1.08-10.11,2.07-15.11C224.58,229.38,224.89,227.72,226.4,226.56Z"/><path class="cls-14" d="M242.85,331.66c10.24,8.94,21.45,15.87,35.34,17.44,1.61.18,3.13.54,4.6-.36a3.11,3.11,0,0,1,1.25,1.34c1.84,6.08.92,12.27.71,18.43a4.47,4.47,0,0,1-1.95,3.14c-1.6.37-3.44-.48-4.82,1-3.57-2-7.69-1.66-11.51-2.61a128,128,0,0,1-23.56-8.74Z"/><path class="cls-15" d="M226.4,226.56c-.28,17.11-4.83,33.45-8.78,50.22-1.79-1.17-1.47-2.83-1.72-4.23-1.55-8.76-4.08-17-12.05-22.27-1-.67-1.59-1.93-2.37-2.92-2.21-6.89-1.95-14-1.5-21.05Z"/><path class="cls-16" d="M290.41,91a5.17,5.17,0,0,1-5.57-.06Z"/><path class="cls-17" d="M333.42,90.92a5.13,5.13,0,0,1-5.57,0Z"/><path class="cls-17" d="M341,91a5.18,5.18,0,0,1-5.55-.06Z"/><path class="cls-18" d="M254.35,527.42a5.61,5.61,0,0,1,6.41,0Z"/><path class="cls-19" d="M246.57,525.56c1.91.11,3.93-.45,5.63.93C250.29,526.36,248.26,527,246.57,525.56Z"/><path class="cls-10" d="M350,519.66c-.11-1.42-.31-2.85-.31-4.27q0-68.94,0-137.89c14.88,2.83,30.39,3.66,44.08,10.73,14.81,7.64,23.18,20.22,24.81,37.07,1.76,18.09.07,36.23,1,54.33a7.49,7.49,0,0,1,.88,7c-20.78,14.51-43.55,24.82-67.76,32.09C351.76,519,350.88,519.34,350,519.66Z"/><path class="cls-20" d="M282.86,349.79l-.06-1.05q0-61.11.07-122.21l58.33,0c2.74,2.16,2.49,5.49,2.74,8.33.84,9.52,3.05,18.77,5.08,28.05.71,3.25,1.76,6.44,1.2,9.33.34-9.58,3.86-18,12.36-23.9a4.94,4.94,0,0,1,3.48-1.22c8.35,3.35,10,10.7,10.16,18.32a35.66,35.66,0,0,1-7.47,23.11c-3.83,4.91-8.33,8.92-15.35,7-1.63-.45-2,.69-2.42,1.59-6.71,13.33-15.89,24.82-26.28,35.41a12.9,12.9,0,0,1-5.23,6.6c-8.68,6.13-18,10.74-28.64,12.29C288,351.89,285.08,352.43,282.86,349.79Z"/><path class="cls-21" d="M282.86,349.79c13.63.12,25.32-5.13,36.08-13,1.93-1.4,3.84-2.82,5.76-4.23l.15,28.52c-13.3,6.38-27,11.32-42.05,10.54Z"/><path class="cls-22" d="M366.06,247.15c-.61.91-1,2.11-1.85,2.68-8.67,5.87-11.4,14.78-12.72,24.44a5.34,5.34,0,0,1-.37,1.37,8.67,8.67,0,0,1-1,1.23c-4.17-16.84-8.56-33.2-8.9-50.31l25.73-.23c.38-.47.64-.39.81.17C367.92,233.44,368.51,240.42,366.06,247.15Z"/><path class="cls-23" d="M367.74,226.5a2.06,2.06,0,0,1-.81-.17q0-21.56,0-43.11c0-1.87-.34-3.83.95-5.48Z"/><path class="cls-24" d="M420.43,486.62c-1.75-2.14-.86-4.62-.88-7l5,4.08Z"/><path class="cls-25" d="M306.88,527.42c2-1.5,4.33-.76,6.53-.9C311.4,528.06,309.07,527.24,306.88,527.42Z"/><path class="cls-26" d="M328.2,431.43c-3.33-.32-5.42-1.94-5.43-5.37s2-5.4,5.26-5.43a5,5,0,0,1,5.41,5.32C333.48,429.31,331.37,431,328.2,431.43Z"/><path class="cls-26" d="M322.71,446.94c.23-3.28,2.21-5.27,5.42-5.22a5,5,0,0,1,5.31,5.44c0,3.41-2.21,5.32-5.41,5.31S322.83,450.49,322.71,446.94Z"/><path class="cls-27" d="M244.85,426c-.22,3.56-2.19,5.42-5.52,5.34a4.89,4.89,0,0,1-5.15-5.14c-.08-3.42,2-5.48,5.28-5.52S244.66,422.64,244.85,426Z"/><path class="cls-26" d="M244.85,446.63c-.07,3.88-2.1,5.82-5.35,5.81s-5.38-2-5.34-5.46a5.36,5.36,0,0,1,10.69-.35Z"/></g></g></svg>