<svg xmlns="http://www.w3.org/2000/svg" viewBox="0 0 513.42 513.42"><defs><style>.cls-1{fill:#787878;}.cls-2{fill:#cdd6e0;}.cls-3{fill:#acb3ba;}.cls-4{fill:#f2f2f2;}.cls-5{fill:#40596b;}.cls-6{fill:#ff7058;}</style></defs><g id="Layer_2" data-name="Layer 2"><g id="Capa_1" data-name="Capa 1"><rect class="cls-1" width="513.42" height="513.42"/><circle class="cls-2" cx="256.71" cy="256.21" r="223.29"/><circle class="cls-3" cx="256.71" cy="256.21" r="160.95"/><path class="cls-4" d="M263.22,32.92c-4.65,0-7.44,4.65-7.44,8.37V126A8.38,8.38,0,0,1,239,126V41.29c0-4.65-2.79-8.37-7.44-8.37-4.65-.93-9.3,3.72-9.3,8.37V126a8.34,8.34,0,0,1-8.38,8.37h0a8.34,8.34,0,0,1-8.37-8.37V41.29c0-4.65-2.79-8.37-7.44-8.37-4.65-.93-9.31,3.72-9.31,8.37V126a8.34,8.34,0,0,1-8.37,8.37h0a8.34,8.34,0,0,1-8.37-8.37V41.29c0-4.65-2.79-8.37-7.45-8.37-4.65-.93-9.3,3.72-9.3,8.37v94c0,15.82,6.51,29.77,16.75,40.94,16.74,16.74,26,40,24.19,63.26l-18.61,201v6.52c1.86,20.47,21.4,35.35,41.87,31.63,18.6-3.72,30.7-21.4,28.84-40l-17.68-200c-1.86-24.19,7.44-46.52,24.19-63.26a58.46,58.46,0,0,0,16.75-40.94v-93A8.34,8.34,0,0,0,263.22,32.92Z"/><path class="cls-5" d="M231.59,242.25H196.24L178.56,440.42v6.52c1.86,20.47,21.4,35.35,41.87,31.63,18.6-3.72,30.7-21.4,28.84-40Z"/><path class="cls-4" d="M343.23,32.92s-40,15.82-56.75,135.83C280,218.06,290.2,266.44,308.81,312a43.5,43.5,0,0,1,2.79,15.82l-11.16,120v5.58A29.41,29.41,0,0,0,333,479.5c14.89-1.86,25.12-17.68,24.19-32.56Z"/><path class="cls-6" d="M311.6,326.92v1.86l-11.16,120v5.58A29.41,29.41,0,0,0,333,480.43c14.89-1.86,25.12-17.68,24.19-32.56l-3.72-120H311.6v-.93Z"/></g></g></svg>