<svg xmlns="http://www.w3.org/2000/svg" viewBox="0 0 510.49 510.49"><defs><style>.cls-1{fill:none;stroke:#fff;stroke-miterlimit:10;stroke-width:0.25px;}.cls-2{fill:#fce5df;}.cls-3{fill:#e2a39a;}.cls-4{fill:#e9b2a8;}.cls-5{fill:#f8e8ed;}.cls-6{fill:#a3ca39;}.cls-7{fill:#f6d4cd;}.cls-8{fill:#f4cec7;}.cls-9{fill:#efc1b9;}.cls-10{fill:#eebfb6;}.cls-11{fill:#eab5ac;}.cls-12{fill:#edbab1;}.cls-13{fill:#ee5461;}.cls-14{fill:#fcf1ef;}.cls-15{fill:#fcc062;}.cls-16{fill:#fbded5;}.cls-17{fill:#faab19;}.cls-18{fill:#fab714;}.cls-19{fill:#9eca3a;}.cls-20{fill:#9dc739;}.cls-21{fill:#fbd565;}.cls-22{fill:#f05562;}.cls-23{fill:#f8ae68;}.cls-24{fill:#f7f0ef;}.cls-25{fill:#80a63d;}.cls-26{fill:#ee8222;}.cls-27{fill:#f7b75f;}.cls-28{fill:#f39c5c;}.cls-29{fill:#ef9d58;}.cls-30{fill:#f4a268;}.cls-31{fill:#f89f1c;}.cls-32{fill:#faf26c;}.cls-33{fill:#f6b36e;}.cls-34{fill:#fbad18;}.cls-35{fill:#e38a51;}.cls-36{fill:#f68c21;}.cls-37{fill:#91b93d;}.cls-38{fill:#f4a46b;}.cls-39{fill:#faf16d;}.cls-40{fill:#fad208;}.cls-41{fill:#fcde82;}.cls-42{fill:#fbecea;}.cls-43{fill:#fbbd78;}.cls-44{fill:#fbde6a;}.cls-45{fill:#f79a20;}.cls-46{fill:#e2c0af;}.cls-47{fill:#73993e;}.cls-48{fill:#fcefee;}.cls-49{fill:#eb5360;}.cls-50{fill:#c8dd7c;}.cls-51{fill:#fcdd94;}.cls-52{fill:#f29c58;}.cls-53{fill:#faebea;}.cls-54{fill:#fbde96;}.cls-55{fill:#eb8f53;}.cls-56{fill:#fcdc92;}.cls-57{fill:#e58b23;}.cls-58{fill:#ee9f58;}.cls-59{fill:#d73e50;}.cls-60{fill:#e8cabe;}.cls-61{fill:#e4b9a1;}.cls-62{fill:#dd784c;}.cls-63{fill:#e68624;}.cls-64{fill:#e18923;}.cls-65{fill:#f4aa5d;}.cls-66{fill:#f9a525;}.cls-67{fill:#aa4329;}.cls-68{fill:#8aaa43;}.cls-69{fill:#f08121;}.cls-70{fill:#c9bca1;}.cls-71{fill:#ccbda6;}.cls-72{fill:#e6c2c8;}.cls-73{fill:#eed2d8;}.cls-74{fill:#efd2d8;}.cls-75{fill:#fbeceb;}.cls-76{fill:#e0c0aa;}.cls-77{fill:#cdc085;}.cls-78{fill:#efe7d5;}.cls-79{fill:#c4dd7e;}.cls-80{fill:#faece9;}.cls-81{fill:#f9bf6b;}.cls-82{fill:#f59198;}.cls-83{fill:#c9df7c;}.cls-84{fill:#f8f1ee;}.cls-85{fill:#b9ce51;}.cls-86{fill:#cde079;}.cls-87{fill:#a53b23;}.cls-88{fill:#d52a47;}.cls-89{fill:#f0757f;}.cls-90{fill:#ee727d;}.cls-91{fill:#e9717e;}.cls-92{fill:#d42b47;}.cls-93{fill:#f1707c;}.cls-94{fill:#f4979d;}.cls-95{fill:#d42f49;}.cls-96{fill:#c0c37b;}.cls-97{fill:#c7786a;}.cls-98{fill:#cf2a44;}.cls-99{fill:#cf2947;}.cls-100{fill:#fae205;}.cls-101{fill:#f59120;}.cls-102{fill:#c9dc58;}.cls-103{fill:#90ba3d;}.cls-104{fill:#facd09;}.cls-105{fill:#d46526;}.cls-106{fill:#faca0b;}.cls-107{fill:#72953c;}.cls-108{fill:#638238;}.cls-109{fill:#4f672f;}.cls-110{fill:#996e2b;}.cls-111{fill:#8ec23f;}.cls-112{fill:#5c7835;}.cls-113{fill:#bf4d26;}.cls-114{fill:#485c29;}.cls-115{fill:#cbbf8e;}.cls-116{fill:#688437;}.cls-117{fill:#e1d5b0;}.cls-118{fill:#558d3b;}.cls-119{fill:#f9ad17;}.cls-120{fill:#f58421;}.cls-121{fill:#f79a4a;}.cls-122{fill:#f8994a;}.cls-123{fill:#f4e6e5;}.cls-124{fill:#db7826;}.cls-125{fill:#c9d65c;}.cls-126{fill:#afd17a;}.cls-127{fill:#bdd978;}.cls-128{fill:#84a740;}.cls-129{fill:#bcdb76;}.cls-130{fill:#ed5461;}.cls-131{fill:#faa919;}.cls-132{fill:#df854d;}.cls-133{fill:#c42540;}.cls-134{fill:#ca2d46;}.cls-135{fill:#fdfdfd;}.cls-136{fill:#ece9e6;}.cls-137{fill:#fefefe;}.cls-138{fill:#f6c897;}.cls-139{fill:#c04d26;}.cls-140{fill:#b6c24a;}.cls-141{fill:#80a93e;}.cls-142{fill:#fad433;}.cls-143{fill:#fbe77c;}.cls-144{fill:#fce173;}.cls-145{fill:#f1cc30;}.cls-146{fill:#fddc92;}.cls-147{fill:#f9bc74;}.cls-148{fill:#e4a981;}.cls-149{fill:#d33d4f;}.cls-150{fill:#984923;}.cls-151{fill:#628338;}.cls-152{fill:#a53a25;}.cls-153{fill:#cf2946;}.cls-154{fill:#d22a46;}.cls-155{fill:#e75360;}.cls-156{fill:#f59199;}.cls-157{fill:#f3a0a7;}.cls-158{fill:#e6505e;}.cls-159{fill:#e63a4e;}.cls-160{fill:#e9727c;}.cls-161{fill:#f7a51e;}.cls-162{fill:#9fca3a;}.cls-163{fill:#fbedeb;}.cls-164{fill:#769d3d;}.cls-165{fill:#c0203c;}.cls-166{fill:#5a7132;}.cls-167{fill:#4c5d2a;}.cls-168{fill:#688a3a;}.cls-169{fill:#7fa43c;}.cls-170{fill:#bdb884;}.cls-171{fill:#9dc63b;}.cls-172{fill:#a0c340;}.cls-173{fill:#4f6a30;}.cls-174{fill:#e88551;}.cls-175{fill:#bd233c;}.cls-176{fill:#de535e;}.cls-177{fill:#c55a44;}.cls-178{fill:#de794d;}.cls-179{fill:#536f32;}</style></defs><g id="Layer_2" data-name="Layer 2"><g id="Layer_1-2" data-name="Layer 1"><rect class="cls-1" x="0.13" y="0.13" width="510.24" height="510.24"/><path class="cls-2" d="M111.49,432.2c-10.63-4.25-18.82-12.06-27.66-18.93-12.4-22.6-29.93-42.4-36.74-68.08-2.61-9.86,0-13.74,10.24-13.89,14.64-.23,29.29-.15,42.36-1.22-1.58-.16-4.78.7-7.85-.48-1.25-3.33,1.5-3,3.23-3.32a52.72,52.72,0,0,1,7.44-.22c2.43-.05,4.68-.33,4.6-3.59,0-1.63,1.19-3,1-4.64-.9-2.92-4.66-4.13-4.56-7.64a7,7,0,0,1,3-3.07,3.27,3.27,0,0,1,1.75.18,16.31,16.31,0,0,1,4.24,3.65c2.52,2.81,5.2,3.88,8.8,1.81,2.24-1.29,4.47-1.45,5.13,2a9.42,9.42,0,0,1-.87,4.28c-2.56,6.49-1.73,7.74,5.47,8.11,2.72.14,5.45.06,8.18.06q106.63,0,213.28,0c2.92,0,5.89-.34,8.72.71.74.28,1.6.67,1.62,1.62s-.78,1.37-1.54,1.73a2.56,2.56,0,0,1-1.19.4c-9.65-.47-19.05,3-28.59,2.34-8.39-.57-16.65-1.19-25,.15a28.85,28.85,0,0,1-11.88-.35,11.31,11.31,0,0,0-9.09,1.11c-3,1.1-6.15,1-9.29.9-6,.14-12.06.16-18.09,0-5.64,0-11.29-.12-16.94,0-6,.15-10.92,2.47-14.25,7.71-7,11-13,22.45-15.84,35.27-1.47,6.54-3.74,12.84-5.4,19.33-1.85,7.19-13.43,14.32-22.46,14.36-24.69.08-49.39,0-74.08.08-3.22,0-7.86-1.57-9.3,1.64-1.67,3.72,3.12,5.76,5.19,8.48C107.51,425.73,111.84,427.42,111.49,432.2Z"/><path class="cls-3" d="M380.8,443.3c-22.35,10.65-46,16.95-70.25,21.4-6.69,1.23-13.49,1.91-20.24,2.84-9.49,4.33-19.36,3.38-29.25,2.13-2.88-2.74-.2-4.28,1.6-5.09,13.59-6.1,22.9-16.41,30.37-29,2.65-4.45,5-8.88,5.37-13.88,1.67-21.22,14.61-36.46,27.11-51.94,2.64-3.28,6.45-4.66,10.6-4.68q40.54-.25,81.08,0c6.11,0,7.65,1.72,8.11,8,1.16,15.5-5.68,27.93-15.36,39.21-6.82,7.94-13.61,15.92-22,22.31C384.88,436.88,382.85,440.13,380.8,443.3Z"/><path class="cls-4" d="M380.8,443.3c-.81-5.4,3.35-8.07,6.63-10.61,11.73-9.08,21.26-20.24,29.25-32.41,5.66-8.63,8.64-18.86,6.94-29.73-.45-2.93-2.09-3.84-4.73-3.83q-42.13,0-84.28,0a9,9,0,0,0-6.81,2.87c-5.58,6.72-10.75,13.78-16.05,20.73-8,10.48-9.26,23.28-12.76,35.43-3.66,12.7-11.53,23.24-21.81,31.88-5.28,4.44-12,6.49-17.16,11a4.34,4.34,0,0,1-3.28,1.56c-11.15.2-22.35,1.23-33.35-1.64-4.3-4.47.33-5.94,2.86-5.91,18.56.18,26.8-14.63,37.8-25.41,10-9.78,15.2-22.28,20-35.07,3.12-8.28,9.35-14.88,13.31-22.7,7.85-15.49,20.15-28.14,27.63-43.84a4.2,4.2,0,0,1,3.88-2.73c11.29,1.11,22.46-1.13,33.74-1,21.94.29,43.89.09,65.83.07a20.22,20.22,0,0,1,6.2.67c3.52,1.35,3.5,4.95,4.72,7.7,7.89,17.74,4.74,34.65-4.18,51-6.2,11.37-13.67,22-20.4,33C403.72,431.18,393,438.65,380.8,443.3Z"/><path class="cls-5" d="M222.29,467.22c12.52,1.84,25.13,1.54,37.73,1.43a268.68,268.68,0,0,0,30.29-1.11c1.26,2.64,3.67,2.43,6,2.36,20.52-.62,41,.91,61.49,1.6,24.3.81,48.75,1.57,72.8,6,3.71.69,9.79.87,9.55,4.9-.2,3.5-6.24,3.43-10.16,3.89-21.44,2.55-43,1.84-64.49,2.63-59.3,2.19-118.61.81-177.91.93-24.68.05-49.38-1-74.08-1.22-10-.08-19.92-1.55-29.87-2.47A24.12,24.12,0,0,1,79.4,485c-1.7-.47-3.52-1.35-3.51-3.11,0-1.93,2.24-2.5,3.75-2.79,7.76-1.51,15.51-3.44,23.36-4.05,28.31-2.19,56.64-4.05,85.08-4.22,9.12-.06,18.35-.71,27.53-.91,2.18-.05,4.23-.12,5.35-2.4A.9.9,0,0,1,222.29,467.22Z"/><path class="cls-6" d="M67.22,237.17l.4-1.2c3.36.54,2.58,3.37,2.67,5.38a66.38,66.38,0,0,1-.52,15c1.21-7.58,5.26-14.1,7.83-21.17,1-1.84,2.9-3.06,3.26-5.26.74-5.66,3.53-10.6,5.48-15.84a9.73,9.73,0,0,1,4.79-4.74,82.32,82.32,0,0,1,19.44-6.13,30.54,30.54,0,0,1,7-.49,13.76,13.76,0,0,1,5,.74,5.86,5.86,0,0,1,2.26,1.9c1.78,5,5.4,9.37,5.13,15.08-4.42,5.4-8.11,11.43-13.69,15.83-4.24-1.1-4.07-5.37-5.88-8.22-1.19-1.87-1.4-4.24-3-6.39-2.55,6.86-5.39,13.27-8.16,19.71-1.31,3.06-.38,4,2.77,4.28,8.63.84,8.62,1,10.57,9.82,1,6,5.21,10.05,8.82,14.47,1.32,2.27,3.4,3.91,5,6,.59,1.1,1.21,2.2,0,3.32a12,12,0,0,1-7.29,1.14c-7.2-7.62-9.82-17.56-13.3-25.89C108,262.82,113,271.37,115,281c-.38,1.76-1.68,2.85-3,3.87a36.67,36.67,0,0,0-11.62,16.58c-2.59.67-4.29-1.14-6.17-2.3-2.82-1.74-5.57-3.6-8.44-5.28-9-5.27-17.82-6.57-26.46.67-5.21,3.39-11.32,5.73-13.92,12.12-1.77,4.66-1.41,9.49-1.1,14.29.52,8-.57,9-8.85,7.74a3.21,3.21,0,0,1-1.77-2.54c-3-15-2.5-29.56,6.53-42.77,2-7.75,8.41-11.84,14.37-15.88,4.24-2.88,6.18-5.83,6.52-11.07C61.53,249.68,61.87,242.51,67.22,237.17Z"/><path class="cls-7" d="M111.49,432.2c-3.19-4.75-7.84-8.11-11.61-12.32-1.81-2-4.11-4.19-2.93-7.11s4.31-2,6.72-2q39.95-.06,79.89,0c10.12,0,18.9-7.26,21.52-16.9,5-18.44,9.87-36.94,21.58-52.77,3.71-5,8.31-6.76,13.87-7s11.32-.06,17-.05c1.67,2.66-.45,4.3-1.74,6.05-11,14.91-20.12,30.71-24.86,48.88-3,11.36-10.14,20-19.82,26.6-4.16,2.83-8.47,5.42-12.54,8.37-3.26,2.35-7.05,2.39-10.84,2.39H126.14c-1.68,0-3.35-.06-5,.07-1,.08-2.23.07-2.75,1.14-.69,1.41.41,2.35,1.26,3.22,2.21,2.25,5,3.87,7.22,6,1.58,1.52,4.05,2.51,3.54,5.42C123.57,439.85,117.55,436,111.49,432.2Z"/><path class="cls-8" d="M130.39,442.2c-4.11-3.48-8.27-6.89-12.3-10.45-1.68-1.49-4-3.24-3-5.7s3.68-1.42,5.67-1.42c19.67-.05,39.41-1.05,59,.32,13.55.95,22.77-5.57,32.69-12.45,11.36-7.87,16.16-19.67,19.6-32.08,4.43-16,13.66-29.08,23.13-42.15,1-1.35,2.36-2.4,2.34-4.26l18.89,0c2.43,3.19.83,6.14-1,8.64-4.21,5.74-7.77,11.91-11.88,17.72-5.67,8-9.39,17.3-12.28,26.67-3.45,11.17-9.1,20.34-18.25,27.87-7.91,6.52-15.27,13.63-24.18,18.93a24.22,24.22,0,0,1-13,3.78c-16.76-.08-33.53,0-50.3,0a40.37,40.37,0,0,0-4.4,0c-1.53.16-3.83-.73-4.27,1.42-.38,1.88,1.87,2.47,3.12,3.51,2.1,1.77,5.65,2.22,5.52,6C139.82,447.93,135.41,444.35,130.39,442.2Z"/><path class="cls-9" d="M145.47,448.61c-2.57-3.21-6.75-4.1-9.69-6.75-1.33-1.2-3.34-2.41-2.39-4.64.83-2,2.91-1.26,4.48-1.26,19.08,0,38.19-.62,57.23.23,8.92.39,14.77-4.73,20.74-8.92,9.15-6.42,17.36-14.28,25.1-22.52a27.57,27.57,0,0,0,6.68-12.58c2.18-9.29,7.31-17.24,10.41-26.08,2.64-7.52,9.26-12.73,13-19.74,2.14-4,5.94-7.17,5.35-12.32l8.79-.07c3.4-1.84,6.93-1.41,10.47-.63,3.4,2.19,1.47,4.72.27,7a123.44,123.44,0,0,1-11.55,17.91c-6.61,8.53-11.3,18-15.26,28-7.54,18.89-19.74,34.28-35.48,47-3.09,2.49-6.2,5-9.46,7.25-7.47,5.18-15.31,9-25,8.57-12.74-.53-25.52-.17-38.28-.1-2.37,0-5.34-.67-5.39,3.28C151.78,452.18,148.71,450.17,145.47,448.61Z"/><path class="cls-10" d="M155.55,452.22c-2.91-3.63-1.73-5,2.59-5,11.31.06,22.68-.72,33.92.21,14.31,1.19,25.84-3.62,36.79-12.34,18.17-14.47,32.36-31.54,40.37-53.64,4-11,11-20.52,17.87-30.06,3.82-5.32,8.13-10.58,9.44-17.35,4.6-1.41,9.39-.29,14-1,2.58,1.15,2.26,3.29,1.64,5.34-.91,3-1.72,6.2-3.77,8.59-15.82,18.48-25.07,40.85-36.84,61.73A124.34,124.34,0,0,1,228.25,454a25.19,25.19,0,0,1-13.75,3.73c-11.94,0-23.88,0-35.81,0-1.45,0-2.94-.46-4.2.66C168.05,456.72,161.58,455.16,155.55,452.22Z"/><path class="cls-11" d="M174.49,458.37c.79-3.46,3.61-2.24,5.66-2.26,11.11-.1,22.22-.18,33.33,0a27,27,0,0,0,15.87-4.75c20.75-13.66,35.79-32,46.52-54.29,5-10.47,11.77-20.27,16.82-30.6,4.94-10.09,14.55-16.75,17.73-27.62.47-1.58.82-3.2,1.23-4.8a18.84,18.84,0,0,1,15.08,0c-1.7,7.08-6,12.62-10.11,18.46-6.95,9.73-12.59,20.39-19.43,30.21-8.33,12-14.1,25.1-19.21,38.62-1.22,3.21-3.81,5.46-5.67,8.19-8.67,12.73-19.87,22.81-32.09,31.95-3.21,2.4-6,4-10.28,2.47-2.95-1.06-6.32-.71-7.65,3.24l-1.33.31C205.05,466.61,189.72,462.75,174.49,458.37Z"/><path class="cls-12" d="M414.79,424.42c-.15-2.36.08-4.74,1.6-6.58,6.57-8,11.28-17.08,16.45-25.9,9.67-16.51,13.06-33.68,4.53-51.8a13,13,0,0,1-1.17-6.09c1.71-1.91,4.06-2,6.34-2q15.61-.23,31.23,0c2.31,0,4.6.28,6.35,2.07-3.5,20.83-12.9,38.93-25.85,55.32a163.84,163.84,0,0,1-34.17,31.81C418.42,422.42,416.57,423.36,414.79,424.42Z"/><path class="cls-13" d="M304.1,184.21c8.36-1.94,16.76-3.35,25.42-2.66,14.82,1.18,24,9.24,27.24,24-.5,3.12.63,6.41-1.18,9.64,1.22-1.12.08-5.22,3.56-2.43,1,4.65,1.54,9.28-.46,13.81-.46.41-1.35.87-1.6.52-2.63-3.54-4.48-2.47-6.15.84a9.33,9.33,0,0,1-2.28,2.89,3.11,3.11,0,0,1-1.7.49,5.81,5.81,0,0,1-4.29-3.07c-.28-5,4.79-8.6,3.62-13.83.82-4-1.78-4-4.45-3.58-3.93.59-7.36,2.57-10.89,4.24a10.33,10.33,0,0,0-5.49,1.48c1.32-.17,2.91-1,4.29.4a56.64,56.64,0,0,1,2.65,8.54c-.79,6.73-6.14,8.82-11,12.25-6.9,4.87-10.22,0-14.62-3-.31-2.9,2.52-4.27,3.27-6.66,1-.61,2.34-.92,2.9-.1,3,4.49,6-2.48,9,.09-.38-1.75-1.73-3.72,1.09-4.72-.77-.53-1.54.07-2.31,0-4.06-.29-7.3-1.39-5.6-6.5.59-1.78-.57-2.14-1.54-2.85-1.52-1.11-1.84-2.62-1.66-4.43.1-1,1.27-1.35,1-2.37-1.61,1.71-2.85-3-5.52.13-1.86,2.22-4,3.37-4.14,6.84-.05,2.24-2.37,3.88-4.59,4.74-1.81.71-3.45,1.48-4.23,3.41a4.53,4.53,0,0,1-3.17,1.77c-4.44-.19-8.76-1.48-13.23-1.47-2-.47-3.84-1.31-6.08-1.15-8.14.59-8.62,0-8.35-8.72,1.21-5.66,5.37-9,9.6-12.39,3.71-2.93,7.29-6,11.26-8.63C290.87,188.88,296.62,184.28,304.1,184.21Z"/><path class="cls-14" d="M33.67,326.14l1.11,1.48a13.55,13.55,0,0,0,10.15-.46c5.16-2.23,10.72-1,16.12-1,1.67,0,3.31.59,5,.58,2.62,0,5.38-.25,5.28-3.79-.11-3.69-2.63-4.51-5.73-3.68-5.06,1.34-7.93-.81-8.19-5.67-.33-6-3.52-7.3-8.72-6.88-1.35.11-4.1,1.47-4.06-2,2.72-6.17,8.55-8.42,14-11.11,4.88,2.7,3.81,7.06,3.34,11.38-.59,5.33.36,6.08,5.55,4.94a16.73,16.73,0,0,0,5.72-2.47c8-6.36,15.94-4.44,23.9,0,5,2.75,8.93,6.77,13.15,10.47a4,4,0,0,1-2.69,3.49c-2.57.85-4.36-.89-6.31-2-3.3-1.84-6.61-3.64-10.37-4.31a9,9,0,0,0-10.38,9c0,2.61,1.48,3.08,3.61,3.2,2.44.14,5.08-.45,7.13,1.56h15.43c.3,2.85-1.3,2.5-2.41,2.53-16.17.46-32.3,2.1-48.52,1.37-7.56-.34-9.66,3.51-7.49,10.88,5.56,18.87,15.07,35.56,26.9,51.07,4.23,5.55,5.06,12.67,8.62,18.52-26.79-20.47-44-47.2-52.51-79.75C30.47,330.25,32.43,328.44,33.67,326.14Z"/><path class="cls-15" d="M254.08,147.58c3.21,3.15.57,6.59.37,9.85-.39,6.06-3.18,11.86-2,18.12.45,5.54-3,7.76-7.65,8.88q-15.12,3.67-30.4,6.61a2.19,2.19,0,0,1-1.74-1.18c-1.48-9.84,1.3-19.36,2.3-29,.56-5.47-.3-11.38,3.53-16.18,2.46-1.54,5.22-1.54,7.89-1.08C235.55,145.19,245.11,144.32,254.08,147.58Z"/><path class="cls-16" d="M480.12,334.1l-43.92-.05-109.47,0-15.08,0H296.53L285.19,334a4.24,4.24,0,0,1,5.26-2.42c10.2,2.79,20.45-1.45,30.48.1,13.85,2.13,27.17-2.95,40.87-1.64-2-1.65-4.31-1-6.44-1Q245,328.93,134.64,329c-3.13,0-6.28-.77-9.29-.82-7.74-.12-5.45-3.31-2.92-7.18,1.7-2.6,3.68-5.17,2.86-8.64.3-3.81,3.27-2.85,5.57-3.14,3.51-.45,7-.55,10.31,1,2.32,1.08,4.6,2.21,5.84,4.65a2.14,2.14,0,0,1-.33,1.82c-3.68,3.8-9.22,1.36-13.24,4-1.21,1.12-3,2.13-2.23,4.06.64,1.51,2.49,1.3,3.93,1.31,7.34,0,14.68.1,22-.06,1.74,0,3.48.11,5.21-.08,5.59,0,11.18-.11,16.77.09,2.63-.2,5.25,0,7.88-.05,3-.12,6.05,0,9.08,0q7-.27,13.95,0,27-.42,54,0c1.17,0,2.35.06,3.52,0,3.47-.32,7,.24,10.43-.13,8.2,0,16.4-.09,24.6,0,6.22.22,12.44-.19,18.65,0,2.32.28,4.65,0,7,.11,5.85-.2,11.7-.17,17.55,0,11.87-.28,23.75-.11,35.62-.11,3.4.37,6.81-.11,10.21.11,4.37.23,8.63,1.48,13.05,1.33h2.24c11.09,1.06,22-1.94,33.1-1.3,5.84-.27,11.67-.07,17.5-.05,4.66.26,9.54-1.23,13.82,1.84C475.7,327.88,481.34,326.31,480.12,334.1Z"/><path class="cls-17" d="M305.12,41.72c4.92-5.78,5-5.85,9.05,0,9,13.16,12.57,27.49,8.92,43.29-8,3.19-10,11.37-14.72,17.35-13.76,17.65-30.67,29.53-54.06,29.24-2.88,0-6.4.9-8.47-2.45a11.3,11.3,0,0,0,3-7.16,7.6,7.6,0,0,1,3.85-1.15c3-.12,6,0,9,0,4.38.27,8.53-.41,12.18-3.06,9-3.72,16.05-10.23,23.1-16.69a9.59,9.59,0,0,0,1.48-1.12c2.75-2.81,6.2-5.95,5.14-9.92-1-3.65-5.73-2.19-8.7-3.32-2.15-.81-5.2.29-6.21-2.94a19.3,19.3,0,0,0,9-13.9c1.5-1.9,3.7-1.59,5.73-1.88,6.93-1,8.87-3.93,7.06-10.77A44.86,44.86,0,0,0,305.84,47C304.91,45.35,304.16,43.65,305.12,41.72Z"/><path class="cls-18" d="M297.77,71a5.06,5.06,0,0,1,1.14.27,13.72,13.72,0,0,1-10,12.33c-1,1.19-2.49,1.3-4,1.72,5.11,5,5.19,8.16.37,12.66a14.38,14.38,0,0,0-3.58,4.23c-3,6.27-4.65,7.09-11.15,5.84a26.46,26.46,0,0,0-4.34-.49c-7.41-.17-8.17-1.15-6.77-9-3.41,5-6,10.08-9.38,14.64a9.31,9.31,0,0,0-1.43,9.41c1.51,3,1.72,5.58-2.54,6.29-2.93,2-5.11-1.08-7.74-1.14a4.9,4.9,0,0,1-1.81-.36c-9.41-6.41-9.44-6.45-1.52-14.48,8.08-8.19,16.24-16.29,24.36-24.44,7.43-1.79,10.28,1.22,8.05,10.83,2.33-5.15,4.47-2,6.49-2.11-.18-3.09,1.46-4.61,4.4-5-5.32-6.55-5.35-7.59-.33-13.69.39-.48,1.25-1,1.16-1.41-1.26-6.31,3.39-10.21,6-14.95a26.87,26.87,0,0,1,6.26-6.46c6.84,5.65,6.58,9-1.12,14.25C292.89,69.68,295.55,68.76,297.77,71Z"/><path class="cls-19" d="M423.9,245.8a34.52,34.52,0,0,1,3.22,16.87c-.15,4,1.08,5.8,5,6.92,8.88,2.55,16.8,6.91,22.9,14.12-1.42,4-4.39,3.16-7.19,2.16-4.3-1.54-8.26-3.85-12.32-5.92-6.5-3.3-13.15-6.09-20.55-6.53-4.35-2.19-3.44-7.75-6.79-10.59-1.7-3.34-3.4-6.71-5-10.09-2.23-4.78-4.66-4.35-8.11-1.48-6.11,5.07-11.9,10.52-18.24,15.3-1.48,1.11-2.81,3.52-5.29,1.53.13-6.13,3.41-11.47,4.38-17.4a5.84,5.84,0,0,1,3.43-3.35c9.94.33,13.16-6.56,15.48-14.42a4.54,4.54,0,0,1,4.56-.32c1.57,1,1.8,2.73,2,4.37.88,6.32,5.2,8.92,11.26,10.44-1.91-1.06-4.85-1.21-1.81-3.79C415.49,242.63,420.13,241.64,423.9,245.8Z"/><path class="cls-20" d="M376.24,205.54l7.11,1.5c4,3.45,3.34,7.64,1.94,11.94-.12.16-.23.38-.4.47-13.38,7.13-13.38,7.13-11.6,23.06-1.11,3.53-2.87,7.08.13,10.57,1.87,3.74-.45,6.85-1.61,10.08-1.33,3.71-3.47,7.08-4.83,10.8-3.13,4-6.09,8.29-12,8.31a4,4,0,0,1-.75-4.64c3.71-9.39,4.69-19.21,4.76-29.18.5-.67,1.32-.91,2-1.4-6-7.44-2.75-15.74-1.91-23.67a29.55,29.55,0,0,0-1.37-12.61,3,3,0,0,1,0-2.67l5.21-2.42a17.62,17.62,0,0,1,11.64-1.16Q375.37,205,376.24,205.54Z"/><path class="cls-21" d="M285.08,192.91c-6.85,6.11-15.49,10.33-20,18.89-1.15,2.06-1,5.07-4.18,5.63a2,2,0,0,1-1.58-.9c-1.94-4.08-2.17-8.51-2.68-12.89.46-3.8,3.39-5.71,6-7.83,3.86-2.26,5.81-6.12,8.07-9.71.91-1.4,1.84-2.79,2.66-4.26,1.25-2.27,1.75-4.22-1.25-5.64-2.7-1.26-4.78-1.29-6.15,1.8a31.57,31.57,0,0,1-5.52,9.07c-1.22,1.29-2.65,2.11-4.44.87-2.66-4.9-1.43-10.07-1.12-15.18l5.13-5.92c10.12.7,20.24.95,30.33-.45,6.12.29,8.95,5.29,12.75,8.91a10.47,10.47,0,0,1,3.27,5.21c-.33.27-.81.66-1.08.52-7.72-4.15-11.54,1.06-15.26,6.38C288.6,189.46,286.63,191,285.08,192.91Z"/><path class="cls-22" d="M149.09,149.36c18.35-.91,32.95,5.81,42.7,21.63,3.1,5,7,7.48,12.79,7,2.88,3.54,1.38,7-.12,10.52-2,2.43-4.56,1.14-6.83,1s-1.39,1.3-1.71,2.23c-4.53,2.76-9.61,2.9-14.67,3.21-4.36-2.33-3.61-6-1.49-9,3.9-5.37,1.5-9.06-2-13.17a30.74,30.74,0,0,0-23.28-11.32C148.64,157.09,147.16,153.76,149.09,149.36Z"/><path class="cls-23" d="M149.09,149.36c-.86,4.81,2.95,7.49,5,11,2.82,2.15,5.11,4.6,4.74,8.53-3.61,6.75-9.18,11.95-14,17.77-2.37,2.39-4.48,5.83-8.39,2.13-1.08-1,2.68-.4.52-2.1a51.34,51.34,0,0,1-14.57-17.42c6.5-8.33,12.71-16.94,21.87-22.71Z"/><path class="cls-24" d="M110.67,204.53l-19.21,6c-2.06-.77-3.57-1.86-2.68-4.42,1.9-3.62,6-7.52,3.9-11.23-1.75-3.18-7-1.26-10.6-1.3-12.06-.13-11.69-1.19-11.66,11.38a49.62,49.62,0,0,1-.24,7.51,7.1,7.1,0,0,1-.6,1.86c-2.21,2.48-4.3,5.21-8.28,4.19,0-4.18-.16-8.37-.11-12.56.17-13.53,7.91-21.42,21.37-21.66,3.45-.06,6.54.07,8.44-3.78,1.52-3.07,4.35-3,6.94-1.12s5.34,4,7.89,6.13c1.28,1.08,2.28,2.6,4.21,1.22A33.77,33.77,0,0,1,110.67,204.53Z"/><path class="cls-25" d="M471.35,327.67H457.6a7,7,0,0,1-3.27-3.65c-5.22-15.35-15.62-26.79-27.69-37.06-3.31-2.82-7.76-3.08-11-5.77a4.21,4.21,0,0,1-.26-3.69c4.18-5,8.55-1.76,12.27.29,10.94,6,21.55,12.68,30.58,21.4,3.33,3.22,7.39,5.33,10.79,8.37C471.6,314.05,471.49,320.86,471.35,327.67Z"/><path class="cls-26" d="M238.41,127.73l7.74,1.14c13.08,3.51,25.12.24,36.59-5.92,13.87-7.45,23.89-18.67,31.17-32.51,1.91-3.62,4.63-6.14,9.18-5.41C318.55,123.73,271.5,147.46,238.41,127.73Z"/><path class="cls-27" d="M67.22,237.17c-2.78,7.6-5.17,15.3-4.73,23.54a5.51,5.51,0,0,1-3.45,5.9c-7.81,3.84-13.57,10.06-18.84,16.77-1-3.27-5.29-1.95-6.62-4.76,1.81-8.5,6.88-15.58,10.22-23.41,3.07-7.2,8.24-13.8,4.48-22.37-.39-.89-.39-2.68,1.73-2.22C56.14,231.77,60.93,236.43,67.22,237.17Z"/><path class="cls-28" d="M229.77,45.81c-4.14,6.5-11.15,9.94-16.37,15.29-1.89,1.94-3.45.24-5-.7-5.9-3.59-11.77-7.23-17.66-10.84a3.07,3.07,0,0,1-.26-3.5c4.49-6.25,8.28-13.15,15.13-17.36C214.3,33.51,222.62,38.84,229.77,45.81Z"/><path class="cls-29" d="M254.89,172.76c2.49,2.65.91,5.93,1.36,8.89.33,2.17-.75,4.61,1.29,6.44-.37,5-4.52,7.15-7.49,10.18-3.32,3.39-8.2,5.24-9.94,10.17-2,1.74-4.4,2.62-6.63,3.89a2.2,2.2,0,0,1-1.61-.51c-1.06-1.48-1.19-3.29-1.82-4.93-1.67-6.37-5.22-11.09-11.64-13.35-1.53-.54-3.12-1.16-3.71-3a4.12,4.12,0,0,1,3.93-2.57c9-.34,17.32-4.08,26.16-5.17,4.47-.56,5.52-4.41,7.62-7.29Z"/><path class="cls-30" d="M350.64,166c0,9.33-2.36,12.21-9.78,12.09-12.68-.19-14.94-2.91-15.09-18.22,0-3,6.74-8.56,10.27-8.37C345.79,152,350.68,156.85,350.64,166Z"/><path class="cls-31" d="M186.88,142.84c-3.89-.22-5.48-2-4.84-6.09,2.19-14.06,6.6-27.19,15.18-38.76,2.06-2.78,3.77-3.61,6.28-.77,2.11,2.39,7,3.73,2.87,8.33-7.87,8.84-12.37,19.29-14.48,30.85C191.49,139.53,193.91,144.86,186.88,142.84Z"/><path class="cls-32" d="M203.25,189.28c.7-3.74,1.66-7.44,1.33-11.3,1.31-11,2.44-21.94,4-32.86.44-3.05-1-7.26,3.6-8.73,2.8,2.45,6.27,4.42,6.3,8.84q-2.53,22.62-5.09,45.24c-3,2.51-6.23,2-9.53.74A1.54,1.54,0,0,1,203.25,189.28Z"/><path class="cls-33" d="M384.43,219.38A30.48,30.48,0,0,0,383.35,207l1.32-1.39c7-1.9,13.93-.82,20.85.4,2,1.36,2.23,3.51,2.11,5.55-.27,4.56,1.21,7.18,6.26,6.71.82-.07,1.5.64,2.13,1.19,0,.82,0,1.64,0,2.46-6.95,1.09-8.67,7.3-11.87,12.09a4.87,4.87,0,0,1-1.88.43,5,5,0,0,1-2.71-1l-4.78-.09-.67-.55a19,19,0,0,0-9.27-12.64Z"/><path class="cls-34" d="M374.58,205.58c-3.9-.52-7.79,1.32-11.69.09-.63-9.41-1.47-18.8-5.25-27.6-1.73-4-.54-6.42,3.5-7.65,2.78-.85,5.57-1.66,8.36-2.49C373.67,180.14,376.47,192.54,374.58,205.58Z"/><path class="cls-35" d="M291.43,167.79c-8.8,2.17-17.75,1.16-26.65,1.31-2,0-3.73-.34-4.76-2.26,4.47-4.66,8.84-9.43,13.45-13.94,5.69-5.55,11.4-5.07,16.45,1.25a39.09,39.09,0,0,1,2.88,4.8C290.67,161.64,292.67,165,291.43,167.79Z"/><path class="cls-36" d="M297.77,71c-4-.91-7.84,1.77-12.59.45,2.68-3.46,7.23-3.1,9.21-6.52,2.55-4.4-2.77-5.91-2.95-9.22a126,126,0,0,1,13.68-14c2.16,4.49,4.6,8.86,6.42,13.48,4.06,10.32-.72,15.22-9.77,14.52C300.32,69.61,298.81,69.58,297.77,71Z"/><path class="cls-37" d="M469,307.57c-8.51-1-12.52-8.56-18.55-13.09A211.91,211.91,0,0,0,424.66,278c-2.64-1.45-5.76-2.76-8.86-.6-2.9-1.09-2.33-3-1.18-5,9.59-1.16,17.09,4.27,25.12,8,2.84,1.31,5.57,2.85,8.42,4.13,2.37,1.05,4.77,1.33,6.83-.81A45.13,45.13,0,0,1,469,307.57Z"/><path class="cls-38" d="M149.36,68.25a22.65,22.65,0,0,1,1.88,1.63c9.46,10.13,9.64,12.67,1,23.63-3.57,4.51-8,2.6-11.72.34-3.33-2-6-5.07-9-7.67-.28-.92,0-1.83.86-2,5-1.16,7.1-5.3,9.81-9C144.11,72.53,145.17,68.69,149.36,68.25Z"/><path class="cls-39" d="M50,230.62c4.15,11.64-2.66,20.74-7.16,30.3-2.84,6-6.17,11.8-9.27,17.7-4.08-6.5-4.73-12.69-.52-19.81,4.88-8.23,8.49-17.2,12.77-25.79C46.59,231.49,46.81,228.23,50,230.62Z"/><path class="cls-40" d="M285.18,62.13c1.53.15,3.26-.37,5,1.57-3.15,1.1-6.08,1.71-7.66,4.35-1.13,1.9-3.17,3.68-1,6.12,1.49,1.72.63,3-.66,4.3-7,7.25-6.93,8,1.6,14.57-5.46.14-9.1,1.57-6.32,7.49.11.24-.57,1.16-1,1.24s-1.45-.27-1.56-.64c-2.3-7.36-4.46-2.74-6.71,0-.53.65-1.3,1-2.67.31,1.07-3.3,5.45-6.08,2.58-10.36-1.82-2.72-4.6-2.53-7.31-2.65C267.58,79.25,276.19,70.5,285.18,62.13Z"/><path class="cls-41" d="M144.26,146.54l-21.43,22.62c-3.86,2.57-7.32,2.36-10.26-1.48,3.31-5,7.07-9.76,9.83-15.05,3.84-7.39,9.85-8.45,17-7.25C141.07,145.66,142.66,146.15,144.26,146.54Z"/><path class="cls-42" d="M165.8,109c-.41-2.91-2.61-2.87-4.74-2.77-2.75.14-4.48-.68-4.23-3.84s.43-6,4.51-6.24c3.08-.18,6.31.68,9.14-1.28,3.5-.46,7.08-.26,10.51-1.27.94.41,1.89,1.17,2.83,1.16,3.63,0,4.55,2.51,5,5.23.68,3.73-2.92,3.67-4.86,4.37-3.06,1.1-6.54,1-9.3,3.12A59.54,59.54,0,0,0,165.8,109Z"/><path class="cls-43" d="M229.77,45.81a179.79,179.79,0,0,1-23.85-16.36c-2.35-2.71-2.95-5.69-1.41-9,5.21-1,8.35,3.62,12.78,4.7C228.4,27.85,231.79,35.19,229.77,45.81Z"/><path class="cls-44" d="M218.5,145.23c-1.86-3.12-5.22-5.16-6.3-8.84,10.37-.08,20.49,2.37,30.8,3,5.36.32,8,4.67,11.08,8.2C242.11,148.5,230.43,145,218.5,145.23Z"/><path class="cls-45" d="M334.14,125.36a67.68,67.68,0,0,1-6.63,26c-1,2.09-1.89,4.09-5.09,2.44-3-1.56-2.25-3.11-1.24-5.48,3-7,5-14.26,4.32-21.95-.35-3.91-.47-7.14,4.85-7.18C336.07,119.19,332.86,123.76,334.14,125.36Z"/><path class="cls-46" d="M301.65,157.74c-.08-4.57.29-9.21-1.47-13.58-1.15-2.84.8-3.72,2.7-4.63,2.16-1,3.09.52,3.77,2.08a58.47,58.47,0,0,1,4.81,26.13c-.06,1.76-.44,3.61-2.86,2.92s-6.47.88-6.89-3.55C301.41,164,301.65,160.86,301.65,157.74Z"/><path class="cls-47" d="M402.42,233.56a8.2,8.2,0,0,1,1.1-.11c2.92.19,3.31-3.13,5.55-4,1.94-.75,3.13-3.3,5.78-2.4,3.66,5.94,7.29,11.89,9,18.74-4.59-2-9.42-.93-14.16-1.09C403.28,244.63,400.1,239.77,402.42,233.56Z"/><path class="cls-48" d="M241.25,73.63c2.58-2.77,2.34-6.53,3.31-9.84.88-3,2.72-5.32,5.52-4.81,3,.55,3.18,3.38,2.86,6.47-.89,8.77-3.05,17-7.95,24.41-2.69-3.44-2.81-7.55-2.85-11.62C242.12,76.6,242.52,75,241.25,73.63Z"/><path class="cls-49" d="M122.79,204.44l-5-.14c-5.11-7.1-6.31-15-4.48-23.39.3-1.39,1.1-2.67.92-4.17.49-.88,1-1.76,1.48-2.63,6.75.32,8,6.33,10.93,10.58a11.07,11.07,0,0,1-.49,6.61c-5,1.82-6.18,4.95-3.45,9.61A3.22,3.22,0,0,1,122.79,204.44Z"/><path class="cls-50" d="M78.92,234.88l-9.41,25c-2-8.87.91-16.62-1.89-23.9.36-.84.72-1.68,1.09-2.51-1.35-2.56-2-5.19-.95-8,1.37-2.17,3-1.22,4.13,0C74.47,228.39,77.75,230.87,78.92,234.88Z"/><path class="cls-51" d="M406.1,207c-7.17-.11-14.35,0-21.43-1.35,9.15-8.29,19.68-9.45,31.11-6.05C413.62,203.46,410.68,206.31,406.1,207Z"/><path class="cls-52" d="M125.65,184.66c-3.33-3.5-5.08-8.48-9.92-10.55.36-2.84-3.91-3.4-3.16-6.43,3.19,2.09,6.8,1.25,10.26,1.48,4.65,5.26,9.33,10.5,13.92,15.8.81.93,3.52,2.27-.15,3.1C131.86,190.43,128.38,188.74,125.65,184.66Z"/><path class="cls-53" d="M195.83,135.12c2-3.54,6.76-3.8,8.84-7.67,1.29-2.41,3.54-.16,5.36.82,2.47,1.33,1.95,3,.77,4.62-4.12,5.81-8.37,11.53-15,14.83C192.26,143.51,196,139.32,195.83,135.12Z"/><path class="cls-54" d="M204.51,20.44l1.41,9c-5.43,6.41-12.15,11.86-15.16,20.11-2.64-5.62-1.33-11.13,1.87-15.68C196,29,199.56,24,204.51,20.44Z"/><path class="cls-55" d="M406.1,207l9.68-7.4a127.13,127.13,0,0,1,.24,19.9c-10.15.13-10.15.13-10-10.66C406,208.23,406.07,207.61,406.1,207Z"/><path class="cls-56" d="M149.36,68.25c-1.86,2.44-3.83,4.82-5.56,7.35-3.18,4.65-5.86,9.82-12.35,10.58C131,74.41,139.32,66.09,149.36,68.25Z"/><path class="cls-57" d="M165.8,109c2.36-4,5.36-4.38,8.9-1.52A41.14,41.14,0,0,0,172,121.41c-.1,2.72-.71,4.18-3.87,4-3.45-.15-3.46-2.37-3.33-4.7C165,116.82,165.46,112.91,165.8,109Z"/><path class="cls-58" d="M285.08,192.91c1.92-5.74,6.79-9.39,10.08-14.16,1.23-1.77,2.84-2.13,4.9-1a65.59,65.59,0,0,0,6.31,2.73c-.76,1.23-1.52,2.46-2.27,3.7Z"/><path class="cls-59" d="M114.26,176.74a70.24,70.24,0,0,0,3.56,27.56l-7.15.23a44.71,44.71,0,0,1-.63-17.81C111.37,183.36,112,179.72,114.26,176.74Z"/><path class="cls-60" d="M241.25,73.63c4.67,1.62,1.4,5.7,2.58,8.41A19.08,19.08,0,0,1,245,89.86c-3.48,3.12-5.23-.89-7.39-2.1-2.7-1.51-.4-3.66.34-5.42C239.13,79.47,241.22,76.94,241.25,73.63Z"/><path class="cls-61" d="M195.83,135.12c2.93,4.2-1.46,8.39,0,12.6-7.14,1.6-9.47.33-8.93-4.88,5.55.87,3-4.55,5-6.44C193.84,137.94,194.72,136.18,195.83,135.12Z"/><path class="cls-62" d="M414.85,227.07c-4.14,1.49-6,7.08-11.33,6.38.53-1.07,1.39-2.1,1.51-3.21.74-6.72,4.76-8.91,11-8.28A4.36,4.36,0,0,1,414.85,227.07Z"/><path class="cls-63" d="M374.58,205.58c.57-10.56-1.52-20.77-4.29-30.85a26.76,26.76,0,0,1-.79-6.8c5,5.83,5.11,13.21,6.09,20.18.8,5.73.47,11.61.65,17.43Z"/><path class="cls-64" d="M68.84,224.73c0,2.91-.09,5.82-.13,8.73-3.35-3-5.16-7-7.68-10.6-1.16-1.66-1.18-3,.27-4.37l7.4-4.14c1.48,1.81-.08,3.08-.78,4.5C66.51,221.08,69.73,222.59,68.84,224.73Z"/><path class="cls-65" d="M291.43,167.79c-.15-3-5.95-7,1.37-8.84a122.76,122.76,0,0,1,10.3,16.35C298.84,173.38,296.16,169,291.43,167.79Z"/><path class="cls-66" d="M181,93.59c-3.06,4.12-6.69,3.48-10.51,1.27C174.75,88,174.75,88,181,93.59Z"/><path class="cls-67" d="M357.68,208.1c.13.88.27,1.77.4,2.65.7.76.54,1.16-.5,1.19-1.9,2.07,1.34,7.21-2.6,6.88-2.37-.19.47-4.34.62-6.75.13-2.17-.7-4.59,1.16-6.48Z"/><path class="cls-68" d="M141.62,311.65c-5.51-1.41-11-2.7-16.33.66-9,4.71-9,4.71-17.68-4.81-2.41-3.75-.27-6.59,1.87-9.43,5.69-4.37,11.44-8.57,19.3-6.41,4.64,4.69,7.95,10.43,12.17,15.47C142,308.34,142.77,309.94,141.62,311.65Z"/><path class="cls-14" d="M67.47,311.33c-1.85.62-3.46,3.77-5.39,1.82A7.73,7.73,0,0,1,60.24,305c1.76-4.25.42-7.73-1.59-11.28,7.51-7.45,15.78-7.29,24.75-2.81,5.84,2.92,11,6.77,16.48,10.3,3.62.79,6.33,2.47,6.58,6.6-.09,1.69-1.16,2.3-2.67,2.42-2.19,1.36-3.45-.44-4.93-1.46a71.49,71.49,0,0,0-13.2-7.24C74.92,297,69.5,300,67.47,311.33Z"/><path class="cls-69" d="M106.46,307.78l-6.57-6.6c.74-9.52,7.68-14.63,14.25-20,1.29-1.5,2.72-2.58,4.83-1.61l7.63-1.12c2.1-.63,3.28,1,4.78,1.92,2.16,2.86,7.81,2.28,7.48,7.59a4.29,4.29,0,0,1-3,.47c-11-2.54-19,2.42-25.61,10.54a13.58,13.58,0,0,0-2.61,8.55A2.86,2.86,0,0,0,106.46,307.78Z"/><path class="cls-70" d="M91.3,328.9a23.35,23.35,0,0,1-4.35-.07c-3.22-.65-8.78,2.57-8.2-4.72.55-6.85,5.43-11.79,11-11,6.8,1,12.19,5.05,17.93,8.34,3.16,4.14,2.34,6.1-3.06,6.37C100.15,328.06,95.56,326.58,91.3,328.9Z"/><path class="cls-71" d="M67.47,311.33c-2.63-7.83,3.81-14.95,12.12-13.32,7.5,1.47,13.91,5.3,20,9.72,1.33,1,2.38,2.37,4.21,2.47,1.65,3,5.29,4.38,6.52,7.76-4.32-2.85-8.55-5.87-13-8.52-8-4.76-16-7.14-24.12.09C71.7,310.87,69.78,312,67.47,311.33Z"/><path class="cls-72" d="M309.09,485H207.17c-2.29-1.56-7.26.66-7.24-3.17,0-4.48,5-3.61,8-4,20-2.53,40.11-1.58,60.19-1.32,1.86,0,3.72.53,5.57-.07,11.26-.82,22.48.29,33.72.6a10.63,10.63,0,0,1,3.08.45c2.79.94,7.5.44,7.14,4.38-.32,3.47-4.69,2.19-7.42,2.58A3.61,3.61,0,0,0,309.09,485Z"/><path class="cls-73" d="M273.86,477.45c-24.44.45-49-1.39-73.49,3.26,1.25,4,5.22,2,6.8,4.27-20.75.22-41.46,0-63.61-3.4A16.19,16.19,0,0,1,154,477.51c13.72-1.14,27.49-1.08,41.25-1.45,20.82-.56,41.62-1.39,62.46-1.16,5,.06,10,.09,14.89,1.28C273.92,475.68,274.14,476.32,273.86,477.45Z"/><path class="cls-74" d="M273.86,477.45l-1.28-1.27c1.87-2,4.32-1.12,6.53-1.21,21.95-.92,43.84,1.13,65.76,1.62,8.57.19,17.87-.85,26.2,4.21-20.46,4.28-41.21,4.34-62,4.18,2-2.56,6.08.15,8-4.11C302.83,477.62,288.36,477.43,273.86,477.45Z"/><path class="cls-75" d="M203.38,190.26l10,.21,1.29.11c8.14,2.74,15.74,6,16.33,16.29,0,9.38-3.65,17.06-9.81,24.2a149.86,149.86,0,0,1-38.34,32.07c-14.28,8.28-29.22,14.42-46.33,13.47-6.12-.35-11.56-1.53-16.19-5.64-4.42-4.14-8-8.8-9-15-.15-4.33-1.86-8.62-.39-13,1-3,2.24-5.91,5.41-7.36a68.86,68.86,0,0,1,12.74-15c2.75-5.08,7.66-7.7,12.2-10.76.48-.3,1-.57,1.49-.84,2.3-1.32,1.77-3.51,1.69-5.54a20.29,20.29,0,0,1,1-7.35c.54-1.61,1.33-3.2,3.33-3.18a3.27,3.27,0,0,1,3,2.73c1.72,6.78,5.79,5.48,10.45,3.41,4.15-1.85,8.2-4,12.56-5.37,1.94-.13,3.91-.55,5.82.23l15.46-3.17C198.35,188.33,200.87,189.43,203.38,190.26Z"/><path class="cls-76" d="M120.36,271c22.18,9.4,41.87,1.61,61.18-8.84,16.5-8.94,29.79-21.85,41.89-35.76,4.34-5,6-12.6,7.6-19.5,1.87,1.27,1.1,3.26,1.37,5,2.73,3.71,1.19,7.15-.75,10.5-3.42,5.9-5.7,12.08-5.18,19,.41,5.57-2.7,8.31-7.8,8.41-4.8.09-8.15,2.27-11.57,5.28-14.44,12.65-31.46,20.8-49.81,25.44-10.69,2.7-22.07,2.72-31.9-4.44C123.32,274.76,121.38,273.32,120.36,271Z"/><path class="cls-77" d="M125.39,276.08c18.49,7.28,35.86,3.65,53-5,11.22-5.66,22.39-11.25,31.09-20.59,2.39-2.57,5.31-1.95,8.16-2.1,4.76-.26,8-1.76,7.25-7.55-.9-6.73,1.25-12.9,4.88-18.4a16.72,16.72,0,0,0,2.68-10.62l1.16.13c2.86,3.2,1.54,7.09,1.79,10.73-.23,6.32-2.73,12.25-3.18,18.54-2.48,3.3-3.93,7.32-7,10.2-2.07,1.11-4.16.25-6.24.08-8.43,4.76-14.6,11.78-19.78,19.8-15.72,10.33-32.61,16.54-51.8,15.38-6.26-.38-11.59-2.83-17-5.56l-3.74-2.7Z"/><path class="cls-78" d="M44.62,304.8c.83,1,1.81.51,2.84.43,9.45-.78,9.57-.78,11.31,8.47.82,4.35,3.09,5.26,6.88,3.84,3.22-1.21,5.82-1.82,7.18,2.78,1.82,6.21.14,9.47-6.19,8.45a82.07,82.07,0,0,0-26.08.14c-1.89.29-4.25.84-5.78-1.29,1.25.07,2.5.1,3.75.23,3.74.39,5-.5,4.31-4.86C41.92,317,40.75,310.53,44.62,304.8Z"/><path class="cls-79" d="M116.33,235.64c-4.29,6.14-5.47,13.05-5,20.36-.69-7.47-4.77-10.2-12-8.94-1.92.33-4.66.54-3.05-3.16,3.62-8.31,7.14-16.66,11-25.66C111.52,224,111.65,231,116.33,235.64Z"/><path class="cls-80" d="M85.4,274.84c4.57.06,9.21.62,13.67-.84,3.36-1.09,4.45,1.12,5.45,3.57,1.42,3.45-1.72,3.24-3.32,3.86a51.58,51.58,0,0,1-24,3c-2-.21-6.12,1-5.15-3.94.66-3.38.77-6.77,5.86-5.76C80.31,275.23,82.89,274.84,85.4,274.84Z"/><path class="cls-81" d="M66.22,218.19c.53-1.47,3-1.68,2.48-3.84,0-.36,0-.73.06-1.09a24.93,24.93,0,0,1,9.12-7.53c3.85-2,7.61-2,11,1.16.87,1.21,1.75,2.41,2.62,3.61a10,10,0,0,0-3.91,3.86,46.38,46.38,0,0,1-11.43,9.35C72.32,222.77,69.37,220.3,66.22,218.19Z"/><path class="cls-82" d="M142.82,210.62c-.36,0-.72,0-1.09,0-6.23-.59-12-2.93-17.78-5l-1.16-1.19c-.81-1.91-1.68-3.79-2.43-5.73-2.68-6.88-2.66-6.88,5-6.93a3.41,3.41,0,0,1,2.28,1.68c1.89,5.51,4.81,9.37,11.42,10C142.31,203.76,145.48,206.18,142.82,210.62Z"/><path class="cls-83" d="M124,205.63c6.59-.67,12.21,2.09,17.78,5l-12.66,10Q126.51,213.12,124,205.63Z"/><path class="cls-84" d="M66.22,218.19c4.42-.65,6.84,3,10.11,4.74,5.17.15,4.57,4.88,6.21,7.82,0,2.48-2.41,2.76-3.62,4.13-4.33-2.42-5.93-7.56-10.08-10.16C67.31,222.81,63.51,221.81,66.22,218.19Z"/><path class="cls-85" d="M119,279.55l-4.83,1.61c-3.82-9.94-8-19.74-9.48-30.48Z"/><path class="cls-86" d="M82.54,230.75c-2.14-2.55-3.41-5.79-6.21-7.82a29,29,0,0,1,11.22-8.57C86.71,220.08,82.15,224.66,82.54,230.75Z"/><path class="cls-87" d="M347.63,230.78c1-1.8,2-3.6,3.07-5.39.91-1.57,1.45-3.64,3.93-3.32,3.23.42,1.88,3.15,2.44,4.92,2,3.28.8,6.88,1,10.33-1.21,6-2.57,12-7,16.58a7.58,7.58,0,0,1-1.75,1.1,102.51,102.51,0,0,1-41.58,14.8A61.48,61.48,0,0,1,285.39,268c-2.33-.57-5-1.19-5.48-4.35,1.34-1.67,3.29-1.81,5.15-1.73,14.9.62,27.77-5.15,40.11-12.62a37.19,37.19,0,0,1,4.93-2.76c2.71-.86,5.37.31,8.08.24,8.92-.22,12-4.21,9.7-12.9A6.2,6.2,0,0,1,347.63,230.78Z"/><path class="cls-88" d="M326.74,204.38c-.94-3.32-4.23-2.78-6.5-3.69-1.76-.71-1.58-1.31-1-2.51,1.1-1.5,3.51-.82,4.38-3.09,2-5.13,5.8-5.12,11.28-2.53-14.52-5.28-40.7,1.07-48.52,11.46,3.48.16,4.85-2.5,6.78-4,4.42-3.36,8.49-7.34,14.62-7.15-.16,2.39-3.14,6.06-6.11,7.52-8.07,4-8.08,4-3.71,11.32.44.74.95,1.43.43,2.27a1.79,1.79,0,0,1-2.68.6c-4.75-2.59-9.65-5-14.19-7.89-2.58-1.66-1.69-4.17.49-5.67,15-10.37,31-17.08,49.75-13a33.32,33.32,0,0,1,5.77,2.29c3.34,1.44,3.39,3.5.72,5.58-3.76,2.93-7.7,5.64-11.57,8.45Z"/><path class="cls-89" d="M294,222c.43-1.25-1.69-2.92,1.31-3.85,8.19-2.52,8.67-4,4.43-11.5,6.35,2.87,8.67-.83,9.45-6,3.57,1.79-.33,4.51,2.39,5.84,2.06.15,3-2.72,5.64-2.26.54,3.17-3.86,3.22-4.15,5.83-.49,4.38,3.05,3.4,5.44,3.92.92,2.87-5,3.37-2.26,6.75,1.22,1.52,2.88,1.63,10.74.5-.33,2.82-3.87,2.16-4.65,4.39-.09,2.54,5,.39,3.56,3.63-.88,2-3.17.62-4.47,0-5.12-2.24-2.34,3.9-5.44,4.29-2.16-.78-1.67-5.48-5.46-5.14C306.54,222.31,301.18,219.79,294,222Z"/><path class="cls-90" d="M343,228.08l3.84,2.69c.67,1.4-.12,2.22-1.15,3a3.75,3.75,0,0,1-1.76.08c-2.9-1.54-4.95-.53-6.94,1.87-3.88,4.66-8.85,8.1-13.89,11.36-1.71,1.11-3.74,3.13-5.85.35-1.2-5.16,1.31-8.26,5.71-10.35a38.61,38.61,0,0,0,7-3.95c2.44-1.87,4.06-4.22,1.8-7.37a10.58,10.58,0,0,1-2.59-8.82c-.48-1.39.21-2.08,1.45-2.44,3.31-3.9,8.31-4.13,12.66-5.76,2.31-.87,3.27,1.19,4.59,2.36,1.92,1.72-.81,2.29-.92,3.51a4.35,4.35,0,0,1-1.6,6c-2.18,1-3.39-1.75-4.77-3.22s-2.74-3.82-5.06-1.72-1.59,4.56.23,6.7C337.78,224.73,341.61,224.85,343,228.08Z"/><path class="cls-91" d="M261.15,216.8c1.3-1.67,2.6-3.33,3.89-5,0,1.67.12,3.34,0,5-.13,3.53,1.59,4.67,4.66,3.33,3.62-1.58,6.43-.08,9.28,1.78,1.92-.35,2.7.77,3.1,2.4a3.18,3.18,0,0,1-.53,1.69,3.53,3.53,0,0,1-1.69.58,5.14,5.14,0,0,1-1.73-.4c-1.56-.83-3.07-1.34-4.39.45-2.23,3-4.4,6.1-4.58,10-.1,2.24-.77,4.85,1.29,6.43,2.3,1.77,4.24-.36,6.21-1.34a6.18,6.18,0,0,1,1.7-.61,4.37,4.37,0,0,1,2.66.42,1.78,1.78,0,0,1,.69,1.54c-.58,3.16-4.28,3.67-5.64,6.57a13.43,13.43,0,0,0,8,2.81c2.11,0,4.39,0,4.07,3.18a3,3,0,0,1-1.34,1.27c-6,1.54-10.89-1.2-15.76-4-2-1.12-3.59-2.8-5.76-3.61-4.14-2-5.26-5.08-3.49-9.27,2.29.22,2.4.19,1.84-2-.89-3.45.54-6.69.93-10.85-.56,2,.24,3.92-2.17,3.7C259,226.53,261.23,221.56,261.15,216.8Z"/><path class="cls-92" d="M331.77,225.72c1.43,1.08,4.82,2.33,4,3.07-2.26,2.13-3.19,5.5-6.25,6.8-1.92.81-3.81,1.66-5.76,2.38-4.29,1.57-5.63,5-6,9.15,1,5.35-2.69,6.61-6.66,7.17-4.25.6-6-1.8-5.72-5.85a11.88,11.88,0,0,1,.38-1.67c.23-3.87-1.88-7.77.12-11.62l.65-.57c.83,0,1.93-.33,2.44.08,3.94,3.19,6.63,5.16,12.49,1.13C325.85,232.82,329.34,230.12,331.77,225.72Z"/><path class="cls-93" d="M307.81,192.91c-6.32,2-11.31,6.1-16,10.6-1.79,1.71-3.39,3.89-6.4,3.08a2.08,2.08,0,0,1-1.43-2.46c.22-3,2.63-4.07,4.8-5.3,11.5-6.49,23.56-10.72,37-9.62a22.52,22.52,0,0,1,11.89,4c-2.49,1.32-3.78-.68-5.43-1.06-3.17-.73-6.27-.65-7.1,3-.87,3.87-3.26,3.35-5.9,3-1-.15-2.07-.3-2.61-1.39,1.1-1,1.83-2.24,2.84-3.28-1.22.86-1.72,2.33-2.82,3.3-2-.59-1.77-.75-3.56-3.67C311.83,191.06,309.67,191.29,307.81,192.91Z"/><path class="cls-94" d="M294,222c7.65-4.87,13.2-2.72,16.53,6.41.63,3.29-1.67,4.73-3.91,6.2v0c-2.27,2-5.09,1.45-7.76,1.65-1.6.12-3.8-.45-4.34,1.54-.62,2.3,1.15,3.85,3,5,2.19,1.43,4.84,1.16,7.22,1.88,1.2.36,2.41.85,2.1,2.53l-.1,0c-4.8,4.9-9.46,2.28-14.12-.25a17.11,17.11,0,0,1-3.56-5c-2.36-6-2.74-11.86,1-17.49.51-.45,1-.87,1.59-1.27Z"/><path class="cls-95" d="M343,228.08c-2.44-1.18-4.9-2.33-7.32-3.55-3.13-1.56-3.6-4.46-3.13-7.42.34-2.13,1.94-3.57,4-4.47,2.83-1.24,3,1.54,4.11,2.68,1.44,1.45,2.63,3.15,4,4.81,2-1.48,2.17-3.52,2.31-5.56C349.81,220.3,344.44,223.61,343,228.08Z"/><path class="cls-96" d="M356.63,238.39q.22-5.7.44-11.4c1.81-5,.84-10,.52-15.05.16-.4.33-.79.49-1.19.43.67,1.3,1.39,1.23,2-.56,4.49.94,7.35,6.89,7.36-11.88,5.12-5.12,14.44-6.54,21.52-.67,3.32.29,3.52,6.59,4.91-1.79,2.82-4.46,1.54-6.74,1.72C353.82,246.35,356.83,241.9,356.63,238.39Z"/><path class="cls-97" d="M345.57,233.39l1.26-2.62h.81c3,3.89,4.29,8.05,1.6,12.62s-7.25,5.07-11.9,4.95a53.08,53.08,0,0,1-6.7-1c-1.52-.62-2.62-1.88-1.6-3.27,1.58-2.15,3.68-.33,5.56-.09a17.63,17.63,0,0,0,3.07.29C344.82,244.15,346.29,242.12,345.57,233.39Z"/><path class="cls-98" d="M291.62,223.28c-.1.36-.21.73-.33,1.08-3.25,2.35-6.52,2.62-9.82.09L279,221.91C283.42,220.64,287.51,222,291.62,223.28Z"/><path class="cls-99" d="M330.63,214.46c-.48.82-1,1.63-1.45,2.44-2.77.25-5.17,2.39-9.39,1.6C323.9,216.31,326.18,212.77,330.63,214.46Z"/><path class="cls-88" d="M326.71,204.35A39.89,39.89,0,0,1,316.57,211c3.11-4.47,5.51-7.37,10.17-6.6Z"/><path class="cls-100" d="M355.6,282.31c3.51-2.74,7.43-5,10.14-8.69,1.76-2.13,2.79-5.18,6.31-5.17,8.21-6.77,16.47-13.48,24.62-20.33,2-1.66,4-3.18,5.53-.14,2.28,4.6,6.05,8.57,6.41,14,.61,1,2.14,1.6,1.11,3.14-3.63,1.66-7,4-11,4.79a17.24,17.24,0,0,0-8.89,2.66c-8.9,5.45-18.85,9-27.24,15.33.16,4,3.07,2.46,5.05,2.37,2.39-.12,4.83-.34,5.91,2.29s-1.13,3.78-2.76,5c-2.56,1.95-2.62,3.48.35,5.07,1.94,1,3.56,2.57,2.28,5a4.2,4.2,0,0,1-5.41,2c-4.93-1.9-7-.12-7.44,4.79a3.16,3.16,0,0,1-2.72,3.05c-1.79.19-2.36-1.44-3.1-2.67-4.91-8.19-6.75-8.55-13.06-1.7-2.83,3.08-5.51,5-9.74,3.23a2.56,2.56,0,0,0-2.83.85c-2.91,3.16-2.64,8.6-7.46,10.37L303,327.65c-1.05-2.79,1.55-3.46,2.89-4.73,7.53-7.12,15.74-13.42,23.76-20,6.76-6.69,14.65-12.07,21.51-18.65A6.21,6.21,0,0,1,355.6,282.31Z"/><path class="cls-101" d="M382.14,327.74l-36.5-.05c-2.78-4.11-1.59-8.9-2.18-13.37a3.26,3.26,0,0,1,2.45-3.31c1.62-.6,2.84.22,3.9,1.32a12.6,12.6,0,0,1,1.92,3.22c3.26,6.36,6.64,6.75,11,1a11.46,11.46,0,0,1,6.52-4.42c6.34-1.78,7.94-4.37,6.35-10.52a8.06,8.06,0,0,1,1.18-7.1c1.09-6.8,7-8,12-10.23a4.27,4.27,0,0,1,5.52,1.76c1.74,3,4.4,5.09,6.71,7.53C399,307.34,392.88,318.81,382.14,327.74Z"/><path class="cls-102" d="M265.14,327.63l-55.53.05c-.55-1.43.18-2.55.89-3.67,7.55-10.1,15.84-18.77,29.67-19.86,11.35-.89,23.13,6.63,25.87,17.55C266.57,323.81,266.68,325.84,265.14,327.63Z"/><path class="cls-103" d="M330.27,303.72,303,327.65l-25.42,0c-4.57-1.92-7.43-5.11-7.61-10.27,3.71-2.3,7.27.22,10.91.38,1.83.08,4,.87,5-1.25.91-1.78-.59-3.15-1.56-4.45a91.73,91.73,0,0,1-8.58-14.52c-.14-2.75-.57-5.47-.73-8.23,1.18-5.76,1.35-11.8,4.68-17,2.77-1.1,4.49.38,6,2.43.94,4.67-1.7,8.87-1.56,13.57.42,13.45,10.79,22.56,24.2,20.51,3.1-.47,6.28-.12,9.32-1.14,2.24-.75,4.41-1.47,5.15-4.07a5.21,5.21,0,0,1,1.2-1.56A4.6,4.6,0,0,1,330.27,303.72Z"/><path class="cls-104" d="M378.39,295c-1.25,2-2.71,3.41-1,6.55,3.05,5.46-.77,11.52-7.24,12.25-3,.34-4.89.83-6.09,4.09s-4.57,4.82-8.19,4.73c-4-.11-4.95-2.92-5.61-6.32-.36-1.83-1.07-4.86-3.67-4.29-3.35.74-1.55,3.47-1.3,5.67.38,3.32.24,6.69.32,10H328c-2.5-3.77.43-7.55,0-11.33,1-1.86,2.72-3.42,4.48-1.9,3.61,3.09,5.43,1.15,7.43-1.73A19.33,19.33,0,0,1,343,309.6c5.65-5.08,9.68-4.23,12.43,2.64.61,1.53.69,3.28,2.18,4.43,2.3-.57,1.79-2.48,1.86-4,.23-5,1.72-7.93,7.27-4.69a6.31,6.31,0,0,0,2.37.74c1.55.17,3.11-.19,3.62-1.8.58-1.82-.8-2.59-2.3-3.06-5.2-1.63-6.6-3.67-1.08-7.1,1.32-.83,4.24-1.43,3.2-3.86-1.15-2.67-3.47-1-5.47-.71-3.48.47-7.26.79-6.4-4.79a79.16,79.16,0,0,0,7.89-1.7C377.52,283.49,379.72,285.57,378.39,295Z"/><path class="cls-105" d="M196.06,327.67l-9.05,0c-2.44-1.18-3.46-3.52-4.71-5.7a24.08,24.08,0,0,0-11.68-10.09c-3.94-1.73-7.43-1.8-11.11,1.12-4.71,3.75-7.33,2.95-11.17-2.46a5.46,5.46,0,0,1,.11-2.75c4-4.69,2.32-8.43-1.42-12.51-1.86-2-6.68-2.69-4.6-7.32a39.44,39.44,0,0,1,15.9,3.45c4.14,8.31,13.14,6.66,19.87,9.67a40,40,0,0,1,13.51,9.58c2.28,2.35,4.48,4.75,5.38,8C197.59,321.77,198.08,324.86,196.06,327.67Z"/><path class="cls-106" d="M382.14,327.74c6.76-8.55,12.89-17.46,16.47-27.91a17,17,0,0,0,1.13-6.1c1.29-1.43.05-2.82-.09-4.22a11.11,11.11,0,0,1,.31-3.68c2.22-6-1.52-11.48-1.5-17.29,4.11-.17,6.7-4.81,11.2-3.81,4.95,8.24,3.29,17.11,2.41,25.88a24.73,24.73,0,0,1-1.63,6c-2.24,9.19-6.88,17.29-11.68,25.32a17.87,17.87,0,0,1-6.34,5.82Z"/><path class="cls-107" d="M416.15,281.13c10.51.94,16.7,8.67,23.11,15.48,5.2,5.53,9.13,12.25,13.71,18.37,2.84,3.79,1.65,9,4.63,12.7H440c-3-2.11-3.91-5.24-4.49-8.63a69.73,69.73,0,0,0-5.77-18.48,26.34,26.34,0,0,0-14.46-13.79C414.52,284.74,414.38,282.78,416.15,281.13Z"/><path class="cls-108" d="M416.23,287.42c5.42-1.7,8.18,2.14,10.69,5.6a51.41,51.41,0,0,1,9.39,22.28A41,41,0,0,0,440,327.69c-11.18.07-22.34,2.15-33.54.4,3-3.43,7-1.55,10.5-2.08,1.44-.22,3.74,1.09,4-1.58,1-10.51,2.3-21.14-5.21-30.21a5.76,5.76,0,0,1-.87-1.9C414.59,290.48,414.6,288.72,416.23,287.42Z"/><path class="cls-109" d="M416.28,293.76c3.66.38,4.81,3.14,5.32,6.09,1.48,8.58,2.72,17.17,1.13,25.95-.45,2.52-2,1.69-3.17,1.76-4.37.27-8.75.37-13.12.53H405c-1.69-1.5-1-3.21.06-4.44,6.23-7.15,7.44-16.09,9.16-24.87C414.57,297,414.49,295,416.28,293.76Z"/><path class="cls-110" d="M416.28,293.76c-1.38,11.23-2.13,22.65-10.7,31.45-.58.6-.41,1.91-.59,2.89-4.24,1.37-8.39-.08-12.57-.38a93.62,93.62,0,0,0,16.27-30.11c2.52-1.63,2.47-6.79,7.27-5.28C416.07,292.81,416.17,293.29,416.28,293.76Z"/><path class="cls-111" d="M265.14,327.63c-.2-9.28-4.67-16.22-12.89-19.8-10.41-4.52-20.54-2.41-29.18,4.75-4.44,3.68-8,8.39-12,12.63-3.45-.77-1.92-2.95-1-4.42,3.47-5.37,6.86-10.9,13.11-13.64,7.13-3.71,14.27-7.39,22.75-5.82,8.61,2,9.58,1.09,8.2-7.59a45.33,45.33,0,0,0-3.68-13.18c-.9-1.84-2-3.75-.57-5.87,3.24-.3,4.15,2.32,5.27,4.43,4.1,7.74,7.12,15.86,7.83,24.69a28.57,28.57,0,0,0,1.33,6.68c1.11,3.49,3.19,6.6,4.08,10.17.6,2.41,1.08,4.8-.72,7Z"/><path class="cls-112" d="M223.46,308.74c-6.57,2.81-9.28,9.18-13.19,14.43-.55.74,0,1.56.77,2l-1.43,2.47H196.06c-.07-3.35-.15-6.7-.22-10-.92-2.15-1.72-4.3-1-6.68a2.74,2.74,0,0,1,1.28-1.28c6.82,4.15,6.8,4.13,13.47-2.25,2.09-2,3.79-4.47,6.64-5.57C220.13,302.62,222.82,304.61,223.46,308.74Z"/><path class="cls-113" d="M149.17,310.09c3.16,4.48,6.26,5.6,10.33.69,2.81-3.39,6.81-2.26,10.42-1,8.75,3,13.77,9.66,17.09,17.89l-7.23.08c-3.62-2.36-6.1-6.06-9.95-8.22-5.23-2.93-10.31-4.11-15.46,0-3.6.45-5.88-1.53-7.76-4.23l.22-.29C145.44,312.34,146.14,310.66,149.17,310.09Z"/><path class="cls-114" d="M154,319.25c2.11-4.5,6-5.11,10.06-3.87,6.72,2.06,12.67,5.43,15.68,12.35-5.82.27-11.64.67-17.45-.28C158.26,326,155.12,323.68,154,319.25Z"/><path class="cls-115" d="M156.79,327.67c-7.53,0-15.07.17-22.6,0-2.05-.05-4.94,1.53-6.06-1.48-.93-2.53,1.13-4.26,2.74-5.9a15.72,15.72,0,0,1,2-1.47c7.09-1.47,13.85-.79,20,3.27C154.91,323.42,157.38,324.51,156.79,327.67Z"/><path class="cls-116" d="M149.17,310.09a7.14,7.14,0,0,0-2.34,4.92l-5.21-3.36c-2.85-7.15-9.82-11.56-12.49-18.82,8.92-2.55,18.8,4.67,20.12,14.69Z"/><path class="cls-117" d="M156.79,327.67c-6.37-7.28-14.72-9.19-23.91-8.84,4.18-2.73,9.81.19,13.73-3.53,3,.27,4.65,3.21,7.43,3.95l8.29,8.2Z"/><path class="cls-118" d="M267.67,327.62c.42-6.11-2.52-11.16-5.14-16.32,5.14-1.05,6.91,2,7.7,6.28,2.13,3.6,4.29,7.19,7.39,10.09C274.3,328,271,328.37,267.67,327.62Z"/><path class="cls-119" d="M328,316.35c3.28,3.78-.27,7.55,0,11.33l-6.32,0C325,324.58,324.82,319.55,328,316.35Z"/><path class="cls-120" d="M248.69,122.58c-3.87-.83-3.13-4.36-2.19-6,4.55-7.76,9-15.66,15.17-23.4,1.47,4.85-3.53,8.07-1.19,11.58,2.55,3.85,6.51-.2,9.8,1,6.61,2.46,8,1.67,9.91-5,.43-1.52,1-2.79,2.57-3.21,3.38-.9,4.61-3.44,4.82-6.52.23-3.5-3-3.43-5.09-4.54a18.73,18.73,0,0,1-2.31-1.84c3.1-1.92,6.05-.79,8.77-1.13,4,1.87,8.29,1.92,12.51,2.56,4.6.69,5.81,3.31,3.51,7.31-2,3.38-3.41,7.18-7.28,9-1-.27-.83-2.41-1-1.9-1.34,3.35-7-1.52-6.83,3.66.14,3.35-1.46,4.48-4.22,5.81-3.78,1.83-6.49,5.5-10.78,6.74-.9.26-.3,1.37.34,2-3.61,3.31-8,3.92-12.66,3.83-2.52-5.51-6.68-6.23-11.86-3.86.24,1.35,2.58,1.89,1.88,3.83Z"/><path class="cls-121" d="M275.16,118.72c-1.9,0-5.06-.52-1.56-2.42,4.38-2.37,7.38-6.83,12.61-7.85,2.44-.47,3.48-2.15,1.69-4.58-2.22-3,1.29-5.18,2.12-4.48,4.63,3.9,6.3-1.78,9.91-2.43-.8,2-1.52,3.74-2.24,5.5C290.79,108.72,284.08,115.25,275.16,118.72Z"/><path class="cls-122" d="M252.52,122.52c-1.26-1-2.57-2-3.76-3.13-.76-.7-1.43-1.63-.73-2.72s1.53-.87,2.4.07a1.92,1.92,0,0,0,2.79.22c6.47-6.85,6.48,4.7,10.83,3.75-.51.62-1,1.23-1.55,1.84Z"/><path class="cls-18" d="M302.38,75.73c2.1-.39,4.29-.51,4,2.26s-2.35,4.35-5.23,4.19c-1.81-.1-3.46-1.05-2.77-3.16C299,77.24,298.58,73.57,302.38,75.73Z"/><path class="cls-123" d="M372,253.54c-3.41-3.4-3.29-6.71.28-9.93.5-1.68.65-3.47,1.6-5a55.55,55.55,0,0,0,5.19-9.9c1.09-2.62,2.07-5.57,5.57-6.1,8.38,1.31,8.68,1.75,6.48,9.4a59.38,59.38,0,0,1-7.91,14c-1,1.17-2.49,1.52-3.73,2.29l-2.63,2.43C376,252.91,374.57,254.19,372,253.54Z"/><path class="cls-124" d="M416,292.33c-3.7,0-3.59,5.25-7.27,5.28,2.6-10.89,3.83-21.83,1-32.88l-1.05-2.7c4.91,1.76,3.33,7.3,6,10.36.33,1.69-.25,3.59,1.18,5,.11,1.24.23,2.48.35,3.72q0,3.14.08,6.29Z"/><path class="cls-125" d="M372,253.54l4.85-2.84c0,6.35-3,11.89-4.82,17.75l-6.31,5.17c2.06-5,4-10,6.24-14.88C372.81,256.9,373.3,255.29,372,253.54Z"/><path class="cls-126" d="M402.42,233.56c-.44,5.61,2.06,9.29,7.32,11.16,2.2,2.31,5.3.31,9,2.25a13.21,13.21,0,0,1-11,.44c-6.79-2.34-8.15-7.75-8.23-14Z"/><path class="cls-127" d="M379.5,248.27l2.5-2.41c6.09-2.12,7.84-7.63,10-12.83a2.46,2.46,0,0,1,2.67,0l.12.36C394.26,244.79,390.48,248.48,379.5,248.27Z"/><path class="cls-128" d="M330.27,303.72l-6.06-1.18a1.25,1.25,0,0,1-1.76-.24c-1.87-3.38-.85-7.16-1.48-10.72a3.75,3.75,0,0,1,.41-1.83c5.82-3.33,6.72-3,11.55,4.07,13.46-8.14,20.48-23.85,17.34-38.76a2.39,2.39,0,0,1,.27-1.79,77.71,77.71,0,0,0,6.1-14.88c.34,3.47-.21,7.2,2.87,9.87,2.64,9.16,0,17.82-2.56,26.46-.75,2.5-2.58,4.76-1.35,7.59Z"/><path class="cls-129" d="M374.57,239.81l-2.27,3.8a33.76,33.76,0,0,1-1.44-14.1c.87-6.19,5.86-9.79,13.58-10.13l.35.13a2.35,2.35,0,0,1,0,2.67c-7.05,2.06-10.59,6.51-9.71,14.08A4.75,4.75,0,0,1,374.57,239.81Z"/><path class="cls-130" d="M334.49,245.68c-1.69,0-3-2.13-4.78-1-.19.13.6,1.72.93,2.63-14.93,11.27-31.51,17.4-50.44,16.29-6.5,2.38-11.39-2.06-16.89-4-5.87-4.65-9.82-10.36-10-18.14,0-4.11-.24-8.23.39-12.33,1.56-4.34,2.49-9,6.34-12.18l1.14-.24c3.16,4.41-.28,9.55,1.55,14.11a8.66,8.66,0,0,1,.06,8.55c-.36,3.58-1.22,7.35,3.59,8.82,5.9,6,12.43,10.14,21.36,7.63l0,.05c2.35-3.13,2.12-7.59,5.32-10.29,4.35,2.39,8.81,3.84,13.71,1.61,0,2.47-.62,6.06,2.82,5.73,2.41-.24,7.43.82,6.93-4.76,0-.33.91-.75,1.4-1.13,8.17-1.8,13.93-7.37,18.77-13.48,3.31-4.18,5.12-3.4,7.78-.13C344.65,240.46,338.67,242.33,334.49,245.68Z"/><path class="cls-131" d="M239.75,208.14c-1.61-4,2.06-5.2,4.06-6.66a67.61,67.61,0,0,0,13.73-13.4c3.65-3,5.74-7.13,7.25-11.36,1.57-4.38,3.8-4.09,7.11-2.38s6.91,2.77,3.33,7.42c-1.25,1.62-2.28,3.41-3.41,5.12-3.38,2.77-5.11,6.87-8.08,10a23.43,23.43,0,0,0-6.13,6.07c-2.77,4-6.77,6.65-10.84,9.08C242.17,214.74,240.83,213.92,239.75,208.14Z"/><path class="cls-132" d="M239.75,208.14c1.53,4.92,3.93,4.46,7.7,1.9,3.41-2.33,5.92-6,10.16-7.11L260,217l-4.95,11.29a3.82,3.82,0,0,1-2.64-1.52c-4.29-5.6-9.5-7.1-15.89-3.75a3.35,3.35,0,0,1-3,.37q0-5.73,0-11.46C234.25,208.47,237.48,209.08,239.75,208.14Z"/><path class="cls-132" d="M263.74,196.85c1.89-4,3.89-7.85,8.07-10C269.79,190.74,267.69,194.55,263.74,196.85Z"/><path class="cls-133" d="M180.61,194c-1.68,0-3.21,2.29-5,.35-.92-1.06-.73-2.3-.6-3.54.88-8.31-3-13.79-10.2-17.41-2.35-1.2-5.17-1.69-6.64-4.27-.17-3.47-3.34-5.53-4.06-8.74,13.13-.84,21.81,6.1,28.54,16.39,1.85,2.83,2.45,5.4-.52,8.25C179.64,187.34,178.29,190.5,180.61,194Z"/><path class="cls-134" d="M203.38,190.26l-7.31.52c-1-.27-2.59-.32-2.75-.83-.54-1.75,1.13-1.79,2.21-1.86,2.64-.16,5.34-.42,7.72,1.19A5.37,5.37,0,0,1,203.38,190.26Z"/><path class="cls-135" d="M158.14,169.08c5,1.54,10,3.32,13.64,7.29,4.81,5.19,6.34,11.15,3.8,17.93-5.59,3.79-12.05,5.68-18.16,8.34-2.7,1.18-4.73.19-5.77-2.92-.69-2.06-.58-4.65-3.22-6.18a12.81,12.81,0,0,0-2.22,11c.67,3.1.15,5.4-3.39,6.1.57-3.94-1.33-6.35-5.09-6.14-8.26.46-10.07-5-11.26-11.31,2.09-5.07,6.46-3.11,9.85-2.73,4.33.48,7.17-.28,7.91-5Z"/><path class="cls-136" d="M144.23,185.46c2.53,5.62-.11,6.52-5.2,6.46-4.16-.06-8.64-1.61-12.56,1.25l-1.11-1.39c.1-2.37.19-4.75.29-7.12,3.26,2.39,7,3.15,10.95,3.4C140.62,191.52,141.75,186.51,144.23,185.46Z"/><path class="cls-137" d="M88.84,206.89c-8.64-4-13.57,3.66-20.08,6.37,0-5.43.12-10.86-.08-16.29-.14-3.59.79-5.42,4.85-5.26,6.25.26,12.53.12,18.8,0,3.37,0,5,1.14,3,4.45C93.23,199.79,93.92,205.12,88.84,206.89Z"/><path class="cls-138" d="M384.56,222c.08-.82.15-1.65.23-2.47,6.67,2,10.07,6.43,9.85,13.48l-2.35.22a2.74,2.74,0,0,1-2.59-1c2-6.39,2-6.39-5.1-8.71C383.92,223,383.9,222.49,384.56,222Z"/><path class="cls-139" d="M149.25,307.52c-3.82-8.84-10.43-13.87-20.12-14.69-7.44-1.49-13.12,2.48-18.91,6.12,3.79-9.38,13.81-14.54,24.23-12.5,1.61.32,3.23.61,4.84.91,1.37-.75,2.32-.64,2.45,1.18,3,2.88,6.26,5.53,8.92,8.69C153.74,300.9,154.51,304.76,149.25,307.52Z"/><path class="cls-140" d="M141.74,288.54l-2.45-1.18-8.95-6.22c5.82,1.19,11.29,3.46,17.39,3.92,19.33,1.48,35.68-6.45,51.87-15.25,3.23,1,4.9,3.13,4.68,6.59-5.65,7.8-14.3,10.74-22.76,14-5.27,2-10.82,2.62-16.32,3.51a8.92,8.92,0,0,1-7.08-1.45Z"/><path class="cls-141" d="M88.65,327.63c-1.87,0-3.74,0-5.61,0-1.23,0-2.65,0-2.94-1.6a3.39,3.39,0,0,1,.31-2.37c1-1.39,2.26-.35,3.29.14,1.82.87,3.55,1.9,5.32,2.87Z"/><path class="cls-142" d="M189.37,234.62c-4.75,18.79-31.64,33.81-49.93,27.87-10.13-3.28-14.55-11.85-11.43-22.27a24.7,24.7,0,0,1,5-9.32c3.11-.05,3.35,2.68,4.27,4.59,2.54,5.24,4.63,10.67,7.24,16.06.6-7.5.46-15,.5-22.47,0-3.32-.25-6.68,1.56-9.72,10.7-6.12,21.79-9.34,34-4.62,1.89,4.19-.93,7.6-2.06,11.19-1.74,5.55-4.28,10.84-5.69,15.61.65-1.44,1.19-3.89,2.21-6.1,1.26-2.74,4.18-2.44,6.65-2.43C184.31,233,187.18,232.33,189.37,234.62Z"/><path class="cls-143" d="M146.6,219.36v37.11l-1.64.36c-5-8.16-6.74-17.89-11.93-25.93C136.41,225.7,141.33,222.33,146.6,219.36Z"/><path class="cls-144" d="M189.37,234.62h-.62c-11.71-.17-11.7-.16-15.83,11.31-.35,1-.85,1.92-3.52,2l11.16-33.21,1.43,1.09c2.16,2.78.6,5.51,0,8.32-.42,2-2.73,4.52.56,5.88,2.66,1.1,4.88,0,5.89-2.91a3,3,0,0,1,1.15-1.43C191.64,228.72,191,231.68,189.37,234.62Z"/><path class="cls-145" d="M189.59,225.69c-.24,5.8-4.49,8.49-9.68,6.2-2.35-1-1.23-2.57-.87-4.12.93-4,3.39-7.62,3-11.94C187,217.21,188.38,221.38,189.59,225.69Z"/><path class="cls-146" d="M203.6,275.94c-.29-2.73-2.92-3.92-4-6.13-.18-.59-.69-1.48-.47-1.72,5.88-6.69,11.19-14,19.31-18.33,4.63,5.36,10.87,9.61,12.05,17.38-5.12,7.18-12,12.43-19.23,17.24-2,0-3.31-1.16-4.5-2.54C205.52,280,204.08,278.21,203.6,275.94Z"/><path class="cls-147" d="M229.82,267.29c-1.42-5.75-6.53-9-9.42-13.74-.75-1.24-1.9-2.22-2-3.79l6.14,1.2a10.13,10.13,0,0,1,6.68,1.67c4.41,3,6.69,8,10.61,11.43,1,1.19,2.25,2.25,2.06,4.05a3.35,3.35,0,0,1-2.38,1.61C237.54,269.36,233.37,269.8,229.82,267.29Z"/><path class="cls-148" d="M233.55,223.43c6.61-5.81,16-5.73,21.5,4.9q-.21,6.9-.44,13.8c-1.56,2-3,4.22-6.12,2.57-.69-4,2.48-7.28,2.29-11.21-.53-5.13-2.06-9.41-8.25-9.73-6.61,2.72-8.1,6.05-6.4,14.37.45,2.38,2,4.05,3.62,5.69,1.37,1.35,2.77,3-.16,4.31-4.7.24-7.44-2.08-8.54-6.54C230.09,235.29,233.58,229.6,233.55,223.43Z"/><path class="cls-149" d="M231.05,241.59c2.89,1.95,4.47,5.95,8.81,5.62a1.25,1.25,0,0,1,.07,1.54c-3,1.48-5.22,4.45-8.87,4.72L224.58,251C226.93,248,226.85,243.31,231.05,241.59Z"/><path class="cls-150" d="M263.69,258.53c5.52,1.63,10.63,4.63,16.51,5.12,8.24,5.06,17.42,5.59,26.54,4.52,14.18-1.65,27.75-5.55,39.72-13.82a10,10,0,0,1,3-.88c.46,6.21-5.36,8.18-8.18,12.19-4.84,4.72-10.62,8-16.66,10.87-2.12.76-4.24,1.53-6.4,2.17a54.33,54.33,0,0,1-17.27,1.61c-3.27-.18-6.43-1.09-9.63-1.68a20.64,20.64,0,0,1-3.51-1.25c-1.22-.43-1.81-1.55-2.62-2.42l-5-2.3C272.53,270.41,266.56,266.27,263.69,258.53Z"/><path class="cls-151" d="M319.13,277.34l5.1-2.4c2.55,1.12,3.46,3.47,4.18,5.87,1.18,3.93,2.94,3.31,5,.75,2.77-3.39,5.5-6.79,5.58-11.5a8.36,8.36,0,0,1,1.55-5.27c2.53-4.1,7.18-6.54,8.84-11.32.38-.06.75-.12,1.12-.2,3.49,3.86,3.11,8.55,2.25,13a45.48,45.48,0,0,1-18.25,29.15c-2,1.47-3.5,2-3.89-.91-.81-6.06-4.29-6.31-8.94-4.55C318.15,286.31,316.87,282.18,319.13,277.34Z"/><path class="cls-152" d="M334.49,245.68c2.42-4.77,8.21-6.81,9.9-12.18l1.18-.11c4.17,6.57,1.57,12-6.06,12.46A47,47,0,0,1,334.49,245.68Z"/><path class="cls-153" d="M277.73,242.15c-2,2.65-4.8,4.55-8,3.22s-2-5-2.22-7.78c-.41-5.7,3.29-9.73,6.26-13.75,1.83-2.48,3.72.34,5.13,1.93C279.69,231.32,276.22,236.55,277.73,242.15Z"/><path class="cls-154" d="M293,245.67c-.78,4-1,8.18-5.32,10.29-.08-1.73-.74-2.94-2.69-2.27-1.43.49-2.77,1-4.15,0-2.35-1.6-6.64-1.1-7.09-4.27-.3-2.16,3.51-2.92,5.27-4.55.9-.85,1.67-1.84,2.5-2.77,2.9-.73,5.78,0,8.68,0Q291.58,243.93,293,245.67Z"/><path class="cls-13" d="M290.18,242.17c-2.91,2.29-5.8,2.08-8.68,0l-.4-.11c.31-5.43,1.94-10.84.37-16.31q0-.63,0-1.26l9.83-.08C288,230.12,288.24,236.09,290.18,242.17Z"/><path class="cls-155" d="M277.73,242.15c-4.78-5.83-.36-11,1.18-16.38h1.21c3.64,6.44,3.33,10.66-1.21,16.34C278.52,242.11,278.12,242.13,277.73,242.15Z"/><path class="cls-154" d="M287.71,255.91c-2.31,4.83-6,1.44-8.81,1.12-6.21-.7-11.17-4.59-12.55-8.74C273,252.12,279.22,257.21,287.71,255.91Z"/><path class="cls-156" d="M278.91,242.11a23.06,23.06,0,0,0,1.21-16.34l1.35-.06c4.66,5.54,2.51,10.93-.37,16.31Z"/><path class="cls-157" d="M262.76,239.46l-.06-8.55,2-4.59V242C263.22,241.89,263.88,239.92,262.76,239.46Z"/><path class="cls-158" d="M306.79,247.24c-1.34-1.94-3.38-1.29-5.17-1.3a10.58,10.58,0,0,1-7.83-3.39,7.32,7.32,0,0,1-1.91-6.36c.6-2.79,3.45-1.55,5.35-1.65,3.12-.16,6.26,0,9.39.07.3,3.8-1.08,7.85,1.88,11.28C308.88,246.34,307.62,247.06,306.79,247.24Z"/><path class="cls-159" d="M316.68,196.81c-.23-3.09,1-5.27,4.09-6.07.77-.19,2,.24,1.67,1.24-.91,2.7-2.69,4.61-5.78,4.81Z"/><path class="cls-160" d="M299.26,232.33c-2.21-1.47-6.81,1.81-6.84-2.46,0-3.86,2.87-7.39,7.59-7.77,3.26-.26,8.2,4.82,7.23,8C305.93,234.32,301.87,230.86,299.26,232.33Z"/><path class="cls-161" d="M398.46,268.54c3.2,5.55,5.29,11.26,2.54,17.66-1.11-2.32-.54-4.64-.64-7,.25,3.55-.66,7.1.57,10.67,0,1.41.26,2.88-1.19,3.83,0-.21,0-.46-.11-.61a3.3,3.3,0,0,0-.74-.69c-.91.83,0,2.52-1.52,3.16-2.28-.68-1.15-2.74-1.55-4.15-1.66-5.89-4.1-6.35-9.63-4.1-4,1.63-7,3.21-7.8,7.63-.16-9.15-1.53-10.13-10.3-7.34-2.54.81-5,2.13-7.45-.23,8.12-6.58,18-10,26.93-15.23C390.9,270.2,394.1,267.54,398.46,268.54Z"/><path class="cls-106" d="M394.24,254.81c2.4.68,4.56,2.3,4.92,4.76.33,2.22-1.75,3.87-4,3.71-2.48-.17-4-2-4.19-4.59C390.82,256.58,391.82,255.15,394.24,254.81Z"/><path class="cls-162" d="M263.69,258.53c4.54,5.8,10.31,10.17,16.43,14.13q-2,8.88-4,17.75c-4.41-.72-5.47-4.75-7.48-7.77s-3-6.41-4.58-9.59c-1-2-2.82-2.39-4.8-1.58-2.18.89-1.76,2.63-1,4.2,4.18,8.69,8.5,17.28,17.85,21.73,5.25,5.14,7.81,12.1,12.08,17.93,1.86,2.55-1.75,5.1-6.37,4.34-3.88-.64-7.74-1.39-11.61-2.09-2.26-2.46-4-5.59-7.7-6.28-1.62-10.9-3.09-21.86-8.87-31.6-1-1.76-1.5-4-3.69-4.87-3.32-1.53-4.58-4.92-6.74-7.51l-2.18-2.46c3.23-5,3.25-10.87,4.83-16.32.41-1.6,1-3.11,2.79-3.61l5.94-2.8C255.26,248.91,259.22,253.86,263.69,258.53Z"/><path class="cls-163" d="M276.13,297.4c-2.19,2.48-3.64.42-5.14-.89A55.11,55.11,0,0,1,256.25,275c-.8-2-2-4.34,1.29-4.78,2.54-.34,5.79-3.79,7.76,1.36,2.6,6.82,5.39,13.61,10.84,18.82C278,292.75,278.06,295.08,276.13,297.4Z"/><path class="cls-164" d="M287.68,276.13a2.8,2.8,0,0,1,2.61,1.09c1.46,1.92.6,4,.5,6.08-.72,13.94,9.45,22.42,23.16,19.32,3-.66,5.95-2.56,9-.1l1.3,0c0,.41,0,.82,0,1.23a7.46,7.46,0,0,1-1.52,2c-12.58,9.26-33.14,3.3-37.83-11.47C282.92,288.24,282.34,281.48,287.68,276.13Z"/><path class="cls-128" d="M287.68,276.13c-6.58,13.22-.84,30.4,15.74,32.06,7,.7,14.47,0,20.77-4.42.08,1.77-.13,3.38-2.06,4.14-8.52,3.34-25.92,5.54-33.84-4.09-6.54-7.95-7-16.58-4-25.86.32-1,.56-2,.84-3Z"/><path class="cls-165" d="M203.6,275.94c2.09,1.16,3.09,3.21,4.2,5.17-.38,6.1-6.47,8.42-8.74,13.26-4.48,4.79-4.37,11.86-8.4,16.87-4-3.26-7.81-6.79-12.65-8.84-1.69-5.42.65-9.65,4-13.56C189.74,285.4,197.54,282.13,203.6,275.94Z"/><path class="cls-166" d="M182,288.84l-4,13.56c-3.87-.8-7.51-2.42-11.61-2.4-4.84,0-6.36-4.11-8.28-7.56C166.28,292.46,174.17,290.74,182,288.84Z"/><path class="cls-167" d="M190.66,311.24c1.2-6.52,2.79-12.88,7.53-17.91,3.12,6.11.28,11.4-2.3,16.72,0,2.52,0,5.05,0,7.58Z"/><path class="cls-101" d="M400.93,289.9c-2.3-3.58-.81-7.42.07-11.19v7.49C401,287.44,401,288.67,400.93,289.9Z"/><path class="cls-168" d="M195.89,310.05c-.34-5.73,2.93-10.95,2.3-16.72l9.6-12.22,3.1,2.7c2.85,0,5.65-.43,8.55.2,5,1.08,7.89-2.58,11.23-5.31,3.73-3,5.92-8.19,11.64-8.52,8.78,5.79,12.84,20.93,8.1,30.2-.87,1.7-1.79,3.48-4.25,2.19-8.36-.86-15.59,2.42-22.7,6.17l-7.18-6.16c-1.49-2.67,1.06-4.08,1.89-6,.63-1.45,2.37-3,.6-4.38s-3,.35-4.09,1.58a140.17,140.17,0,0,1-17.77,16.33Z"/><path class="cls-169" d="M246.16,302.57c.58-.21,1.43-.23,1.7-.64,5.58-8.2,1.88-25.06-6.71-30.85-.72-1.53.53-1.89,1.45-2.45.21-.44.43-.87.64-1.31,3.58,1.3,5.18,4.39,6.73,7.51,2.52,6.59,5.42,13.06,6.24,20.18C257.37,305.2,256.08,306.18,246.16,302.57Z"/><path class="cls-170" d="M196.91,310.1c0-3,2.44-4.23,4.39-5.62a54.65,54.65,0,0,0,12.87-12.56c2-2.83,4-2.73,6.23-1.45,3.22,1.83.69,4-.22,5.77-1.12,2.2-2.59,4.23-3.9,6.34-3.11,3.1-6,6.45-9.38,9.27C201,316.85,200.85,316.72,196.91,310.1Z"/><path class="cls-171" d="M384.56,222c0,.49,0,1,0,1.48-4,1.46-3.47,5.69-5.21,8.54-1.59,2.61-2.45,5.67-4.82,7.8C371.51,228.16,374.58,222.68,384.56,222Z"/><path class="cls-172" d="M389.7,232.17a2.48,2.48,0,0,1,2.59,1c-.79,9.24-2.65,11.52-10.29,12.65Z"/><path class="cls-151" d="M322.91,302.52c-1.83.28-3.79.24-5.47.89-8.65,3.38-16.72,1.84-23.27-4.13s-6.19-14.06-3.88-22.06l10,1.47a6.28,6.28,0,0,1,1.32,2.1c3.72,10.57,5.67,11.75,17,10.26a9.48,9.48,0,0,1,3.1.13C324.18,294.74,322.43,298.75,322.91,302.52Z"/><path class="cls-173" d="M321.71,291.18c-13,5.54-21.14.81-21.42-12.49,6.35.47,12.55-1,18.84-1.35-.1,4.4,1.72,8.42,2.58,12.63C321.72,290.37,321.72,290.78,321.71,291.18Z"/><path class="cls-174" d="M242.6,268.63l-1.45,2.45c-3.21,3-6.84,5.58-9.56,8.94-6,7.36-13,6.7-20.7,3.79l18.93-16.52C234.17,266.86,238.37,267.93,242.6,268.63Z"/><path class="cls-175" d="M247.4,248.36c-.8,4.5-1.77,9-2.33,13.51-.34,2.73-2.29,2.53-4,3-4-3.23-6.77-7.5-10-11.39,2.78-2,4.74-5.44,8.86-5.12C242.42,246.84,244.91,246.3,247.4,248.36Z"/><path class="cls-176" d="M247.4,248.36h-7.48q0-.57-.06-1.14c-.27-3.77-6.49-4.16-5.06-8.9,1.38-1.84,3.44-2.71,5.38-3.77,3.92-1.34,7.68-4.25,12.07-1.32.57,4.44-2.35,7.82-3.58,11.71C248.25,246.08,247.83,247.22,247.4,248.36Z"/><path class="cls-177" d="M252.25,233.22c-4.4-.48-8.22,1.78-12.34,2.61-1.75-5.06.26-9.42,2.54-13.73C249.9,222.12,251.61,227.2,252.25,233.22Z"/><path class="cls-178" d="M242.45,222.1c.3,4.79-1.69,9.15-2.54,13.73a7,7,0,0,1-5.11,2.48C232.06,229.78,234.6,224.4,242.45,222.1Z"/><path class="cls-179" d="M340.58,264.79c1.26,8.46-2.38,14.86-8.38,20.36-2.14,2-3.3,2.12-4.29-1s-2.44-6.17-3.68-9.24C330.23,272.44,335.44,268.68,340.58,264.79Z"/></g></g></svg>