<svg xmlns="http://www.w3.org/2000/svg" viewBox="0 0 850.39 566.93"><defs><style>.cls-1{fill:none;}.cls-2{fill:#ed9f38;}.cls-3{fill:#f39d2f;}.cls-4{fill:#f59d29;}.cls-5{fill:#f39f32;}.cls-6{fill:#f49e2c;}.cls-7{fill:#dab572;}.cls-8{fill:#dcb471;}.cls-9{fill:#dcb981;}.cls-10{fill:#e2ab59;}.cls-11{fill:#ecd59f;}.cls-12{fill:#f9da99;}.cls-13{fill:#eeca8d;}.cls-14{fill:#f8e4b6;}.cls-15{fill:#f9d3a7;}.cls-16{fill:#221841;}.cls-17{fill:#221845;}.cls-18{fill:#221846;}.cls-19{fill:#201943;}.cls-20{fill:#241737;}.cls-21{fill:#261937;}.cls-22{fill:#f39a30;}.cls-23{fill:#491a10;}.cls-24{fill:#3c1718;}.cls-25{fill:#d0977d;}.cls-26{fill:#6a3315;}.cls-27{fill:#d69d77;}.cls-28{fill:#9e7371;}.cls-29{fill:#401a15;}.cls-30{fill:#481d15;}.cls-31{fill:#a1746f;}.cls-32{fill:#ce9777;}.cls-33{fill:#faf8f4;}.cls-34{fill:#231840;}.cls-35{fill:#f59e2a;}.cls-36{fill:#613d2f;}.cls-37{fill:#3a1c1e;}.cls-38{fill:#4b2921;}.cls-39{fill:#3d1e22;}.cls-40{fill:#7d4a47;}.cls-41{fill:#ae7439;}.cls-42{fill:#dea36c;}.cls-43{fill:#231947;}.cls-44{fill:#f19f2e;}.cls-45{fill:#461b11;}.cls-46{fill:#cd977a;}.cls-47{fill:#e69631;}.cls-48{fill:#462c3b;}</style></defs><g id="Layer_2" data-name="Layer 2"><g id="Layer_1-2" data-name="Layer 1"><rect class="cls-1" width="850.39" height="566.93"/><path class="cls-2" d="M680.18,521.32c9.14-6.23.07-4.58-4.37-4.91l-34.08-.76c-4.6-2.63-2.22-6.19-2.22-9.25q-.28-126.94-.21-253.92c-6.25-5.3-12.47-5.32-18.59.11.06,85.59,0,171.2.32,256.81,0,5.74-2.85,7.41-10.51,7-8.62-.44-17.28-.44-25.93-.62-5.07-2.77-2.56-6.66-2.56-10q-.24-135.69-.08-271.38c-2.92.05-6-.22-7.84,2-7.55,9-6,.09-7.92-1.94-8.49-14.21-27.65-16-45.66-17.44-23.13-1.82-43.73,3.43-61.84,17.4,4.36-12.78-5.49-13.79-16.39-13.79q-40.18,0-80.34.29c-21.44.12-21.44.18-25.65,14-11.1-8.8-22.94-15-39.52-17.25-26.94-3.66-53.47,1.75-68.34,16.6-4,4-6.54,4.11-9.91.18-10.35-12-26.92-16-45.69-17.47-31.57-2.37-62.44,9.83-65.13,28.05-3,20.26-3.84,40.9,1.88,61.11,8.08,28.46,19.79,56.27,34,83.58l4.89,11a75.46,75.46,0,0,0,3.5,8.64c3.68,6.81,1.83,10-9.91,9.11-8.57-.65-17.35.16-26-.17-7.27-.27-9.91,1.53-9.83,6.65.47,23.43.42,46.88.7,70.31a19.54,19.54,0,0,0,2.88,10.45c11.19,18.27,33.25,23,58.81,22.72,19-.18,37.06-3,47.67-15.9.79-3.17,3-6.35,7.74-6.14,4,.17,2.87,3.77,3.47,6,9.21,10,23.66,13.27,39.58,14.57,8,.65,14.4-3.47,22.58-3.42,50,.36,100,.22,150,.51,10.82.07,21.17.76,20.3-10,4.29.45,5.49,2.52,7.64,3.91a54.86,54.86,0,0,0,39.23,8.22,211.41,211.41,0,0,1,33.48-2.24q70.38-.2,140.78-.33C680.73,522.93,679.73,521.63,680.18,521.32Zm-466.34-28.1c-1.7,16.71-17.8,26.4-42.16,26.72-39.11.54-53.79-9.32-54-36.32,0-7.23,0-14.45,0-21.67,0-9.66.44-19.31-.16-28.92-.39-5.74,2.8-6.94,10.51-7,28.07-.22,28-.42,28,19.23q0,19.88.15,39.76c.08,5.36-.76,12.39,9.86,12.44,11.6.07,10-7.31,10.63-13,4.45-40.54-12.1-78.39-30.32-116.16-17.66-36.58-32.3-73.64-28.72-112.9C119,240.59,130.09,230.09,149,227c27.73-4.51,50.45.72,60.54,13.85,3.79,4.94,4.83,10.26,4.88,15.7.13,16.85-.15,33.73.27,50.59.15,5.61-2.78,7.35-10.64,7.19-31.58-.71-26.92,4-27.47-18.07-.32-12.66.08-25.3.1-38,0-3.35-.26-6.79-3.63-9.36a12,12,0,0,0-10.82-1.48c-5.75,1.77-6,5.54-6.14,9.21a164,164,0,0,0,14.79,76.47c13.88,30.64,30.45,60.78,38.73,92.54C215.38,448.06,216.11,470.65,213.84,493.22Zm115.08,23.06q-8.79-.13-17.57-.25c-8.18.18-17.53,2.5-20.44-6-21.35,12.29-42.44,10.39-53.37-4.35-3.61-1.79-2-4.65-2.95-7-3.11-2.57-2.33-5.68-2.33-8.62q-.19-48.12-.16-96.25c0-2.63-.75-5.45,2.46-7.63,3.95-8.45,12.52-14,23.76-17.74,6.3-4.85,16.42-6.59,21.3-12.58v0s0,0,0,0c-1.86-4.91,5.49-7.34,6.45-11.48.92.59,1.86,1.21,2.77,1.81.24-.89.47-1.78.71-2.67h0q.12-48.21.26-96.46c-3.79-3.1-9-3.37-14.32-3.4-7.16,2.41-6.88,6.9-6.85,11.42.05,26.76-.29,53.53.21,80.29.13,6.43-2.69,8.13-11.74,8-23.08-.26-23.1,0-23.1-16.26,0-23.74-.16-47.5.26-71.25.36-21.1,13.3-29.75,44-30.19,28.28-.38,41.93,5,48.22,18.87a15.71,15.71,0,0,1,2.23.53c.13-.28.15-.69.44-.82a7.65,7.65,0,0,1,1.73-.36c.15,2.37.47,4.72.47,7.1q.07,128.9.05,257.77C331.35,511.36,332.94,514.31,328.92,516.28Zm117.72-21.13c.05,21.15,0,21.15-30.21,21.13-2.17,0-4.32.06-6.49.09l-21.72,0c-8.23,0-16.54-.42-24.72,0-10,.57-13.67-1.57-13.33-9,.83-18.94.42-37.9.42-56.86,0-70.13.07-140.24-.42-210.37-.08-8.47,3.89-10.88,15.57-10.64,28.18.58,22.77-1.51,22.95,15.68.37,36.72.06,73.44.08,110.14,0,4.08-1.54,8.51,8.18,9,10.3.49,12.39-2.59,12.31-9-.31-36.41-.13-72.83-.15-109.24,0-16.49,0-16.06,23.18-16.68,11.19-.28,14.93,1.53,14.72,9.8-.87,37-.68,74-.87,111,0,3.57,0,7.12,0,10.69Q446.39,428,446.64,495.15Zm112.81,20.07c-7.82,3.35-21.9,3.44-27.18.36-10.49-6.1-15.24,0-22.48,1.5-10.85,2.3-21.15,1.47-30.11-3.84l-2.22-1c-8.58-4.42-10-10.85-10.07-17.55-.1-34.22,0-68.42-.15-102.63,0-5.41,2.66-9.92,7.65-13.92,9.39-7.53,20.89-13.11,33.77-17.4,13.41-9,16.94-19.92,16.37-32.7-1.13-24.95-.55-50-.19-74.93.08-5.83-2.3-9.29-11.18-9.3-9.41,0-10.85,4.05-10.8,9.59.21,26.78-.26,53.58.26,80.36.16,7.32-2.51,10.12-13.72,9.74-26.29-.92-21.77,2-21.95-15.44-.27-22.87,1.35-45.8-.42-68.61-2.22-28.66,23.36-36.38,58.73-32.85,27,2.68,35.52,9.55,35.57,28,.21,76.16.08,152.3,0,228.46a17.33,17.33,0,0,1-.47,2.68c.21,5.07,1,10.17.44,15.21S565.49,512.63,559.45,515.22Z"/><path class="cls-3" d="M209.57,425.71c5.81,22.35,6.54,44.94,4.27,67.51-1.7,16.71-17.8,26.4-42.16,26.72-39.11.54-53.79-9.32-54-36.32,0-7.23,0-14.45,0-21.67,0-9.66.44-19.31-.16-28.92-.39-5.74,2.8-6.94,10.51-7,28.07-.22,28-.42,28,19.23q0,19.88.15,39.76c.08,5.36-.76,12.39,9.86,12.44,11.6.07,10-7.31,10.63-13,4.45-40.54-12.1-78.39-30.32-116.16-17.66-36.58-32.3-73.64-28.72-112.9C119,240.59,130.09,230.09,149,227c27.73-4.51,50.45.72,60.54,13.85,3.79,4.94,4.83,10.26,4.88,15.7.13,16.85-.15,33.73.27,50.59.15,5.61-2.78,7.35-10.64,7.19-31.58-.71-26.92,4-27.47-18.07-.32-12.66.08-25.3.1-38,0-3.35-.26-6.79-3.63-9.36a12,12,0,0,0-10.82-1.48c-5.75,1.77-6,5.54-6.14,9.21a164,164,0,0,0,14.79,76.47C184.72,363.81,201.29,394,209.57,425.71Z"/><path class="cls-3" d="M227.5,512.54c-3.89-6.7-7.55-3.21-11.21.12.79-3.17,3-6.35,7.74-6.14C228.05,506.69,226.9,510.29,227.5,512.54Z"/><path class="cls-3" d="M331.35,508.81c0,2.55,1.59,5.5-2.43,7.47q-8.79-.13-17.57-.25c-8.18.18-17.53,2.5-20.44-6-21.35,12.29-42.44,10.39-53.37-4.35-3.61-1.79-2-4.65-2.95-7-3.11-2.57-2.33-5.68-2.33-8.62q-.19-48.12-.16-96.25c0-2.63-.75-5.45,2.46-7.63,3.95-8.45,12.52-14,23.76-17.74,6.3-4.85,16.42-6.59,21.3-12.58v0s0,0,0,0c-1.86-4.91,5.49-7.34,6.45-11.48.92.59,1.86,1.21,2.77,1.81.24-.89.47-1.78.71-2.67h0q.12-48.21.26-96.46c-3.79-3.1-9-3.37-14.32-3.4-7.16,2.41-6.88,6.9-6.85,11.42.05,26.76-.29,53.53.21,80.29.13,6.43-2.69,8.13-11.74,8-23.08-.26-23.1,0-23.1-16.26,0-23.74-.16-47.5.26-71.25.36-21.1,13.3-29.75,44-30.19,28.28-.38,41.93,5,48.22,18.87a15.71,15.71,0,0,1,2.23.53c.13-.28.15-.69.44-.82a7.65,7.65,0,0,1,1.73-.36c.15,2.37.47,4.72.47,7.1Q331.38,379.94,331.35,508.81Z"/><path class="cls-3" d="M446.14,350.24c0,3.57,0,7.12,0,10.69q.27,67.11.52,134.22c.05,21.15,0,21.15-30.21,21.13-2.17,0-4.32.06-6.49.09l-21.72,0c-8.23,0-16.54-.42-24.72,0-10,.57-13.67-1.57-13.33-9,.83-18.94.42-37.9.42-56.86,0-70.13.07-140.24-.42-210.37-.08-8.47,3.89-10.88,15.57-10.64,28.18.58,22.77-1.51,22.95,15.68.37,36.72.06,73.44.08,110.14,0,4.08-1.54,8.51,8.18,9,10.3.49,12.39-2.59,12.31-9-.31-36.41-.13-72.83-.15-109.24,0-16.49,0-16.06,23.18-16.68,11.19-.28,14.93,1.53,14.72,9.8C446.14,276.22,446.33,313.23,446.14,350.24Z"/><path class="cls-3" d="M559.45,515.22c-7.82,3.35-21.9,3.44-27.18.36-10.49-6.1-15.24,0-22.48,1.5-10.85,2.3-21.15,1.47-30.11-3.84l-2.22-1c-8.58-4.42-10-10.85-10.07-17.55-.1-34.22,0-68.42-.15-102.63,0-5.41,2.66-9.92,7.65-13.92,9.39-7.53,20.89-13.11,33.77-17.4,13.41-9,16.94-19.92,16.37-32.7-1.13-24.95-.55-50-.19-74.93.08-5.83-2.3-9.29-11.18-9.3-9.41,0-10.85,4.05-10.8,9.59.21,26.78-.26,53.58.26,80.36.16,7.32-2.51,10.12-13.72,9.74-26.29-.92-21.77,2-21.95-15.44-.27-22.87,1.35-45.8-.42-68.61-2.22-28.66,23.36-36.38,58.73-32.85,27,2.68,35.52,9.55,35.57,28,.21,76.16.08,152.3,0,228.46a17.33,17.33,0,0,1-.47,2.68c.21,5.07,1,10.17.44,15.21S565.49,512.63,559.45,515.22Z"/><path class="cls-3" d="M681.07,523.78c-.34-.85-1.34-2.15-.89-2.46,9.14-6.23.07-4.58-4.37-4.91l-34.08-.76c-4.6-2.63-2.22-6.19-2.22-9.25q-.28-126.94-.21-253.92c-6.25-5.3-12.47-5.32-18.59.11.06,85.59,0,171.2.32,256.81,0,5.74-2.85,7.41-10.51,7-8.62-.44-17.28-.44-25.93-.62-5.07-2.77-2.56-6.66-2.56-10q-.24-135.69-.08-271.38c-2.92.05-6-.22-7.84,2-7.55,9-6,.09-7.92-1.94,1.83,1.27,2.82,4,6.51,1.21,4-3,7.08-3.31,9.44-1.57a1,1,0,0,1,.23.18,4.48,4.48,0,0,1,.81.76v0a7.23,7.23,0,0,1,.92,1.16v0a11.47,11.47,0,0,1,1,1.66c1.13,17.46.45,34.91.47,52.35q.16,104.67.08,209.33c0,4.46-1.15,9.11,3.48,13a15.81,15.81,0,0,0,4.91,1.11c16.65,1.07,21.43,1,22.79-5.47a48.23,48.23,0,0,0,.55-9.41q0-114.74,0-229.49v-3.13c0-1.56,0-3.1-.08-4.66v0a41.5,41.5,0,0,1,.6-8.6s0,0,0,0a.56.56,0,0,1,0-.22c.13-.14.23-.27.36-.4s0,0,.06,0c7-7.72,14.76-7.61,23.57.29,1.67,4.72,1.05,9.56,1.05,14.36q.07,116.32.08,232.67c0,4.15-1.08,8.42,1.64,12.4,9.05,4,19.11,1.09,28.6,2,.49,0,1,.09,1.41.12l2.48.24C689,515.52,688.54,516.48,681.07,523.78Z"/><path class="cls-4" d="M253.62,144.3c-3.61,1.08-5.21,5.88-10.51,3.42-3.92-1.79-2.12-4.78-.6-7.32C241,148.84,248,145.67,253.62,144.3Z"/><path class="cls-4" d="M294.26,93.25c-1.86,3.43-5.2,5.82-10.09,7.19Z"/><path class="cls-4" d="M630,57c1.68,1.05,2.62,2.53,3.9,3.84-3.4,0-4.76-1.4-5.1-3.5.24-.21.47-.43.73-.63A4.57,4.57,0,0,1,630,57Z"/><path class="cls-4" d="M634.67,19.4c-2.51.63-5.3.72-7.63,1.66a7.33,7.33,0,0,0-1.52.8,1.79,1.79,0,0,0-.36.21,4.46,4.46,0,0,1-1.62-1.19c.68-3.26,4.31-3,7.68-3.11,3.77-.13,8,.18,8.08-3.73C642.36,17.71,638.1,18.49,634.67,19.4Z"/><path class="cls-4" d="M769.88,306.61a5.4,5.4,0,0,1-2.8-3.3,4.56,4.56,0,0,1-.18-.6c0-.11,0-.2,0-.3a17,17,0,0,0,2.56.61C769.57,304.22,769.72,305.41,769.88,306.61Z"/><path class="cls-5" d="M448.79,543.87q96.46,0,192.92.08c5.73,0,14.1-2.18,14,5.57-.11,6.84-5.66,9.67-14.68,9.8-14.77.21-29.54.26-44.31.27q-170.11.07-340.22,0c-5.61,0-13.4,2.34-14.56-5.27-1.53-10-1.4-10.51,14-10.51H448.79Z"/><path class="cls-2" d="M717.63,235.37a3.08,3.08,0,0,1,0,.53v-.29C717.66,235.52,717.63,235.43,717.63,235.37Zm0-.39v.18a1.49,1.49,0,0,0,0-.4v-.18A3.62,3.62,0,0,0,717.61,235ZM759,316.84c.76-.58.63-1.72.92-2.61-.08-11.41-.18-22.85-.24-34.28L748.24,216.6c-15.53-.06-31-.09-46.55-.17-5.36,0-9.15,1.36-10.59,5.13-2.27,4-3.94,8-1.7,12.29a5.59,5.59,0,0,1,.89.85,3.52,3.52,0,0,1,.6.76c2.28,3.26,1.6,7.52,6.33,9.93a.11.11,0,0,0,.08,0,4.16,4.16,0,0,0,.47.24c2-.53,3-1.34,3.5-2.3a91.49,91.49,0,0,0-.71,9.18c-.15,4.11-.18,8.2-.52,12.31-.08,1-.18,2.12-.31,3.17a41.16,41.16,0,0,0,0,9.67c.05.56.13,1.12.18,1.67,0,0,0,0,0,.05.55,4.53,1.36,9.09,1.54,13.62a6.58,6.58,0,0,0,.29,1.66.69.69,0,0,0,0,.24,4.6,4.6,0,0,0,2.9,2.88,5.15,5.15,0,0,0,.86.21,5.45,5.45,0,0,0,.86.11,4.47,4.47,0,0,0,.74,0A7.19,7.19,0,0,0,709,298a8.67,8.67,0,0,0,1.44-.58s0,0,0,0a4.35,4.35,0,0,0,1.59-1.63h0a5.86,5.86,0,0,0,.32-.67,11.61,11.61,0,0,0,.57-2c.55-2.66.65-5.36,1.41-8v0a13.22,13.22,0,0,1,1-2.6c-.18-11.52,1.75-23,2.33-34.53a0,0,0,0,0,0-.06v0c.15-3.08.23-6.11.13-9.2A4.44,4.44,0,0,0,720,242a4.85,4.85,0,0,0,.55.09.27.27,0,0,0,.13,0s0,0,.05,0a7.22,7.22,0,0,0,1.23,0h0c.19,0,.34,0,.5-.07a6.42,6.42,0,0,0,.86-.23c1.18-.4.6-1.69,2.09-1.83a6.43,6.43,0,0,1-.07,1.75,24,24,0,0,0-.81,4.55,9.92,9.92,0,0,0-.06,1.54c.13,1.46.26,2.93.42,4.4v.16c1.15,11.28,2.93,22.56,2.51,33.91-.1,3.25,1.28,6.38,3.4,9.31.23.33.47.65.73,1l.16.07c6.82,3.33,8.39.6,9.64-2.5.21-.56.45-1.12.68-1.66a2.26,2.26,0,0,1,.13-.33c.52-10.86.45-21.71,0-31.54,1.2,10.3,2.69,21.62,3,33.06v0c0,.58.06,1.14.06,1.72,0,.15,0,.29,0,.44.86,10-2.14,19.12-11.18,27.54-7.64,7.13-9.6,15.88-9.88,24.86-1.39,45.25,2.69,90.19,14.48,134.75a36.75,36.75,0,0,1,.49,18c-1.36,5.81-5.85,10.43-14.48,11.42-9.25,1.09-15.65-2.68-19.91-8.11-3.72-4.72-3.74-9.78-2.36-14.94a471.47,471.47,0,0,0,12.39-61.69c1.62-12.6,5.07-25.47-2.3-37.89a.54.54,0,0,0-.1-.2,1.48,1.48,0,0,0-.19,0c-10.21,2-9,8.28-8.59,13.24,1.41,18.69-8.37,36.76-5.91,55.46.31,2.39-2,4.67-2.28,7-1.51,15.25-12.23,30.22-2.9,45.79a4.23,4.23,0,0,0,.06,1.29,2.81,2.81,0,0,0,.13.59c1.07,3.39,6.11,4.73,9.28,7,26.24,12.46,57.44-4.62,54.49-22.41-1-6.27-.65-12.7-2.32-18.85-10.07-37-13.47-74.4-13.2-112C741.08,349,739.51,331.16,759,316.84Z"/><path class="cls-6" d="M570.82,117.41l-23.16-1.92c-36.46-6.5-73-5.78-109.49-.31-18.14,2.72-35.94,6.34-52.48,12.31a37.73,37.73,0,0,1-9.67,2.38c-.4.18-.79.34-1.21.5l-.05,0a44,44,0,0,0-13.85,4.74l0,0c-2,.62-3.92,1.25-5.83,1.94q-31.28,13.47-62.57,27a11,11,0,0,0-1.59.54,32,32,0,0,1,4.21-.54c-12,9.76-29.17,15.14-42.74,23.83,6.82-9.76,16.81-17.64,27.79-24.9v0a6,6,0,0,1,1.51-2.68c16.39-13.48,40.67-29.6,74.75-42.38C364.83,114.75,417,95.72,483.55,97c46.76.92,69.94,11.28,77,14.7A111.44,111.44,0,0,1,570.82,117.41Z"/><path class="cls-6" d="M374.76,130.39c-4.34,1.81-9,3.21-13.59,4.67l-.26.07A44,44,0,0,1,374.76,130.39Z"/><path class="cls-2" d="M691.91,510.76c0,.58-.1,1.14-.18,1.72v0c0,.07,0,.14,0,.22a37,37,0,0,1-3.11,10.7c-2.51.12-5,.23-7.52.36-.34-.85-1.34-2.15-.89-2.46,9.14-6.23.07-4.58-4.37-4.91a7.07,7.07,0,0,1-1.12-2.32c-.68-2.44,0-5,0-7.46v-5q.24-124,0-247.95a19.83,19.83,0,0,0-.52-5.38c-.13-.44-.29-.83-.45-1.23v0c-6.19-17.17-19.29-21-43-12.71-4.45,1.54-8.6,4.72-14,1.23a1.93,1.93,0,0,0-.34-.29,12.23,12.23,0,0,0-1.49-1.16c-7.87-5.43-17.77-2.34-27-1.77-1.33.41-2.56,1-3.86,1.43-.29.11-.61.21-.89.3a6.86,6.86,0,0,1-.84.24l-.42.11c-2.92.05-6-.22-7.84,2-7.55,9-6,.09-7.92-1.94,7.4,1.58,5.73-2.48,5.33-4.65-1.28-7.1,3.61-8.53,12.81-8.59,21.17-.14,42.32-1.06,63.46-1.59,11.58-.29,22.59.76,30.53,7.57,6.2,2.15,9.72,5.14,9.7,9.29a5.26,5.26,0,0,1-.11,1.1,9.24,9.24,0,0,1-.78,2.68c-2.17,4.67-1.93,9.51-1.93,14.33q0,118.63-.11,237.3C685.09,498.74,686,505.13,691.91,510.76Z"/><path class="cls-7" d="M126.42,176.68c11.58,4.13,23.88,5.34,35.9,7.12,3,.43,6.27-.06,9,.63,4.73,1.17,11.25,1.83,12.72,5.24,1.61,3.72-4.82,5.32-8.49,7.06-8,3.81-8,7.3-.63,11.32,1.8,1,5.39,1.94,2.46,4-2,1.44-5.12.9-7-.52C164.31,207,156,203,166.34,196c7.52-5.1,1.51-7.27-5.54-7.94a210,210,0,0,1-33.88-5.68c-3.82-1-10.65-1.17-9.94-5.8.68-4.45,6-6.56,11.67-7.19,13.36-1.51,25.68-5.37,38.65-7.73,2.83-.51,5.41-1.7,9.53-3-10.61-5-21.52-2.92-31.65-3.77-3.14-.26-8.28.65-7.88-2.79.35-3,5.15-2.58,8.56-2.33,9.47.67,19,1.1,28.33,2.35,4.28.57,10.71,1.18,10.83,5.28.11,3.94-4.93,6.58-10,7.44-14.29,2.44-27.55,7.27-42.29,8.56C130.6,173.52,128.44,173.7,126.42,176.68Z"/><path class="cls-8" d="M126.75,194.6c1.77,4.9-6.54,5.39-10.49,7.77-10.16,6.12,2,9,4.37,13.27-13.93.67-18.09-3.59-13.93-13.94,4-1.31,7.21-3.17,9.7-6.52-13.73-5.24-29.54-3.84-43.5-7.34C67.13,187,60,187.26,60,181.16c0-5.12,6.28-6.08,11.45-7.24,14.66-3.31,29.48-6.32,45.35-9.67-11.84-8.89-27.21-3.31-40-6.7,10.69-4.44,40.69-3.58,48.35,1.14,5.2,3.21,3.09,5.67-2,7.68-12.46,4.89-26.16,7.49-39.8,10-5,.94-10.07,1.56-14.8,4.9a95.26,95.26,0,0,0,26.56,5.94c5.17.44,10.84-.14,15.42,1.16C116.19,190,124.89,189.53,126.75,194.6Z"/><path class="cls-9" d="M645.41,55.26c-3.73,2-7.68,3.75-11.52,5.62-3.4,0-4.76-1.4-5.1-3.5.24-.21.47-.43.73-.63A4.57,4.57,0,0,1,630,57C646.8,52.2,653.49,45,651,34.3c-1.93-8.3-8.91-12.21-24-13.24a7.33,7.33,0,0,0-1.52.8,1.79,1.79,0,0,0-.36.21,4.46,4.46,0,0,1-1.62-1.19c.68-3.26,4.31-3,7.68-3.11,3.77-.13,8,.18,8.08-3.73C660.6,18.56,665.8,44.51,645.41,55.26Z"/><path class="cls-10" d="M253.62,144.3q-16.16,17.46-32.36,34.94c3-14.18,8.49-27.5,21.25-38.84C241,148.84,248,145.67,253.62,144.3Z"/><path class="cls-11" d="M690.81,234.27c0,.4.08.81.08,1.19,0,1.33-.36,2.43-3,2.21a7.4,7.4,0,0,1-1.09-.12c-1.05-4.13-6.2-6.63-8.5-10.27,6.2,2.15,9.72,5.14,9.7,9.29l2.27-1.87a5.59,5.59,0,0,0-.89-.85c-2.24-4.29-.57-8.31,1.7-12.29C691,225.8,690.92,230,690.81,234.27Z"/><path class="cls-12" d="M688.59,523.42c1.21-3.58-2-7.71,2.83-10.85,1-.35,1.73-.19,2.14.56,1.62,3,8.33,3,8.42,6.9C695.39,517.14,691.62,519.57,688.59,523.42Z"/><path class="cls-13" d="M374.76,130.39l-13.59,4.67-.26.07A44,44,0,0,1,374.76,130.39Z"/><path class="cls-14" d="M294.26,93.25c-1.86,3.43-5.2,5.82-10.09,7.19Z"/><path class="cls-15" d="M227.5,512.54c-3.81-2.74-7.5-1.25-11.21.12.79-3.17,3-6.35,7.74-6.14C228.05,506.69,226.9,510.29,227.5,512.54Z"/><path class="cls-16" d="M328.68,281.51q.07,110.33,0,220.67c0,12.33,0,12.71-15.79,13.74l-1.57.11c-8.18.18-17.53,2.5-20.44-6-21.35,12.29-42.44,10.39-53.37-4.35-2.25-5.5-2.77-11.15-2.77-16.84,0-30.44.13-60.86-.05-91.29-.05-10,4.21-18.29,17-23.69,3.22-1.35,4.6-3.49,6.64-5.41,6.3-4.85,16.42-6.59,21.3-12.58v0c.84-2.1,1.44-4.33,5-4.73a1.61,1.61,0,0,1,.33,0,8.79,8.79,0,0,1,1.05,0c6.19-1.07,6.17-4.53,6.17-7.88v-7.31c.05-19.61.1-39.22.05-58.83,0-1.18,0-2.35,0-3.53,0-7.66-.05-15.32-.1-23v-.23c0-7.14-3.09-8.15-16.65-6.59-7.16,2.41-6.88,6.9-6.85,11.42.05,26.76-.29,53.53.21,80.29.13,6.43-2.69,8.13-11.74,8-23.08-.26-23.1,0-23.1-16.26,0-23.74-.16-47.5.26-71.25.36-21.1,13.3-29.75,44-30.19,28.28-.38,41.93,5,48.22,18.87a9.39,9.39,0,0,1,2.23,4.73c.44,2.51,0,5.08,0,7.6Z"/><path class="cls-17" d="M213.84,493.22c-1.7,16.71-17.8,26.4-42.16,26.72-39.11.54-53.79-9.32-54-36.32,0-7.23,0-14.45,0-21.67,0-9.66.44-19.31-.16-28.92-.39-5.74,2.8-6.94,10.51-7,28.07-.22,28-.42,28,19.23q0,19.88.15,39.76c.08,5.36-.76,12.39,9.86,12.44,11.6.07,10-7.31,10.63-13,4.45-40.54-12.1-78.39-30.32-116.16-17.66-36.58-32.3-73.64-28.72-112.9C119,240.59,130.09,230.09,149,227c27.73-4.51,50.45.72,60.54,13.85,3.79,4.94,4.83,10.26,4.88,15.7.13,16.85-.15,33.73.27,50.59.15,5.61-2.78,7.35-10.64,7.19-31.58-.71-26.92,4-27.47-18.07-.32-12.66.08-25.3.1-38,0-3.35-.26-6.79-3.63-9.36a12,12,0,0,0-10.82-1.48c-5.75,1.77-6,5.54-6.14,9.21a164,164,0,0,0,14.79,76.47c13.88,30.64,30.45,60.78,38.73,92.54C215.38,448.06,216.11,470.65,213.84,493.22Z"/><path class="cls-18" d="M446.12,360.93c-3.87,3.46-2.49,7.53-2.51,11.35q-.12,63.72-.05,127.42c0,4.8.65,9.32-8.08,11.86-19,5.52-24.2,3.47-24.26-11-.1-33.13,0-66.27-.05-99.4,0-3,.34-6.05-.44-9-1.18-4.45-5.23-6.72-11.74-6.94-7.11-.23-10.11,2.81-11.37,7-.81,2.65-.39,5.4-.39,8.12,0,33.73.13,67.46-.16,101.19-.05,5.35,2.38,12.5-10.58,12.72-13.41.21-22.14-5.11-22.85-13.51-.23-3-.08-6-.08-9V258.57c0-3.62-.83-7.35.19-10.83,1.38-4.71-5.7-9.74-.19-13.62,5.05-3.54,12,2.25,19.4-.57,5.41-2.07,11,2.35,12.65,6.89,1.07,2.92.52,6,.52,9q0,51,0,102.11c0,2.11.13,4.21,0,6.32-.34,6.48,3.24,10.52,13.44,10.42,9.51-.09,12.83-4,12.67-10-.05-2.4,0-4.81,0-7.22,0-35.83-.08-71.69,0-107.54,0-10.3,12.07-15.14,25.58-10.59,6.72,2.26,5.62,6.37,5.62,10.18.11,31.92,0,63.86.11,95.78,0,3.84-1.36,7.9,2.53,11.35C446.14,353.81,446.12,357.36,446.12,360.93Z"/><path class="cls-19" d="M561.33,254.53c-.05-18.41-8.6-25.28-35.57-28-35.37-3.53-60.95,4.19-58.73,32.85,1.77,22.81.15,45.74.42,68.61.18,17.43-4.34,14.52,21.95,15.44,11.21.38,13.88-2.42,13.72-9.74-.52-26.78-.05-53.58-.26-80.36-.05-5.54,1.39-9.63,10.8-9.59,8.88,0,11.26,3.47,11.18,9.3-.36,25-.94,50,.19,74.93.57,12.78-3,23.7-16.37,32.7-3.32,3.82.42,5.94,4.21,7.79,2.59,1.26,5.93,1.91,7.06,4.12a3,3,0,0,1,.36,1.11v0c1.63,4.84-1.59,10.43,4.61,14.6l.13.09.2-.07c2.91-.87,3.43-2.19,3.32-3.59.29.69,1.1,1.18,3,1.31,3.66.25,5.13-1.91,5.65-4.26-1.28,34.33-.78,68.68,0,103.14,0-3.1-.89-6.74-6.36-6.2-4.54.44-4.28,4.1-4.52,6.72a121.89,121.89,0,0,0-.23,14.43c.21,8,1.17,11,7.37,11.9a36.24,36.24,0,0,0,4.23.34c2,.08,4.29,0,7,0a12.91,12.91,0,0,1,3.76.57c8.7,2.29,9.28-1.44,9.62-5.92.52-7.08-1.86-14.34,2.8-21.14a17.33,17.33,0,0,0,.47-2.68C561.41,406.83,561.54,330.69,561.33,254.53ZM528.42,383.94c-.31-1.43-.94-2.86-.13-3.89C529.39,380.94,528.45,382.58,528.42,383.94Z"/><path class="cls-20" d="M446.64,495.15c.05,21.15,0,21.15-30.21,21.13-2.17,0-4.32.06-6.49.09-5.41-4-4.34-9-4.36-13.7-.11-32.52.13-65-.26-97.54-.06-4.53,3.32-12.5-7.09-12.19-8.26.22-5.17,7.82-5.2,12.22-.29,32.52-.08,65-.23,97.54,0,4.71,1.23,9.76-4.58,13.62-8.23,0-16.54-.42-24.72,0-10,.57-13.67-1.57-13.33-9,.83-18.94.42-37.9.42-56.86,0-70.13.07-140.24-.42-210.37-.08-8.47,3.89-10.88,15.57-10.64,28.18.58,22.77-1.51,22.95,15.68.37,36.72.06,73.44.08,110.14,0,4.08-1.54,8.51,8.18,9,10.3.49,12.39-2.59,12.31-9-.31-36.41-.13-72.83-.15-109.24,0-16.49,0-16.06,23.18-16.68,11.19-.28,14.93,1.53,14.72,9.8-.87,37-.68,74-.87,111-7.73-1.28-5.09-5.68-5.09-8.9-.19-32.52-.32-65.06.05-97.58.08-6.58-1.39-9.73-12.63-9.58-10.82.13-13.93,2.24-13.82,9.74.52,38.26.26,76.5.23,114.76,0,10.54-3.55,13.24-16.33,13.2-13.28,0-15.16-5.65-15.14-13.22.27-36.74.13-73.47.11-110.23,0-2.41.42-4.91-.37-7.19-1.15-3.4-4.55-6.1-9.62-6.43-6.95-.43-5.22,3.66-5.77,6.43-.21,1.12-.05,2.43-2.46,2.9-3.58-.51-2.35-2.72-2.53-4.28-.29-2.89-.71-6.22-6.28-5-6.4,1.47.39,3.5.47,5.34.13,3,.47,6,.47,9q0,124.7,0,249.39c0,7.33,10.9,14.68,21,13.85,7.51-.61,4.89-5,4.92-7.89.21-30.11.13-60.24.15-90.36,0-6.62.29-13.25-.07-19.88-.42-7.1,3.86-12,14-12.71,10.92-.8,17.41,4.58,17.43,13.22.06,35.54-.15,71.09.29,106.61.05,3.88-5.33,10.76,6.61,11.16,10.28.36,19.16-6,19.19-12.71,0-43.37-.05-86.75.1-130.12,0-3.19-2.82-7.62,5.05-8.87Q446.39,428,446.64,495.15Z"/><path class="cls-21" d="M559.45,515.22c-7.82,3.35-21.9,3.44-27.18.36-10.49-6.1-15.24,0-22.48,1.5-10.85,2.3-21.15,1.47-30.11-3.84,4.57-3.91,11.08-2.66,16.93-3s12.26.25,16.78-3.28c.4-2.35-2.19-2.41-4.1-2.72-10.06-1.64-14.4-6.39-14.48-13.14-.39-35.49-.29-71-.08-106.49,0-3.91,1.7-7.51,5.15-10.75a14.6,14.6,0,0,0-8.31,7.93c-1,2-1.78,4.67-5,5-12.18,1.1-10.48,7.31-10.51,12.93q0,42.39,0,84.83c0,4.81-.63,9.81,6.19,13.05C491.67,502,490,506,481.51,510c-1.41.67-2.67,1.54-4.05,2.26-8.58-4.42-10-10.85-10.07-17.55-.1-34.22,0-68.42-.15-102.63,0-5.41,2.66-9.92,7.65-13.92,9.39-7.53,20.89-13.11,33.77-17.4.71,4.42,4.19,7.06,10.62,7.42,3.92.24,4.05,1.42,2.5,3.39-.15.6-.07,1.43-.62,1.72l-.87.49c-14.76,8.42-12.83,20.13-12.75,31.61.16,24.34,0,48.69,0,73.05,0,2.69-.36,5.43.18,8.09.61,3-.91,7.62,6.1,7.51,6.4-.1,6.27-4.43,6.37-7.62.53-15,.19-30.06.24-45.08,0-13.84-.16-27.65.1-41.49.08-4-1.1-8.38,4.32-11.44l.33-.18c3.51-3.17.71-7.05,2.54-10.72,4.23,1.85-.21,5.56,4.1,7.62,6.69-6.5.16-14.48,6.56-21V493.41c-7.29-3.2-.13-9.92-8.1-14.48,0,10.43-.18,19.66.18,28.9a4.69,4.69,0,0,0,3,4,6.64,6.64,0,0,0,2.35.58,4.11,4.11,0,0,0,1.88-.24c1.54-.61,1.57-2.33,2.72-3.26,6.9-5.52,7.89,4.26,14.48,2.41-2.69-6.1,1-12.24.94-18.57,0-2.85-1.31-6.34,5-7.08.21,5.07,1,10.17.44,15.21S565.49,512.63,559.45,515.22Z"/><path class="cls-19" d="M523.56,502.6C518.49,509,513,513.42,501.76,513c-7.31-.31-14.71.17-22.08.29l-2.22-1c-1.15-4.87,3.08-6.86,11.1-8.29C467,498.67,472.41,487,472.39,476.79c-.14-27.37-.29-54.73.18-82.11.08-4.49-4.76-13.84,11.94-9.25,3.22.88,3.56-2.16,3.35-3.82-.84-5.89,6.22-8.17,10.74-11.58,2.67-2,6.46-2.64,8.94-.27,2.3,2.18,1.52,4.67-2.9,5.67-8.16,1.85-6.2,6.63-6.2,10.61q-.22,51.42-.1,102.87c0,11.17,2.22,12.63,18.95,13.11C519,502.07,520.69,502.32,523.56,502.6Z"/><path class="cls-22" d="M388.22,516.32c.19-39.36.29-78.73.6-118.09,0-4.24-3.39-10.07,8.94-9.67,10.12.32,11.61,3.66,11.56,9.76-.37,36.07-.19,72.12-.13,108.19,0,3.29.49,6.57.75,9.86Z"/><path class="cls-23" d="M621,509.4c0,5.74-2.85,7.41-10.51,7-8.62-.44-17.28-.44-25.93-.62-2.22-2.17-1.3-4.65-1.3-7q-.09-135.68,0-271.35c0-.78,0-1.54-.08-2.32v0c0-.33,0-.65,0-1a5.76,5.76,0,0,1,.89-2.89c10.06-3.48,20.67-1.52,31.07-1.38,2.8,0,4.26,1.7,3.3,3.84a9.54,9.54,0,0,1-2,1.63c-3.71,2.28-8.68,1.83-13.23,1.38-8.91-.91-11.84,2-11.94,7.53,0,2.41-.16,4.81-.16,7.22q0,118.59,0,237.18c0,4.51-.5,9.08,1.51,13.44,3.32,7.08,7.85,8.22,18.54,4.87a9.43,9.43,0,0,0,2.43-2.28c2.35-3.3,1-7.08,1-10.58.16-74.31.05-148.62.11-222.91a8,8,0,0,0,.23-1.52c.37-5.59-4.5-11.46,1.59-16.8a4.87,4.87,0,0,1,1.68-.58h.08a5.1,5.1,0,0,1,2.37.32C620.77,338.18,620.71,423.79,621,509.4Z"/><path class="cls-24" d="M677.64,506.72c0,2.54.55,5.15-.47,7.61a8.32,8.32,0,0,1-1.36,2.08l-34.08-.76c-2-3.19-1-6.54-1-9.8q-.12-121.8-.13-243.64c0-3.24,1.28-6.63-1.28-9.73-6.25-5.3-12.47-5.32-18.59.11-.81-.05-1.59-.09-2.37-.09a.39.39,0,0,1-.06-.18.06.06,0,0,1,0,0c-2.43-7.25-.24-9.6,9.09-9.76,11.32-.22,19,4.14,20.73,12,.94,4.19.6,8.42.6,12.64q0,112.94,0,225.9A70,70,0,0,0,649,503c.47,3.16,1.62,6,7.21,6.41,4.68.34,8.5-.48,11.22-3.39,4.52-4.89,4.18-10.36,4.18-15.75q.12-51.49,0-103c0-42.46,0-84.94.08-127.42,0-4.28-1.12-8.78,2-12.71v0a11.88,11.88,0,0,1,2-1.94c3.19,2.63,1.83,5.76,1.86,8.67Q677.73,380.26,677.64,506.72Z"/><path class="cls-25" d="M584.59,515.81c-5.07-2.77-2.56-6.66-2.56-10q-.24-135.69-.08-271.38a2.4,2.4,0,0,0,.19-.29c.68-1,1.3-2,2-3v5.09q.2,80.08.39,160.24Q584.61,456.19,584.59,515.81Z"/><path class="cls-26" d="M330,509.19c0,2.37.71,4.83-1,7.09q-8.79-.13-17.57-.25l1.57-.11c11.48-1,13.54-5.9,13.49-14-.55-81-.34-161.93-.32-242.89,0-4.82.21-9.63.34-14.45a15.71,15.71,0,0,1,2.23.53c2.19,2.19,1.3,4.67,1.3,7Q330,380.66,330,509.19Z"/><path class="cls-27" d="M328.92,516.28l-.24-234.77q0-16.11,0-32.19v-4.2c.13-.28.15-.69.44-.82a7.65,7.65,0,0,1,1.73-.36c.15,2.37.47,4.72.47,7.1q.07,128.9.05,257.77C331.35,511.36,332.94,514.31,328.92,516.28Z"/><path class="cls-28" d="M641.81,262.75q.12,126.47-.08,252.9c-4.6-2.63-2.22-6.19-2.22-9.25q-.28-126.94-.21-253.92C643.82,255.45,641.81,259.31,641.81,262.75Z"/><path class="cls-29" d="M252.13,376.35c-11.43,4.17-14.69,11.68-14.67,20.08q0,54.63.08,109.26c-3.61-1.79-2-4.65-2.95-7-2.3-8-.94-16.15-1-24.22-.2-26.46-.1-52.91-.05-79.39,0-2.95-.86-6,1-8.89,3.95-8.45,12.52-14,23.76-17.74C258.74,372,257.35,374.45,252.13,376.35Z"/><path class="cls-30" d="M294.78,346.33c0,5.45-1.1,9.4-10.95,6.16.26-.45.52-.92.79-1.38a12.88,12.88,0,0,1,4.2-4.9c.24-.89.47-1.78.71-2.67h0l.05,0c2.43-2.75,1.28-5.79,1.28-8.71q.17-39.43,0-78.89c0-2.93,1-6-1.1-8.82-3.79-3.1-9-3.37-14.32-3.4,4.65-4.42,11.42-2.1,16.49-1.52,9.75,1.1,2.38,6.46,2.43,9.39C295,283.14,294.7,314.74,294.78,346.33Z"/><path class="cls-31" d="M232.26,490.08q-.19-48.12-.16-96.25c0-2.63-.75-5.45,2.46-7.63q0,56.25,0,112.5C231.48,496.13,232.26,493,232.26,490.08Z"/><path class="cls-32" d="M292.25,253.84c0,6.56,0,13.09,0,19.65,0,1.18,0,2.35,0,3.53q0,29.42-.05,58.83v1.41c0,2.23-.21,4.4-2.59,6.23l-.05,0q.12-48.21.26-96.46a5,5,0,0,1,2.33,3.42A17.79,17.79,0,0,1,292.25,253.84Z"/><path class="cls-32" d="M288.82,346.21c-1.28,1.63-2.56,3.24-3.87,4.87-.36.47-.75.94-1.12,1.41-1.38,1.1-2.8,2.24-4.21,3.35,0,0,0,0,0,0-1.86-4.91,5.49-7.34,6.45-11.48C287,345,287.91,345.61,288.82,346.21Z"/><path class="cls-33" d="M623.54,20.88a4.46,4.46,0,0,0,1.62,1.19,1.79,1.79,0,0,1,.36-.21,7.33,7.33,0,0,1,1.52-.8C625.92,21,624.77,20.93,623.54,20.88Zm6,35.87c-.26.2-.49.42-.73.63.42-.11.81-.21,1.2-.34A4.57,4.57,0,0,0,629.52,56.75Z"/><path class="cls-6" d="M785.56,267l-5.15,18.21c-4.41,6.92-2.4,15.36-10.53,21.41-.16-1.2-.31-2.39-.47-3.59.29-2.33.55-4.67.84-7,0-4.74,0-9.47,0-14.21v-.05c0-7.08.05-14.16.05-21.26v0c0-2.68,0-5.36,0-8-1.36-16.35-5.88-32.19-16.1-47.11-10.2-24.77-29.9-45.87-53.85-65.13-39.86-32.07-90-53.27-148.93-63.47a418.93,418.93,0,0,0-138.92-.47c-52,8.37-96.18,26.11-135.13,50.79C269,132.4,263,139.46,253.62,144.3c-5.65,1.37-12.63,4.54-11.11-3.9,10.69-14.92,25.72-27.66,41.66-40,4.89-1.37,8.23-3.76,10.09-7.19C330.43,69.7,372.54,53.06,420.4,44.42c43.1-7.79,87.14-9.62,131.21-2.93,9.28,1.41,18.89,1.52,27.83,4.3,5.68,1.78,7.64-.63,7.35-4.52-.29-3.61-.76-7.35.31-10.81C592.56,12.75,613.4,6.3,639.3,14c-.11,3.91-4.31,3.6-8.08,3.73-3.37.09-7-.15-7.68,3.11C610,26.64,602.63,35.58,604.9,43c2.75,9.06,10,14.35,23.89,14.36.34,2.1,1.7,3.52,5.1,3.5,17.27,8.16,35.39,15.43,51.57,24.8,29.66,17.24,52.79,37.94,70.85,61.48,10.88,14.19,17.93,29.42,23.89,44.9C789.74,216.78,790.4,241.78,785.56,267Z"/><path class="cls-34" d="M732.33,295.73c7.61,4,5.59-1.55,7.19-3.5,4,.11,6.57,1.91,9.07,3.77,1.92,9.93-.38,19-9.76,27.11-8.07,7-10.39,15.39-10.58,24.44-1,45.85,1.73,91.46,14.62,136.6,1.41,5,1,10.21.91,15.32-.19,8.29-10.62,16.2-21.31,16.54-10.17.33-21.73-6.3-23.77-14.12-2.85-11,2.58-21.46,4.68-32.13,5.25-26.51,11.58-52.95,9.09-79.89-2.37-1.57-3.59-3.68-2.91-5.73,4.2-12.63-1.66-25.12-.86-37.67.54-8.38-1.43-16.09-9.17-22.87a19.42,19.42,0,0,1-5.91-9.92c-1-9.3-.58-18.61-.33-27.92.1-3.37-.63-8.43,6.57-8.06,5.77.29,2.86,4.89,3.25,7.6.47,3.27-.22,6.61.27,9.9s2.92,4.17,7,2.2a5.11,5.11,0,0,1,4-2.52c2.86-.28,4.84,1.39,7.47,1.63,1.42-.34,2.75-.82,4.19-1.12C728.17,295.49,730.25,295.61,732.33,295.73Z"/><path class="cls-35" d="M712.48,389.83v.05c-3.08,1.47-4.81,3.77-5,6.08-1.12,14.18-2.77,28.34-4.34,42.45-1.72,15.59-5.64,31-7.53,46.62-1,8.11-6.19,15.57.74,23.52,1.3,1.49-.29,3.5-2.8,4.58a4.94,4.94,0,0,1-.86-.11,6.78,6.78,0,0,1-1-.3l-.28-.15C680.7,509.39,681,503.08,681,496.35c.19-82.73.08-165.44.24-248.17,0-3.81-3.06-8.8,5.57-10.63.39-.33.78-.66,1.2-1l2.27-1.87.52-.43c10,1.52,3.93,7.51,6.41,11.12,0,0,0,.05,0,.07a19.14,19.14,0,0,1,3.29,7.08,26.86,26.86,0,0,1-.52,12.31c-.73,3.19-1.72,6.38-2.48,9.54-.29,1.2-.58,2.39-.81,3.59-2.72,12.09-3.9,24.14-.16,36.29a65.73,65.73,0,0,0,9.31,11.38c4.6,4.39,7.47,9.69,7.26,15.76C712.61,357.54,716,373.69,712.48,389.83Z"/><path class="cls-36" d="M696.58,314.27c-9.45-13.53-2.48-27.52-1.72-41.22.51-9.17,1.7-18.39,2.41-27.6,4.57-5-.95-11.84,6.59-17.41,1.56,23.56-1.92,46.22,1.84,70.9,6.2-6.29,2.62-11.85,6.19-16.18,5.71,4.27,4.82,8.66.47,13.11-.53,2.41-2.21,3.89-6.08,3.52-4-.38-4.44-2.57-4.49-4.7-.12-5.2,0-10.39-1.91-15.58C695.24,290.75,697.35,302.57,696.58,314.27Z"/><path class="cls-37" d="M748.59,296c-4.45.39-7.3-1.07-9.07-3.77V229.5C744.2,251.55,749.47,273.57,748.59,296Z"/><path class="cls-38" d="M712.36,295.87q-.23-6.56-.46-13.11l3.51-51.49c7.52,4.34,4.36,10.84,5.1,16,2,13.92.93,28,.55,42.09-.06,2.41-.68,4.78-3.74,6.41Z"/><path class="cls-39" d="M732.33,295.73c-2.33,4.09-4.46,2-6.59-.11-3.08-1.63-3.68-4-3.76-6.42-.37-12.28-.4-24.56,0-36.83.1-2.79-.3-6.24,5.71-6.9Q730,270.6,732.33,295.73Z"/><path class="cls-40" d="M727.72,245.47c-5,5.47-1.92,11.5-2.18,17.24-.48,11,.07,21.94.2,32.91-.52,1.45-.52,3.14-3.32,3.58a6.16,6.16,0,0,1-1.92-3.13c-.61-15.56-.14-31.13-.25-46.7,0-2.69-.22-5.42,2.18-7.79l1.41-10.13C729,235.93,728,240.73,727.72,245.47Z"/><path class="cls-41" d="M722.33,298.15a6.2,6.2,0,0,0,.09,1.05c-4.19.61-4.35-1.64-5.1-3.46-.34-21.5,2.77-43-1.91-64.47-.35-1.41-1.45-3.24.62-4,2.84-1.11,3.58,1,3.74,2.21.52,4.1.62,8.22.88,12.33,1.87,15.21.28,30.46.86,45.69C721.65,291,720.67,294.64,722.33,298.15Z"/><path class="cls-42" d="M722.33,298.15c-4.4-8.73-1.49-17.76-2-26.63-.6-9.9.17-19.83.35-29.76.59-.07,1.19-.13,1.78-.18Q722.39,269.87,722.33,298.15Z"/><path class="cls-43" d="M675.76,245.14q-.13,124.67-.38,249.34a26.58,26.58,0,0,1-2,11.35c-4.36,9.79-14.91,7.39-24,6.71-7.57-.57-4.67-5.67-4.68-8.92q-.19-81.75-.09-163.51c0-27.71-.14-55.41,0-83.12,0-7.6-4.06-11-15.83-12-10.64-.86-10.61,2.59-10.48,7.5-5.87,5.29,2.14,10.71-.32,16-3.4,3.88-2.14,8.19-2.14,12.33q-.12,108.06-.11,216.11c0,4.14,1.26,8.45-2.1,12.34-3.27,6.37-11.3,3.83-16.69,3.29-7.45-.75-5.87-7.12-9.32-10.64-1.43-1.45-.37-4.1-.37-6.2q0-125.85,0-251.69c0-2.11-.66-4.44.42-6.26,2-3.35,3.34-7.53,11.72-4.36,5.6,2.13,12.67,1.18,19.1.23,4.95,4.37,7.14-.51,10-1.66C651.29,222.81,673,228.74,675.76,245.14Z"/><path class="cls-44" d="M269.11,494.76q-.24-52.33-.49-104.67c0-7,5-11.87,13.86-15,10-1.92,9.58,3,9.63,7.25.18,18.31.08,36.62.07,54.93,0,18,.07,36,0,54,.18,4.34-2.29,7.55-8.66,8.52C276.94,500.81,271.69,499.45,269.11,494.76Z"/><path class="cls-45" d="M269.11,494.76c7.22,4.08,14.32,6.71,20.54-.84,2.14-3.15,1.23-6.5,1.24-9.76.06-35.07,0-70.14.08-105.21,0-2.3-1.46-4.83,1.54-6.83,4.13,2.7,2.4,6.23,2.41,9.38.07,34.89-.24,69.78,0,104.67.07,9-.82,16.49-17.9,16-2-.06-4.14,1.63-6.42,2.59C268.15,501.28,268.84,498,269.11,494.76Z"/><path class="cls-46" d="M292.51,372.12q-.13,55.72-.3,111.46c0,3.51,1.37,7.26-2.56,10.34q0-55.12-.08-110.24c0-3.84,1.62-8.24-7.1-8.57C285.62,373.79,287.31,370.13,292.51,372.12Z"/><path class="cls-47" d="M525.22,388.19q-.35,48.68-.71,97.35c0,1.8-.09,3.61,0,5.41.27,5.51-4.44,7.49-11.43,7.55s-10.15-2.6-10.14-7.35c0-34.57.1-69.13,0-103.7,0-9,11.52-11.21,18.82-15.93C527.83,376.59,522.94,382.74,525.22,388.19Z"/><path class="cls-48" d="M613.66,509.32q-.18-117.13-.37-234.27c0-2.73-.36-5.56,4.72-6.5q.19,117.18.37,234.36C618.39,505.56,619.09,508.55,613.66,509.32Z"/></g></g></svg>